<?xml version="1.0" encoding="UTF-8"?>
<svg version="1.1" xmlns="http://www.w3.org/2000/svg" width="369" height="361">
<path d="M0 0 C10.91328623 6.01225892 20.50116057 13.54730695 29.635746 21.97723961 C30.14005803 22.439335 30.64437006 22.90143039 31.16396427 23.37752867 C66.85355998 56.38844097 72.5021811 98.66719124 74.323246 145.32880211 C76.33307319 198.95506537 74.03477478 252.85809372 70.36328506 306.35980797 C70.26045267 307.95490226 70.26045267 307.95490226 70.15554285 309.58222067 C69.95948544 312.55754092 69.74021079 315.53016006 69.51276016 318.50322533 C69.45891002 319.35701637 69.40505987 320.21080741 69.3495779 321.09047091 C68.6033725 330.03827478 65.20254464 338.15060933 58.385746 344.16473961 C49.32463894 351.31837444 37.71294617 349.8606022 26.83081436 349.79584312 C24.63706764 349.80098603 22.44332505 349.8082701 20.24959183 349.81752586 C14.31159609 349.83599936 8.37405086 349.82312694 2.43607402 349.80343556 C-3.7870415 349.78701656 -10.01012921 349.7958664 -16.23325729 349.80095482 C-26.68137071 349.80547178 -37.12931629 349.78973474 -47.57738876 349.76166344 C-58.31216502 349.73282251 -69.04668594 349.72574764 -79.78149033 349.74115562 C-92.74137163 349.75973204 -105.70109375 349.7579621 -118.6609745 349.73894119 C-123.6021649 349.73207869 -128.54326035 349.73309495 -133.48444939 349.74048615 C-139.30487443 349.74816083 -145.12493277 349.73598372 -150.94529533 349.70863724 C-153.07815081 349.70176514 -155.2110406 349.70164278 -157.34389496 349.70885277 C-160.26145198 349.71757719 -163.17788501 349.70154055 -166.09534836 349.67940331 C-166.93388401 349.68764407 -167.77241965 349.69588484 -168.63636547 349.70437533 C-175.9165015 349.60282821 -181.89386756 347.52240786 -187.426754 342.72723961 C-188.148629 341.88161461 -188.870504 341.03598961 -189.614254 340.16473961 C-190.666129 339.05098961 -190.666129 339.05098961 -191.739254 337.91473961 C-196.89201979 330.35734978 -197.01086577 322.49753286 -196.801754 313.60223961 C-196.78145126 311.94611656 -196.78145126 311.94611656 -196.76073837 310.25653648 C-196.72570214 307.55874689 -196.67657991 304.86201325 -196.614254 302.16473961 C-197.25239029 302.17362206 -197.89052658 302.1825045 -198.54800034 302.19165611 C-205.19906264 302.28025707 -211.84995686 302.34052705 -218.50146103 302.38446617 C-220.98265011 302.40456202 -223.46379195 302.43184345 -225.9448204 302.46649742 C-229.51443781 302.51510254 -233.08342816 302.53772933 -236.6533165 302.55536461 C-237.75978531 302.57600975 -238.86625412 302.59665489 -240.00625229 302.61792564 C-246.01388715 302.61966984 -250.01810625 302.47483533 -254.614254 298.16473961 C-257.13217282 294.59417276 -257.99039229 292.17493863 -258.00193405 287.82039452 C-258.01183868 286.76200874 -258.02174332 285.70362297 -258.03194809 284.6131649 C-258.02744644 283.4623745 -258.02294479 282.31158409 -258.01830673 281.12592125 C-258.02516998 279.90587898 -258.03203323 278.68583672 -258.03910446 277.42882347 C-258.05425555 274.08979154 -258.05587046 270.75131854 -258.05016208 267.41229367 C-258.04706795 264.62156554 -258.05316517 261.83088776 -258.05920082 259.0401668 C-258.0732397 252.45477657 -258.07169023 245.86951609 -258.06029892 239.28412437 C-258.04881895 232.49764951 -258.06289241 225.7115699 -258.08969539 218.92514712 C-258.11187025 213.09142691 -258.11848577 207.2578306 -258.11261898 201.42407125 C-258.10925233 197.94294451 -258.11164461 194.46207109 -258.12887001 190.98097992 C-258.14724541 187.09814719 -258.13313359 183.2157985 -258.11596298 179.3329525 C-258.12563095 178.18418633 -258.13529892 177.03542015 -258.14525986 175.85184288 C-258.08951185 169.83605351 -257.93421412 165.76089376 -253.614254 161.16473961 C-250.03626354 158.63802794 -247.6393965 157.79229331 -243.27318954 157.82416344 C-241.71213737 157.82450333 -241.71213737 157.82450333 -240.1195488 157.82485008 C-239.0079187 157.84033394 -237.8962886 157.85581779 -236.75097275 157.87177086 C-235.03029335 157.87813812 -235.03029335 157.87813812 -233.27485275 157.88463402 C-229.61691279 157.90140477 -225.959527 157.93905525 -222.301754 157.97723961 C-219.81934009 157.99228846 -217.33691753 158.00597652 -214.85448837 158.01825523 C-208.77422168 158.05130312 -202.69427744 158.10148721 -196.614254 158.16473961 C-196.61794117 157.42243442 -196.62162834 156.68012922 -196.62542725 155.91532993 C-196.71392281 137.81911732 -196.78003376 119.72294813 -196.82150269 101.62656498 C-196.84209191 92.87513182 -196.87014254 84.12384347 -196.91601181 75.37250328 C-196.95599144 67.74117599 -196.98171325 60.10995362 -196.99060798 52.47852451 C-196.99580398 48.44100912 -197.00793965 44.4037938 -197.03717422 40.36637497 C-197.0645197 36.55865092 -197.07266085 32.75134778 -197.06668472 28.94353485 C-197.06777648 27.55326988 -197.07561602 26.16298942 -197.0910759 24.77280998 C-197.19454683 14.98019857 -196.09968422 6.69335306 -190.801754 -1.71026039 C-156.19067766 -35.33244883 -39.0417385 -20.64396191 0 0 Z " fill="#E9E9E3" transform="translate(278.61425399780273,10.835260391235352)"/>
<path d="M0 0 C1.28025176 -0.00701996 1.28025176 -0.00701996 2.58636719 -0.01418173 C5.445274 -0.02614423 8.30370257 -0.01666953 11.16261292 -0.00723267 C13.21270528 -0.01129784 15.26279545 -0.01663941 17.31288147 -0.02316284 C22.88104704 -0.03684954 28.44904602 -0.03153192 34.01721454 -0.02202559 C39.84270858 -0.01443502 45.66818827 -0.02147302 51.49368286 -0.02618408 C61.27804629 -0.03164382 71.06234182 -0.02444473 80.84669495 -0.01016235 C92.15919676 0.00615998 103.47153632 0.0008795 114.78403419 -0.01564157 C124.49456593 -0.02925564 134.20504881 -0.03117633 143.91558701 -0.02332556 C149.71613573 -0.01864804 155.5166082 -0.01802633 161.31715202 -0.02793503 C166.7713696 -0.03660104 172.22537807 -0.03058928 177.67957306 -0.01325226 C179.68146225 -0.00928529 181.68336904 -0.01042504 183.68525124 -0.01704025 C186.41784652 -0.02523754 189.14977163 -0.01495597 191.88232422 0 C192.67464477 -0.00669217 193.46696531 -0.01338433 194.28329557 -0.02027929 C199.08126428 0.0306585 202.33464577 0.76217359 206.50465393 3.38095093 C210.17661458 7.4498803 211.6271189 9.8272917 211.64509583 15.25064087 C211.65080597 16.27966019 211.65651611 17.3086795 211.66239929 18.36888123 C211.66407608 20.06916725 211.66407608 20.06916725 211.66578674 21.80380249 C211.67075165 22.99414597 211.67571655 24.18448944 211.68083191 25.41090393 C211.69295409 28.681751 211.70040259 31.95256229 211.70484257 35.22342777 C211.707773 37.2674417 211.71187782 39.31145002 211.71634674 41.35546112 C211.73002543 47.75201938 211.73968946 54.14856481 211.74354863 60.54513669 C211.74802621 67.92616347 211.76555844 75.30700478 211.79454923 82.68797517 C211.8161828 88.39422301 211.82625385 94.10041874 211.82758975 99.80670714 C211.82863687 103.21407813 211.83452418 106.62127484 211.85240936 110.0286026 C211.86944792 113.83271859 211.86759447 117.63638266 211.86109924 121.44052124 C211.87031403 122.56594833 211.87952881 123.69137543 211.88902283 124.85090637 C211.85917645 130.42610705 211.7513544 134.61562272 208.50465393 139.38095093 C203.28290542 144.2110683 199.11106821 144.5297024 192.24981689 144.52812195 C191.39802457 144.53179864 190.54623225 144.53547532 189.66862804 144.53926343 C186.80366122 144.55030966 183.93873066 144.55414568 181.07374573 144.55795288 C179.02395004 144.56421674 176.97415548 144.57086347 174.92436218 144.5778656 C169.34787248 144.5952806 163.77139136 144.60582841 158.1948812 144.61407113 C154.71245725 144.61921949 151.23003597 144.62529525 147.74761391 144.63158226 C136.85638799 144.65063444 125.96516887 144.66486638 115.07392949 144.67319423 C102.49319742 144.68297231 89.91264102 144.70930673 77.33197087 144.74969512 C67.61299955 144.77982819 57.89407867 144.79466038 48.17506152 144.79797524 C42.3677239 144.80032862 36.56057396 144.80932683 30.75328636 144.83443642 C25.290873 144.85767339 19.82877149 144.86196792 14.36632156 144.85167503 C12.36119488 144.85117852 10.35605308 144.85753273 8.35097313 144.87123108 C5.61375378 144.88888545 2.87766144 144.88187576 0.14044189 144.86869812 C-0.65324289 144.87966737 -1.44692768 144.89063661 -2.26466352 144.90193826 C-7.43911951 144.84178395 -10.44324895 143.87331364 -14.49534607 140.38095093 C-17.16719993 136.89313704 -17.87148223 134.39195547 -17.88302612 130.03660583 C-17.89293076 128.97822006 -17.90283539 127.91983429 -17.91304016 126.82937622 C-17.90853851 125.67858582 -17.90403687 124.52779541 -17.8993988 123.34213257 C-17.90626205 122.1220903 -17.91312531 120.90204803 -17.92019653 119.64503479 C-17.93534762 116.30600286 -17.93696253 112.96752986 -17.93125415 109.62850499 C-17.92816003 106.83777686 -17.93425724 104.04709908 -17.94029289 101.25637811 C-17.95433177 94.67098789 -17.9527823 88.08572741 -17.94139099 81.50033569 C-17.92991102 74.71386083 -17.94398449 67.92778121 -17.97078747 61.14135844 C-17.99296232 55.30763823 -17.99957784 49.47404192 -17.99371105 43.64028257 C-17.99034441 40.15915583 -17.99273668 36.67828241 -18.00996208 33.19719124 C-18.02833748 29.31435851 -18.01422566 25.43200981 -17.99705505 21.54916382 C-18.00672302 20.40039764 -18.01639099 19.25163147 -18.02635193 18.0680542 C-17.97060392 12.05226483 -17.81530619 7.97710508 -13.49534607 3.38095093 C-9.1865462 0.05922508 -5.24560148 -0.04418146 0 0 Z " fill="#2668EE" transform="translate(38.49534606933594,168.61904907226563)"/>
<path d="M0 0 C3.29725656 1.44145185 5.47517854 3.22591467 8.01165771 5.76441956 C9.19368019 6.9401503 9.19368019 6.9401503 10.39958191 8.13963318 C11.25481949 9.00049026 12.11005707 9.86134735 12.99121094 10.74829102 C13.89887711 11.65405884 14.80654327 12.55982666 15.74171448 13.49304199 C18.2274 15.97388571 20.70679978 18.46092513 23.18498135 20.9492619 C25.77752507 23.55059142 28.3753417 26.14664524 30.97247314 28.74339294 C35.33028153 33.10213737 39.68420146 37.46473538 44.03564453 41.82983398 C49.07313357 46.88307253 54.11585445 51.93104113 59.16159034 56.97604424 C64.01110868 61.82495331 68.85776888 66.67670806 73.70282745 71.53007317 C75.76744515 73.59822954 77.83291728 75.66552707 79.89904022 77.73217964 C82.77783139 80.61215724 85.65234645 83.49636535 88.52636719 86.38110352 C89.38970169 87.24398483 90.25303619 88.10686615 91.14253235 88.99589539 C91.91926804 89.77689606 92.69600372 90.55789673 93.49627686 91.36256409 C94.17689556 92.04485864 94.85751427 92.72715319 95.55875778 93.43012333 C97 95 97 95 97 96 C87.26366689 96.1162489 77.52750099 96.20489445 67.79061317 96.25906086 C63.26852391 96.28506845 58.74691217 96.32030298 54.22509766 96.37719727 C49.85488621 96.43183507 45.48513181 96.46148689 41.11460495 96.47438622 C39.45372709 96.48356949 37.79287205 96.50150164 36.1321907 96.52865028 C25.18393633 96.70038642 16.93862404 95.88286866 8.1875 88.6875 C2.25410447 81.39789978 -0.12961509 76.21367304 -0.11352539 66.75292969 C-0.11367142 66.03058136 -0.11381744 65.30823303 -0.1139679 64.56399536 C-0.11327284 62.18325772 -0.1054995 59.80259892 -0.09765625 57.421875 C-0.09579063 55.76849409 -0.0943674 54.11511262 -0.09336853 52.46173096 C-0.08955473 48.11505603 -0.07973415 43.76841463 -0.06866455 39.42175293 C-0.05842599 34.98429823 -0.05386567 30.54683811 -0.04882812 26.109375 C-0.03811086 17.40623463 -0.02104809 8.70312149 0 0 Z " fill="#BABAB9" transform="translate(250,1)"/>
<path d="M0 0 C8.24136315 4.88647196 13.21480355 11.12592397 16.20703125 20.30859375 C17.86846547 30.26597319 15.77677897 37.99110382 10.20703125 46.30859375 C5.62209438 52.51308544 -0.41422429 56.15962951 -7.79296875 58.30859375 C-18.21425913 59.72291173 -25.53860331 57.35486517 -34.04296875 51.55859375 C-39.37153465 47.36579787 -42.69787402 41.71281344 -44.79296875 35.30859375 C-45.89871559 24.47227471 -45.1058564 16.15871285 -38.25390625 7.32421875 C-28.403948 -3.59943163 -13.36831031 -6.4070343 0 0 Z " fill="#F9F8EE" transform="translate(151.79296875,212.69140625)"/>
<path d="M0 0 C36.72222222 0 36.72222222 0 47 10 C53.034254 18.42744255 53.75218717 25.80368502 53 36 C50.72584754 44.89885744 44.53554932 50.24894927 37 55 C25.80378946 60.46156612 11.51748466 58 0 58 C0 38.86 0 19.72 0 0 Z " fill="#FBF9EE" transform="translate(45,212)"/>
<path d="M0 0 C0.79809082 0.00281982 1.59618164 0.00563965 2.41845703 0.00854492 C8.7218035 0.18174208 13.21002358 1.5022531 18.1875 5.5 C19.28964844 6.32564453 19.28964844 6.32564453 20.4140625 7.16796875 C21.29191406 7.82732422 21.29191406 7.82732422 22.1875 8.5 C22.01124165 10.87948772 21.49030227 12.20225849 19.78515625 13.87890625 C18.28100908 15.12115486 16.73620149 16.31376056 15.1875 17.5 C10.48334665 15.67060703 10.48334665 15.67060703 8.37890625 14.45703125 C3.8968474 12.49962587 -1.04218198 12.89434444 -5.8125 13.5 C-9.89576902 15.16328965 -12.16432406 17.62182614 -14.75 21.125 C-16.72439693 27.39661379 -16.8983363 33.83034516 -14.25 39.9375 C-11.95995282 43.80990617 -9.1490797 46.22218646 -4.8125 47.5 C0.62440511 48.26869351 5.34069843 48.40602546 10.0625 45.375 C13.1875 43.5 13.1875 43.5 15.875 44 C18.33596706 45.59630296 20.22805195 47.3228355 22.1875 49.5 C20.13748367 54.3909019 16.75832635 56.13087206 12.1875 58.5 C4.67130591 61.47811464 -3.38731511 61.66635474 -11 58.9375 C-19.56535786 55.04909945 -25.1045877 49.10935861 -28.8125 40.5 C-31.38032543 32.54641086 -30.81375189 23.59545648 -27.375 16.0625 C-24.20816156 10.44753822 -20.31559557 6.79268551 -14.8125 3.5 C-13.91144531 2.95472656 -13.01039063 2.40945312 -12.08203125 1.84765625 C-7.93356519 0.13771504 -4.44512987 -0.0347783 0 0 Z " fill="#F8F7EE" transform="translate(205.8125,210.5)"/>
<path d="M0 0 C4.35575124 2.52686583 6.93266242 5.79347708 8.6875 10.5 C9.764153 16.50257866 8.90983044 21.52263806 5.8984375 26.80859375 C3.3933214 30.30767527 0.7223056 32.1550648 -3.3125 33.5 C-9.38566546 34.21078529 -14.73465081 34.53439357 -19.875 30.875 C-24.91488401 26.34853452 -26.47773972 22.35306777 -26.875 15.625 C-26.73450197 10.23924236 -25.59204113 7.06792857 -22.0078125 3.05859375 C-15.81149037 -2.63802498 -7.64560251 -3.25191033 0 0 Z " fill="#2769EE" transform="translate(146.3125,225.5)"/>
<path d="M0 0 C17.86363636 0 17.86363636 0 23.77734375 5.71875 C27.1216168 9.43286031 28.81073687 12.06951603 29.3125 17.1875 C28.81995335 23.19656911 26.625474 27.86618564 22.0625 31.875 C14.24650413 37.29834407 10.67293491 36 0 36 C0 24.12 0 12.24 0 0 Z " fill="#296BEE" transform="translate(57,223)"/>
</svg>
