<?xml version="1.0" encoding="UTF-8"?>
<svg version="1.1" xmlns="http://www.w3.org/2000/svg" width="512" height="512">
<path d="M0 0 C1.66280722 -0.00339833 1.66280722 -0.00339833 3.3592065 -0.00686532 C7.05750032 -0.01317324 10.75575719 -0.01237802 14.45405579 -0.0115509 C17.11243831 -0.01454441 19.77081798 -0.01791934 22.42919922 -0.02172852 C28.89170086 -0.03001263 35.35419338 -0.03278235 41.81669988 -0.03334089 C47.07380356 -0.03381716 52.33090424 -0.03587741 57.58800697 -0.03904152 C72.5157236 -0.04784231 87.44343306 -0.05246185 102.3711523 -0.05171105 C103.57669636 -0.05165111 103.57669636 -0.05165111 104.80659485 -0.05158997 C105.61128021 -0.05154909 106.41596556 -0.0515082 107.24503533 -0.05146609 C120.27800153 -0.05105987 133.31093881 -0.0606247 146.34389665 -0.07472833 C159.74845833 -0.08911881 173.15300593 -0.09599704 186.55757552 -0.09513456 C194.07416971 -0.09480349 201.59073358 -0.09751082 209.10732079 -0.10831261 C215.50840328 -0.11745288 221.90944172 -0.11956409 228.31052794 -0.11280318 C231.57101425 -0.10955556 234.83139937 -0.1105208 238.0918808 -0.11815643 C272.475659 -0.19343241 300.25723525 6.3367362 325.99043274 30.38371277 C345.96859465 50.76722869 354.8621657 77.24723051 354.81945801 105.44796753 C354.82172356 106.55650567 354.82398912 107.66504382 354.82632333 108.80717403 C354.83263125 112.50546785 354.83183603 116.20372472 354.83100891 119.90202332 C354.83400242 122.56040584 354.83737735 125.21878551 354.84118652 127.87716675 C354.84947063 134.33966839 354.85224036 140.80216091 354.8527989 147.26466741 C354.85327517 152.52177109 354.85533542 157.77887177 354.85849953 163.0359745 C354.86730031 177.96369113 354.87191985 192.89140059 354.87116905 207.81911983 C354.87110912 209.02466389 354.87110912 209.02466389 354.87104797 210.25456238 C354.87100709 211.05924774 354.87096621 211.86393309 354.87092409 212.69300286 C354.87051788 225.72596906 354.88008271 238.75890634 354.89418634 251.79186418 C354.90857682 265.19642586 354.91545504 278.60097346 354.91459256 292.00554305 C354.9142615 299.52213724 354.91696883 307.03870111 354.92777061 314.55528831 C354.93691089 320.95637081 354.9390221 327.35740925 354.93226119 333.75849547 C354.92901357 337.01898178 354.92997881 340.2793669 354.93761444 343.53984833 C355.01304908 377.99609708 348.44060983 405.71310331 324.37324524 431.50480652 C304.07842371 451.35715374 277.33731375 460.30977747 249.37149048 460.26742554 C248.26295233 460.26969109 247.15441419 460.27195665 246.01228398 460.27429086 C242.31399016 460.28059878 238.61573328 460.27980356 234.91743469 460.27897644 C232.25905217 460.28196995 229.60067249 460.28534488 226.94229126 460.28915405 C220.47978962 460.29743816 214.0172971 460.30020789 207.55479059 460.30076643 C202.29768692 460.3012427 197.04058623 460.30330295 191.78348351 460.30646706 C176.85576688 460.31526784 161.92805742 460.31988738 147.00033817 460.31913658 C146.19664213 460.31909663 145.3929461 460.31905667 144.56489563 460.3190155 C143.76021027 460.31897462 142.95552491 460.31893374 142.12645515 460.31889162 C129.09348895 460.31848541 116.06055167 460.32805024 103.02759383 460.34215387 C89.62303215 460.35654435 76.21848455 460.36342257 62.81391495 460.36256009 C55.29732076 460.36222903 47.78075689 460.36493636 40.26416969 460.37573814 C33.8630872 460.38487842 27.46204876 460.38698963 21.06096254 460.38022872 C17.80047622 460.3769811 14.54009111 460.37794633 11.27960968 460.38558197 C-18.3745347 460.45050342 -44.67844863 456.38842711 -68.31425476 437.13371277 C-69.14183289 436.46984558 -69.96941101 435.80597839 -70.82206726 435.12199402 C-91.08003667 417.94399802 -102.58779239 393.36331742 -105.31425476 367.13371277 C-105.84331605 358.22317425 -105.71520653 349.2875439 -105.68656921 340.36540222 C-105.68900142 337.69597871 -105.69260972 335.02657999 -105.69763184 332.35716248 C-105.70705141 325.8983921 -105.7005811 319.43973458 -105.68836889 312.98097268 C-105.67465178 305.44160125 -105.67639518 297.90225576 -105.67850222 290.36287501 C-105.68168195 276.90259418 -105.67008183 263.44236651 -105.6504364 249.98210144 C-105.63142525 236.95278811 -105.62435312 223.92353702 -105.62992859 210.89421082 C-105.63599976 196.6646483 -105.63578573 182.43511303 -105.62444276 168.20555276 C-105.62323561 166.68561089 -105.62202962 165.16566902 -105.62082481 163.64572716 C-105.62022128 162.89810982 -105.61961774 162.15049247 -105.61899591 161.38022006 C-105.61513336 156.13774723 -105.61550386 150.89528461 -105.61741066 145.65281105 C-105.61954265 139.25740246 -105.61423273 132.86204808 -105.59979711 126.4666547 C-105.59260272 123.21017028 -105.58951865 119.95377948 -105.59304047 116.69728661 C-105.62462482 82.25545313 -99.0607456 54.54534853 -75.00175476 28.76261902 C-54.70693323 8.9102718 -27.96582327 -0.04235193 0 0 Z " fill="#E0F4FD" transform="translate(131.3142547607422,25.866287231445313)"/>
<path d="M0 0 C0.64066406 -0.02449219 1.28132813 -0.04898438 1.94140625 -0.07421875 C18.26945086 -0.16716777 32.56557828 7.6129713 46.6875 14.828125 C48.72658705 15.85514607 50.76639546 16.88073603 52.80688477 17.90496826 C58.12728964 20.58030779 63.43779105 23.2747355 68.74633789 25.97351074 C74.18432189 28.73371505 79.63162299 31.47540341 85.078125 34.21875 C95.72785273 39.58627378 106.36719123 44.97404696 117 50.375 C117.04691239 64.99694743 117.08208246 79.61888478 117.10362434 94.24089241 C117.11389657 101.03155166 117.12787842 107.82216391 117.15087891 114.61279297 C117.17309329 121.17451676 117.18459209 127.7362102 117.18975449 134.29796982 C117.19343027 136.79280233 117.20060779 139.28763238 117.21146011 141.782444 C117.35530312 176.24207201 110.75111363 203.95841024 86.6875 229.74609375 C66.39267847 249.59844097 39.65156851 258.5510647 11.68574524 258.50871277 C10.5772071 258.51097833 9.46866895 258.51324388 8.32653874 258.51557809 C4.62824492 258.52188601 0.92998805 258.52109079 -2.76831055 258.52026367 C-5.42669307 258.52325718 -8.08507275 258.52663211 -10.74345398 258.53044128 C-17.20595562 258.53872539 -23.66844814 258.54149512 -30.13095465 258.54205366 C-35.38805832 258.54252993 -40.64515901 258.54459018 -45.90226173 258.54775429 C-60.82997836 258.55655507 -75.75768782 258.56117461 -90.68540706 258.56042381 C-91.4891031 258.56038386 -92.29279914 258.5603439 -93.12084961 258.56030273 C-93.92553497 258.56026185 -94.73022033 258.56022097 -95.55929009 258.56017885 C-108.59225629 258.55977264 -121.62519357 258.56933747 -134.65815141 258.5834411 C-148.06271309 258.59783158 -161.46726069 258.6047098 -174.87183028 258.60384732 C-182.38842447 258.60351626 -189.90498835 258.60622359 -197.42157555 258.61702538 C-203.82265804 258.62616565 -210.22369648 258.62827686 -216.6247827 258.62151595 C-219.88526902 258.61826833 -223.14565413 258.61923357 -226.40613556 258.6268692 C-256.06027994 258.69179065 -282.36419387 254.62971434 -306 235.375 C-306.82757813 234.71113281 -307.65515625 234.04726563 -308.5078125 233.36328125 C-334.44041987 211.37340572 -342.13651678 180.61549123 -344.98836517 147.97592354 C-348.44228767 104.3597993 -348.44228767 104.3597993 -339.10498047 92.65576172 C-329.81094141 83.18343664 -317.67574246 77.52629097 -305.72509766 72.14599609 C-297.84808561 68.50234654 -290.87444538 63.56826108 -283.76831055 58.63012695 C-267.02514005 47.01828079 -251.60944881 40.54043609 -230.8125 44.0625 C-215.79292261 47.6433264 -204.06586018 56.40492401 -192.1706543 65.77172852 C-186.75025723 70.03735262 -181.25656258 74.18070271 -175.6875 78.25 C-167.82154915 84.0016499 -160.05921337 89.8790749 -152.3203125 95.80029297 C-146.27784439 100.41784471 -140.19566633 104.96403381 -134 109.375 C-130.72302061 107.94113282 -128.56712648 106.18399236 -126.05563354 103.6509552 C-125.28207016 102.87580566 -124.50850677 102.10065613 -123.71150208 101.30201721 C-122.87197495 100.4505864 -122.03244781 99.59915558 -121.16748047 98.72192383 C-119.79874968 97.34624375 -118.43001763 95.97056493 -117.06123853 94.59493291 C-115.59211967 93.11656189 -114.12549338 91.63575738 -112.65951157 90.15427589 C-109.595935 87.05881123 -106.52414738 83.97158341 -103.45095825 80.88566589 C-95.81437072 73.21502534 -88.18700845 65.53522882 -80.5647583 57.8503418 C-74.64831698 51.88529375 -68.72862498 45.92356195 -62.79826844 39.97234362 C-59.75049236 36.91312138 -56.70976516 33.8471201 -53.67432857 30.77565634 C-51.32528942 28.40269243 -48.96629016 26.03970258 -46.60888672 23.67504883 C-45.78150497 22.83373917 -44.95412323 21.9924295 -44.10166931 21.12562561 C-37.39709266 14.43151252 -30.12278854 8.39473554 -21.375 4.5625 C-20.53710938 4.18480469 -19.69921875 3.80710938 -18.8359375 3.41796875 C-12.54233289 1.10337862 -6.69674678 0.01285364 0 0 Z " fill="#4CC19D" transform="translate(369,227.625)"/>
<path d="M0 0 C5.42039707 4.26562411 10.91409172 8.40897419 16.4831543 12.47827148 C24.35074986 18.23112401 32.11563893 24.10861446 39.85473633 30.03295898 C45.28100403 34.18131246 50.74117555 38.26109043 56.30737305 42.22045898 C58.1706543 43.60327148 58.1706543 43.60327148 60.1706543 45.60327148 C59.74547862 45.95647209 59.32030294 46.3096727 58.88224316 46.67357635 C51.88610072 52.63102164 45.49765984 59.18858307 39.04101562 65.71459961 C37.72803458 67.03769955 36.41477939 68.36052749 35.10127258 69.68310547 C32.28677704 72.51761612 29.47363708 75.35346288 26.66138649 78.19020081 C22.21585208 82.67325965 17.76371007 87.14971631 13.3099823 91.62463379 C12.55704307 92.38121041 11.80410384 93.13778703 11.02834827 93.91729021 C9.48970413 95.46333878 7.95104399 97.00937141 6.41236818 98.55538845 C-3.94768765 108.96537866 -14.30333781 119.37965087 -24.640625 129.81225586 C-31.62722726 136.86318014 -38.62431918 143.90350308 -45.63384992 150.93163633 C-49.34028694 154.64876848 -53.0410199 158.37121653 -56.72896385 162.10670471 C-60.19067522 165.61289012 -63.66596206 169.10500644 -67.15236092 172.5866394 C-68.43109285 173.86862873 -69.70465146 175.15580155 -70.97267914 176.44837952 C-72.69988636 178.2075164 -74.44445154 179.94735209 -76.19474792 181.68347168 C-76.69611383 182.20299675 -77.19747974 182.72252183 -77.71403855 183.25779009 C-79.1437254 184.65314484 -79.1437254 184.65314484 -81.8293457 186.60327148 C-86.4247911 186.43776934 -90.39992682 184.0872464 -94.4543457 182.04077148 C-95.51613037 181.50504517 -95.51613037 181.50504517 -96.59936523 180.95849609 C-102.8120823 177.74499744 -108.4012497 174.02522508 -113.8293457 169.60327148 C-114.65692383 168.9394043 -115.48450195 168.27553711 -116.3371582 167.59155273 C-142.26976557 145.60167721 -149.96586249 114.84376271 -152.81771088 82.20419502 C-156.27163338 38.58807078 -156.27163338 38.58807078 -146.93432617 26.8840332 C-137.64028711 17.41170813 -125.50508816 11.75456245 -113.55444336 6.37426758 C-105.67743132 2.73061803 -98.70379108 -2.20346744 -91.59765625 -7.14160156 C-58.73587332 -29.9321458 -30.39073697 -23.93099328 0 0 Z " fill="#62D8B6" transform="translate(176.829345703125,293.396728515625)"/>
<path d="M0 0 C14.47507169 -0.55340776 27.4905006 4.56785138 38.5546875 13.72265625 C48.62621882 23.54512342 55.02960037 36.24231424 55.37426758 50.36743164 C55.51752434 66.76946811 50.83870404 79.82402723 39.51953125 91.83203125 C27.6251445 103.32612614 14.65686949 106.95661018 -1.50732422 106.77929688 C-16.18988303 106.22661016 -28.21396807 99.76661954 -38.328125 89.12890625 C-49.33793515 75.68449435 -52.24040872 61.11325398 -50.91796875 44.1875 C-48.28002272 29.21795082 -39.33774698 17.17634852 -27.28125 8.34375 C-18.65018174 2.81024282 -10.02089257 0.64391278 0 0 Z " fill="#FEDE76" transform="translate(181.91796875,87.8125)"/>
</svg>
