<?xml version="1.0" encoding="UTF-8"?>
<svg version="1.1" xmlns="http://www.w3.org/2000/svg" width="512" height="512">
<path d="M0 0 C1.30048109 -0.13697356 1.30048109 -0.13697356 2.62723452 -0.27671427 C5.53120669 -0.57706296 8.43628683 -0.86365854 11.3419342 -1.14732361 C12.36245251 -1.24864782 13.38297081 -1.34997204 14.43441391 -1.45436668 C35.03515872 -3.47659477 55.66300847 -4.6958358 76.3384161 -5.64930058 C89.44176596 -6.26994771 102.44886255 -7.11320016 115.4879303 -8.5955658 C175.4164274 -15.24838465 221.66989779 -7.41178604 269.00448418 30.22916317 C317.16155636 69.21103499 355.29585902 114.82450949 361.97895372 177.98880732 C365.82580106 217.69533344 363.4400289 257.82332133 360.66115588 297.51656371 C359.65526963 312.05799947 359.00006083 326.58728527 358.56556702 341.15663147 C358.53446275 342.19648236 358.50335848 343.23633325 358.47131165 344.30769478 C358.31667119 349.53124222 358.1671269 354.75492222 358.01949346 359.97867179 C357.11988797 391.5053965 355.86324727 423.00549645 353.90818465 454.48516798 C353.75864497 456.9228378 353.61527793 459.36079997 353.47351074 461.79893303 C353.25314671 465.56305523 353.01437316 469.32554838 352.76007096 473.08752669 C352.6283298 475.08335081 352.51180085 477.08016133 352.39590234 479.07696807 C351.69006571 488.8696399 349.19882036 497.79981577 342.28749084 505.09510803 C335.86353981 510.25806127 329.69788488 513.34074094 321.32690716 513.35237694 C320.15009024 513.35882583 318.97327333 513.36527472 317.7607953 513.37191904 C316.47705279 513.36882183 315.19331029 513.36572463 313.8706665 513.36253357 C312.48596697 513.36627169 311.10126954 513.37087386 309.71657544 513.37626421 C305.91655399 513.38848965 302.11662062 513.38823429 298.31658399 513.38587546 C294.21626072 513.38546718 290.11596564 513.39650751 286.01565552 513.4059906 C277.98427611 513.42259897 269.95292607 513.42810007 261.92153092 513.42921536 C255.3928563 513.43016589 248.86419135 513.43427645 242.33551979 513.44061661 C223.82314519 513.45822842 205.31079377 513.46745555 186.79841074 513.46595566 C185.80053715 513.46587575 184.80266357 513.46579583 183.77455139 513.4657135 C182.77545863 513.46563174 181.77636587 513.46554998 180.74699757 513.46546574 C164.55477036 513.46465281 148.36263617 513.48379233 132.17043587 513.51199023 C115.54206335 513.5407191 98.91373619 513.55453053 82.28533822 513.55280268 C72.95068548 513.55213879 63.61613025 513.55763073 54.28149986 513.57915878 C46.33391468 513.59737058 38.38647122 513.60171792 30.43887421 513.58813994 C26.38505989 513.58161032 22.33151748 513.58149271 18.27772903 513.59884644 C14.5635323 513.61458269 10.84982292 513.6117083 7.13563804 513.59427817 C5.16221633 513.58976051 3.18877947 513.60486127 1.21541661 513.62075746 C-6.00007604 513.5647361 -11.43882023 512.7401325 -17.71250916 509.09510803 C-18.36608282 508.71684163 -19.01965649 508.33857524 -19.69303542 507.94884622 C-26.62058251 503.72310657 -30.49598683 496.71433573 -32.71250916 489.09510803 C-32.95301819 486.24760437 -32.95301819 486.24760437 -32.93955994 483.27333069 C-32.93940887 482.15262177 -32.93925781 481.03191284 -32.93910217 479.87724304 C-32.9287796 478.68327911 -32.91845703 477.48931519 -32.90782166 476.25917053 C-32.90499176 475.0246817 -32.90216187 473.79019287 -32.89924622 472.51829529 C-32.88807438 468.58546654 -32.86297479 464.65286766 -32.83750916 460.72010803 C-32.82634741 458.04953845 -32.81835034 455.37897102 -32.81016541 452.70838928 C-32.7881448 446.17055078 -32.75469675 439.63284583 -32.71250916 433.09510803 C-33.3757016 433.10399048 -34.03889404 433.11287292 -34.72218323 433.12202454 C-41.63277049 433.21060759 -48.54319611 433.27088819 -55.45420837 433.31483459 C-58.03240003 433.33493366 -60.6105462 433.36221744 -63.18858337 433.39686584 C-66.89719376 433.4454565 -70.60520071 433.46809461 -74.31407166 433.48573303 C-76.03939621 433.51670074 -76.03939621 433.51670074 -77.79957581 433.54829407 C-83.9032266 433.55000048 -88.06872294 433.50528496 -92.71250916 429.09510803 C-96.28042201 424.56371676 -97.21354439 421.62589372 -97.22044373 415.88417053 C-97.22980367 414.82927429 -97.22980367 414.82927429 -97.2393527 413.75306702 C-97.25524349 411.40840118 -97.24269479 409.06478065 -97.23008728 406.72010803 C-97.23551017 405.03439225 -97.24263377 403.34868121 -97.25132751 401.66297913 C-97.26954398 397.0927109 -97.2625003 392.52280436 -97.24981117 387.95252991 C-97.23967482 383.1667128 -97.24907862 378.38092638 -97.25535583 373.59510803 C-97.26263038 365.55859322 -97.25304958 357.52222551 -97.23399353 349.48573303 C-97.21222515 340.19819856 -97.21927666 330.91101534 -97.24129915 321.62348938 C-97.25945863 313.64539079 -97.26200879 305.66739786 -97.25154448 297.68928528 C-97.24531256 292.92606347 -97.24446562 288.1630067 -97.25769043 283.39979553 C-97.26925628 278.92137736 -97.26120988 274.44341149 -97.2381134 269.96504211 C-97.23283022 268.32275645 -97.23433343 266.68043265 -97.24316406 265.03816223 C-97.25411928 262.79361178 -97.24035849 260.55050438 -97.22044373 258.30604553 C-97.21893562 257.05098206 -97.21742752 255.79591858 -97.21587372 254.50282288 C-96.45219227 249.33279544 -93.95945705 246.27932724 -90.2374115 242.74452209 C-84.96336843 240.27662938 -80.06415857 240.60127518 -74.31407166 240.70448303 C-73.12397491 240.71014282 -71.93387817 240.71580261 -70.7077179 240.72163391 C-66.91723429 240.74397352 -63.12770571 240.79416841 -59.33750916 240.84510803 C-56.76330408 240.86517602 -54.18908415 240.88342626 -51.61485291 240.89979553 C-45.31374737 240.94383059 -39.01319651 241.01071998 -32.71250916 241.09510803 C-32.71619633 239.99019799 -32.7198835 238.88528795 -32.7236824 237.74689579 C-32.81250121 210.85553245 -32.87822198 183.96418815 -32.91975784 157.07270908 C-32.94037843 144.06815946 -32.96848962 131.06370677 -33.01426697 118.05921936 C-33.05414989 106.72381984 -33.07994562 95.38849053 -33.08886313 84.0530228 C-33.09407536 78.05159275 -33.10631591 72.05036353 -33.13542938 66.04899788 C-33.16262123 60.39785358 -33.1709464 54.74699246 -33.16493988 49.09578896 C-33.16603842 47.02419241 -33.17396964 44.95258618 -33.18933105 42.8810463 C-33.20931778 40.04621739 -33.2044166 37.21244893 -33.19352722 34.37759399 C-33.20517859 33.56336474 -33.21682995 32.74913548 -33.22883439 31.9102326 C-33.14150962 23.4637859 -29.54370949 15.25026394 -23.71250916 9.09510803 C-16.34884712 3.17690558 -9.26720683 0.93313051 0 0 Z " fill="#E1E4E6" transform="translate(128.71250915527344,-1.0951080322265625)"/>
<path d="M0 0 C1.9029279 -0.01564648 1.9029279 -0.01564648 3.84429878 -0.03160906 C5.24457522 -0.0229616 6.64484937 -0.013935 8.04512119 -0.00457001 C9.53849459 -0.00918002 11.03186346 -0.01553361 12.52522284 -0.02347898 C16.62564576 -0.04018207 20.72569645 -0.03192159 24.82612073 -0.01953411 C29.24952907 -0.01048984 33.67287307 -0.0244503 38.09626865 -0.0354538 C46.76068805 -0.05325071 55.42496894 -0.04939369 64.08939379 -0.03780323 C71.13106021 -0.02877321 78.17268778 -0.02754305 85.21435833 -0.0318985 C86.2162051 -0.03251143 87.21805187 -0.03312436 88.25025763 -0.03375587 C90.28544232 -0.03503476 92.320627 -0.03633161 94.35581166 -0.03764623 C113.44515324 -0.04905562 132.53441802 -0.03593301 151.623747 -0.01444477 C168.00460508 0.0034238 184.38534976 0.00032478 200.76620579 -0.01811981 C219.7852398 -0.0395249 238.80420646 -0.04795407 257.82325083 -0.03567076 C259.85129455 -0.03439655 261.87933827 -0.03313907 263.90738201 -0.0318985 C264.90523502 -0.0312814 265.90308802 -0.03066429 266.931179 -0.03002849 C273.96418082 -0.02657431 280.99713994 -0.03240548 288.03013515 -0.04181671 C296.60141522 -0.05303417 305.17254875 -0.05000208 313.74381202 -0.02869374 C318.11735342 -0.01817949 322.49065049 -0.01406779 326.8641901 -0.02729034 C330.86818648 -0.03921257 334.87171215 -0.03265475 338.87566585 -0.01138014 C340.32377978 -0.00691329 341.77193351 -0.00918228 343.22002184 -0.01888329 C356.70001054 -0.10225821 356.70001054 -0.10225821 362.62777805 4.50336456 C367.08308545 9.31040676 367.75236515 12.7116375 367.77494907 19.15026093 C367.77862576 19.82913292 367.78230245 20.50800491 367.78609055 21.20744878 C367.79712314 23.48732873 367.80097052 25.76716309 367.80478001 28.04706573 C367.81104504 29.67982884 367.81769187 31.31259053 367.82469273 32.94535065 C367.84573272 38.31233477 367.85609578 43.67931918 367.8660593 49.04633331 C367.87010703 50.89451678 367.87422396 52.7427001 367.87840939 54.59088326 C367.89746175 63.27482141 367.91169209 71.95875106 367.92002136 80.6427061 C367.92979117 90.66291555 367.9561038 100.68290396 367.99652225 110.70303553 C368.02669788 118.45008028 368.04149165 126.19706172 368.04480237 133.9441641 C368.04715142 138.57004274 368.05609281 143.19568524 368.08126354 147.82150078 C368.1045743 152.1758962 368.10876549 156.52990051 368.09850216 160.88434219 C368.0980074 162.47904195 368.10431022 164.07376115 368.1180582 165.66840172 C368.24118976 180.80222703 368.24118976 180.80222703 363.62777805 187.50336456 C358.62623673 191.48418316 354.93082127 192.62728021 348.63752365 192.63758564 C346.74785552 192.64427241 346.74785552 192.64427241 344.82001227 192.65109426 C343.41415257 192.65100496 342.00829288 192.6508151 340.6024332 192.65053558 C339.11506628 192.65383414 337.62770026 192.6575597 336.14033538 192.66167706 C332.04272761 192.67170584 327.94513449 192.67541526 323.84751618 192.67806637 C319.43227364 192.68196675 315.01704272 192.69154518 310.60180759 192.70027924 C299.93479042 192.72004978 289.26777228 192.73010998 278.60074136 192.73900703 C273.5801846 192.74338841 268.55962891 192.74875555 263.53907299 192.7539959 C246.85491467 192.77100773 230.17075701 192.78550308 213.48659134 192.79274464 C209.15613078 192.79465459 204.82567023 192.79657492 200.49520969 192.79853058 C198.88069735 192.79925619 198.88069735 192.79925619 197.23356859 192.79999646 C179.78785827 192.80830118 162.34221642 192.83364577 144.89653601 192.86611126 C126.99475423 192.89915461 109.09300728 192.91719087 91.19119483 192.92038888 C81.13615029 192.92255635 71.08120563 192.93133984 61.02619076 192.95685005 C52.46507793 192.97851975 43.90408924 192.98662585 35.34295209 192.97688327 C30.97359094 192.9723279 26.60448613 192.97429638 22.23515987 192.99364471 C18.23605486 193.01120102 14.23739464 193.01034045 10.2382854 192.99474742 C8.79076243 192.99235985 7.34320927 192.9967542 5.8957326 193.00857607 C-6.26182751 193.10172778 -6.26182751 193.10172778 -10.02261543 190.84788036 C-15.00573034 185.87556199 -16.87163893 182.38087717 -16.88015652 175.29242706 C-16.88639648 174.5891629 -16.89263644 173.88589874 -16.89906549 173.16132355 C-16.91495628 170.81665771 -16.90240758 168.47303718 -16.88980007 166.12836456 C-16.89522297 164.44264878 -16.90234657 162.75693774 -16.91104031 161.07123566 C-16.92925677 156.50096743 -16.9222131 151.93106089 -16.90952396 147.36078644 C-16.89938761 142.57496933 -16.90879141 137.78918291 -16.91506863 133.00336456 C-16.92234318 124.96684975 -16.91276237 116.93048204 -16.89370632 108.89398956 C-16.87193795 99.60645509 -16.87898945 90.31927187 -16.90101194 81.03174591 C-16.91917142 73.05364732 -16.92172159 65.07565439 -16.91125727 57.09754181 C-16.90502535 52.33432 -16.90417841 47.57126323 -16.91740322 42.80805206 C-16.92896907 38.3296339 -16.92092267 33.85166802 -16.89782619 29.37329865 C-16.89254301 27.73101299 -16.89404622 26.08868918 -16.90287685 24.44641876 C-16.91383207 22.20186831 -16.90007128 19.95876092 -16.88015652 17.71430206 C-16.87864841 16.45923859 -16.87714031 15.20417511 -16.87558651 13.91107941 C-16.08585317 8.56468391 -13.83915742 5.64752575 -9.62403244 2.35986757 C-6.02961101 0.3077633 -4.09638576 0.00243255 0 0 Z " fill="#576D7E" transform="translate(48.37222194671631,239.49663543701172)"/>
<path d="M0 0 C6.66859393 5.4832487 12.71373784 11.56537937 18.81030273 17.66503906 C19.99338825 18.84512852 21.17667727 20.02501399 22.3601532 21.20471191 C25.55627919 24.39204695 28.74919542 27.58257832 31.94124866 30.77399158 C33.93560031 32.76763084 35.93066294 34.76055574 37.92598152 36.75322723 C44.88571566 43.70372974 51.84288186 50.65679064 58.79760742 57.61230469 C65.28526766 64.10056766 71.77850647 70.58321076 78.27433819 77.06329179 C83.85336262 82.62926874 89.42855355 88.19906562 95.00073773 93.7718904 C98.32832385 97.099732 101.65745898 100.4259877 104.99044609 103.74842072 C108.11800663 106.86634532 111.24079065 109.9889739 114.35988045 113.1153717 C115.50788806 114.26443026 116.65762228 115.41176663 117.80915833 116.55728912 C119.37455929 118.11503985 120.93374352 119.67875227 122.49143982 121.24420166 C123.36726935 122.11948643 124.24309889 122.99477119 125.14546871 123.89657974 C127 126 127 126 127 128 C114.39510984 128.04643635 101.79024019 128.08192656 89.18528175 128.10362434 C83.3316609 128.11404063 77.47809878 128.12816044 71.62451172 128.15087891 C65.97053834 128.17268416 60.3166213 128.18458482 54.6626091 128.18975449 C52.51056406 128.19343647 50.35852193 128.20062634 48.20650101 128.21146011 C45.18138325 128.22607713 42.15649531 128.22797368 39.13134766 128.22705078 C38.25092804 128.23424133 37.37050842 128.24143188 36.46340942 128.24884033 C25.64950677 128.21337597 17.15374176 126.43677481 9 119 C1.3965975 109.80993706 -0.15973855 100.85278946 -0.11352539 89.23095703 C-0.11367142 88.26447739 -0.11381744 87.29799774 -0.1139679 86.30223083 C-0.11327351 83.1207349 -0.10550333 79.93929816 -0.09765625 76.7578125 C-0.09579039 74.54678377 -0.09436728 72.33575463 -0.09336853 70.12472534 C-0.08955662 64.31492973 -0.07973765 58.50515924 -0.06866455 52.69537354 C-0.05842192 46.76306498 -0.0538648 40.83075235 -0.04882812 34.8984375 C-0.03811419 23.26561398 -0.02105369 11.63280908 0 0 Z " fill="#B0B7BD" transform="translate(352,0)"/>
<path d="M0 0 C0.33 0 0.66 0 1 0 C1.10887507 2.68860931 1.18770594 5.37273158 1.25 8.0625 C1.28351563 8.81466797 1.31703125 9.56683594 1.3515625 10.34179688 C1.45097919 16.0831109 0.28088796 19.27289185 -3 24 C-7.29575092 27.98142769 -10.39794929 29.12539701 -16.17929363 29.12304783 C-17.25815262 29.12503888 -18.3370116 29.12702993 -19.44856328 29.12908131 C-20.63823683 29.12616847 -21.82791038 29.12325563 -23.05363464 29.12025452 C-24.31393205 29.12110894 -25.57422945 29.12196337 -26.87271768 29.12284368 C-30.37763578 29.12508524 -33.88252347 29.12107197 -37.3874377 29.11606562 C-41.16451638 29.11175647 -44.94159327 29.11320788 -48.71867371 29.1139679 C-55.26496476 29.11449283 -61.81124586 29.11134916 -68.35753441 29.10573006 C-77.82242667 29.09761101 -87.2873141 29.09499942 -96.75220946 29.09374207 C-112.10751412 29.09155219 -127.46281346 29.08489383 -142.81811523 29.07543945 C-157.73640923 29.06626369 -172.6547018 29.05918366 -187.57299805 29.05493164 C-188.49220451 29.05466892 -189.41141098 29.05440619 -190.35847219 29.05413551 C-194.96975422 29.05283049 -199.58103627 29.05156678 -204.19231832 29.05032361 C-242.4615493 29.03995298 -280.73077421 29.02226218 -319 29 C-319 23.72 -319 18.44 -319 13 C-317.42517853 12.99853344 -315.85035706 12.99706688 -314.22781372 12.99555588 C-276.8446811 12.95985385 -239.46162757 12.90361261 -202.07856566 12.82207905 C-197.47734487 12.81206159 -192.87612373 12.80221746 -188.27490234 12.79248047 C-187.35888209 12.7905391 -186.44286184 12.78859772 -185.4990834 12.78659752 C-170.66704659 12.75557649 -155.83502525 12.73859658 -141.00296211 12.72680578 C-125.78387232 12.71439476 -110.56486373 12.68689445 -95.3458252 12.64538693 C-85.95486041 12.62025014 -76.5640303 12.60688285 -67.17303139 12.60857043 C-60.73325242 12.60860018 -54.29361063 12.59397298 -47.85388511 12.56783572 C-44.13846938 12.55318811 -40.42333497 12.5449881 -36.70789528 12.55419731 C-32.67731026 12.56401852 -28.64746879 12.54296791 -24.61694336 12.51898193 C-23.44572496 12.52674235 -22.27450657 12.53450277 -21.06779671 12.54249835 C-14.258482 12.47067671 -9.78969764 11.67009223 -4 8 C-2.27957378 5.9787325 -2.27957378 5.9787325 -1.5 3.75 C-1.2009375 3.04359375 -0.901875 2.3371875 -0.59375 1.609375 C-0.29984375 0.81273437 -0.29984375 0.81273437 0 0 Z " fill="#C9D0D7" transform="translate(415,419)"/>
<path d="M0 0 C0 31.68 0 63.36 0 96 C-7.87529997 89.24974288 -7.87529997 89.24974288 -11.18260193 85.94438171 C-11.93267014 85.19713333 -12.68273834 84.44988495 -13.45553589 83.67999268 C-14.25323395 82.88027039 -15.05093201 82.0805481 -15.87280273 81.2565918 C-16.73213913 80.39900772 -17.59147552 79.54142365 -18.47685242 78.65785217 C-20.81295807 76.32537215 -23.14681924 73.99069243 -25.4795177 71.65480781 C-27.92568342 69.20609679 -30.37430328 66.75984173 -32.82252502 64.31318665 C-36.92539264 60.21213234 -41.02616007 56.10898687 -45.12573242 52.00463867 C-49.86993348 47.2549748 -54.61775563 42.50895344 -59.36743206 37.76476544 C-63.45005741 33.68666921 -67.53074208 29.60663875 -71.60979229 25.52496654 C-74.04439856 23.08879917 -76.47968055 20.65331762 -78.91671562 18.2195797 C-81.62498923 15.51471555 -84.32918745 12.80580033 -87.03295898 10.09643555 C-87.84482666 9.2865921 -88.65669434 8.47674866 -89.49316406 7.6423645 C-90.2234935 6.90921524 -90.95382294 6.17606598 -91.70628357 5.42070007 C-92.3461341 4.78047252 -92.98598463 4.14024496 -93.64522457 3.48061657 C-95 2 -95 2 -95 1 C-82.7611933 0.86955395 -70.522386 0.73916459 -58.28357792 0.60884857 C-52.6012424 0.54834256 -46.9189071 0.48781667 -41.23657227 0.42724609 C-35.75771063 0.36884515 -30.27884845 0.31049545 -24.79998589 0.25218201 C-22.70470599 0.22987207 -20.6094263 0.20754334 -18.5141468 0.18519592 C-15.59024227 0.15401387 -12.66633704 0.1228973 -9.74243164 0.09179688 C-8.8670575 0.08244614 -7.99168335 0.0730954 -7.08978271 0.0634613 C-1.11405216 0 -1.11405216 0 0 0 Z " fill="#C9D0D7" transform="translate(480,127)"/>
<path d="M0 0 C8.73222061 3.20181422 14.33099521 13.22862494 19.85644531 20.46362305 C22.607632 24.04455702 25.488942 27.24884188 28.75 30.375 C30.7506729 27.91721364 32.7504549 25.45870396 34.75 23 C35.34288818 22.27135742 35.93577637 21.54271484 36.54663086 20.79199219 C40.42483965 16.02092416 44.26994849 11.22709235 48.06640625 6.390625 C52.94867616 0.54549443 52.94867616 0.54549443 56.6875 -0.25 C60.1522095 0.45708357 61.63706281 1.75214428 63.96484375 4.37890625 C65.26189865 7.67639408 64.60874283 9.98296583 63.75 13.375 C62.17335971 15.81006514 60.67009731 17.87349152 58.8125 20.0625 C58.32467041 20.66118896 57.83684082 21.25987793 57.33422852 21.87670898 C54.88186094 24.87325618 52.37324347 27.8217837 49.8671875 30.7734375 C49.41593506 31.30751221 48.96468262 31.84158691 48.49975586 32.3918457 C47.25824841 33.85416824 46.00257498 35.3044295 44.74609375 36.75390625 C42.83966483 39.25726008 41.74285301 41.40717452 40.75 44.375 C41.96623047 45.86386719 41.96623047 45.86386719 43.20703125 47.3828125 C48.83185703 54.27999147 54.43516047 61.19200223 59.9375 68.1875 C60.39423096 68.76709473 60.85096191 69.34668945 61.3215332 69.94384766 C67.53490115 77.87153332 67.53490115 77.87153332 66.75 84.375 C64.75 87.375 64.75 87.375 61.75 89.375 C57.98838505 89.94880567 57.00409499 90.04478955 53.75 88.375 C50.48365836 85.22626804 47.75633879 81.74940709 45.05419922 78.12158203 C43.74835476 76.37279669 42.41309228 74.65107092 41.06640625 72.93359375 C37.52514959 68.40307916 34.04001163 63.84293456 30.75 59.125 C29.03769823 56.3270503 29.03769823 56.3270503 26.75 55.375 C26.4821167 56.11524414 26.2142334 56.85548828 25.93823242 57.61816406 C24.7833923 60.29752601 23.54232238 62.20806178 21.73828125 64.484375 C21.14466797 65.23976563 20.55105469 65.99515625 19.93945312 66.7734375 C19.32005859 67.54945313 18.70066406 68.32546875 18.0625 69.125 C17.46244141 69.88554687 16.86238281 70.64609375 16.24414062 71.4296875 C15.03141183 72.96676588 13.81542067 74.50127588 12.59619141 76.03320312 C11.32900869 77.64055788 10.07678591 79.25978584 8.83740234 80.88867188 C7.91822021 82.09620117 7.91822021 82.09620117 6.98046875 83.328125 C6.43156982 84.05676758 5.8826709 84.78541016 5.31713867 85.53613281 C3.06145265 88.1829356 1.3196327 89.28831676 -2.125 89.8125 C-5.25 89.375 -5.25 89.375 -8.125 87.3125 C-10.8264094 83.57819877 -10.77845822 81.91688417 -10.25 77.375 C-8.72135865 74.91202467 -7.31200848 72.96989398 -5.4375 70.8125 C-4.42919083 69.59416088 -3.42139365 68.37539788 -2.4140625 67.15625 C-1.63144043 66.22619141 -1.63144043 66.22619141 -0.83300781 65.27734375 C1.74555072 62.17861949 4.21119227 58.9930515 6.6875 55.8125 C9.68856725 51.98407356 12.7051262 48.16872907 15.75 44.375 C14.40599121 41.46103777 12.87544359 39.13729002 10.80859375 36.6875 C9.93859741 35.64795166 9.93859741 35.64795166 9.05102539 34.58740234 C8.43606201 33.85730957 7.82109863 33.1272168 7.1875 32.375 C5.92307605 30.84751455 4.66005979 29.31886278 3.3984375 27.7890625 C1.67001445 25.69534026 -0.05905065 23.60267499 -1.80371094 21.52246094 C-3.11772924 19.94764511 -4.4037693 18.34960135 -5.6875 16.75 C-6.40808594 15.87085938 -7.12867188 14.99171875 -7.87109375 14.0859375 C-9.72660128 10.43799919 -9.25564131 8.27817402 -8.25 4.375 C-5.58732509 1.24244128 -4.08074431 0.47085511 0 0 Z " fill="#FCFCFC" transform="translate(196.25,294.625)"/>
<path d="M0 0 C1.30808121 -0.00607773 2.61616241 -0.01215546 3.96388245 -0.01841736 C5.38340357 0.00048655 6.80291364 0.02023654 8.22241211 0.04077148 C9.68541543 0.04502479 11.14842551 0.04735052 12.61143494 0.0478363 C15.67225902 0.05399208 18.73234852 0.07664491 21.79296875 0.11230469 C25.71272016 0.15761679 29.63180778 0.17233338 33.55179691 0.1760416 C36.57073997 0.18047374 39.58954429 0.19578313 42.60842705 0.21491814 C44.05368347 0.22378519 45.4989546 0.23052253 46.94423103 0.23507881 C48.96419462 0.24413913 50.98407392 0.26822268 53.00390625 0.29296875 C54.15242569 0.30360855 55.30094513 0.31424835 56.48426819 0.32521057 C59.39768274 0.59569128 61.03389203 0.96958686 63.43725586 2.59936523 C65.7789435 6.11189669 65.93349263 7.46405879 65.43725586 11.59936523 C63.79370117 14.26416016 63.79370117 14.26416016 61.43725586 16.59936523 C58.59643555 17.16699219 58.59643555 17.16699219 55.35913086 17.08764648 C53.61889648 17.06347656 53.61889648 17.06347656 51.84350586 17.03881836 C50.63694336 16.99692383 49.43038086 16.9550293 48.18725586 16.91186523 C46.96522461 16.88930664 45.74319336 16.86674805 44.48413086 16.84350586 C41.46727084 16.78458281 38.45288071 16.70235789 35.43725586 16.59936523 C35.44613831 17.45492004 35.45502075 18.31047485 35.46417236 19.19195557 C35.54432345 27.25510108 35.60522281 35.31811278 35.64450455 43.38156509 C35.66537873 47.52709193 35.6936927 51.67228958 35.73901367 55.81762695 C35.78247835 59.8182168 35.80639424 63.81849005 35.81676483 67.81929779 C35.82415517 69.34555801 35.83858697 70.87180092 35.86017609 72.39792633 C35.8892201 74.53609137 35.89321171 76.6729487 35.89135742 78.8112793 C35.90468109 80.63662201 35.90468109 80.63662201 35.91827393 82.49884033 C35.3450086 86.1939685 34.36495057 87.35264868 31.43725586 89.59936523 C28.69636358 90.32741475 26.2070438 90.17379764 23.43725586 89.59936523 C20.46867429 87.39195843 19.60859795 86.11339151 18.43725586 82.59936523 C18.34793278 80.49846502 18.31966317 78.39478646 18.32373047 76.29199219 C18.323806 74.9908699 18.32388153 73.68974762 18.32395935 72.34919739 C18.32906601 70.92868003 18.334282 69.50816307 18.33959961 68.08764648 C18.34146495 66.63461862 18.3428883 65.18159012 18.34388733 63.7285614 C18.3477034 59.90630351 18.35752592 56.08408368 18.36859131 52.26184082 C18.37882498 48.36068232 18.38338914 44.45951767 18.38842773 40.55834961 C18.399149 32.90533747 18.41621451 25.25235669 18.43725586 17.59936523 C17.38598511 17.62293091 17.38598511 17.62293091 16.31347656 17.64697266 C13.12565235 17.70948936 9.93795735 17.74840904 6.74975586 17.78686523 C5.64696289 17.81200195 4.54416992 17.83713867 3.40795898 17.86303711 C2.34125977 17.87270508 1.27456055 17.88237305 0.17553711 17.89233398 C-0.80374756 17.90804443 -1.78303223 17.92375488 -2.79199219 17.93994141 C-6.05943744 17.53831253 -7.91814068 16.52737402 -10.56274414 14.59936523 C-12.13210008 11.46065336 -11.91475517 9.06080702 -11.56274414 5.59936523 C-8.00109535 1.06063218 -5.71395238 -0.02520931 0 0 Z " fill="#FBFCFC" transform="translate(279.562744140625,294.400634765625)"/>
<path d="M0 0 C0.6461879 -0.0087616 1.29237579 -0.01752319 1.95814514 -0.02655029 C4.08281674 -0.04846176 6.2053874 -0.03402484 8.33007812 -0.01708984 C9.81311439 -0.02046045 11.29614796 -0.02531511 12.7791748 -0.03158569 C15.88283669 -0.03894569 18.9857776 -0.02828105 22.08935547 -0.00488281 C26.06101619 0.02360611 30.03098759 0.00719721 34.00258636 -0.02274513 C37.06366629 -0.04084271 40.12434791 -0.03504918 43.18544006 -0.02210617 C44.6494212 -0.01877887 46.1134389 -0.02283551 47.57737732 -0.03450394 C49.62677287 -0.04725532 51.6734616 -0.02778482 53.72265625 0 C54.88671997 0.00397797 56.05078369 0.00795593 57.25012207 0.01205444 C61.31519385 0.84163245 62.8190242 2.43081694 65.36132812 5.64697266 C65.92382812 9.20947266 65.92382812 9.20947266 65.36132812 12.64697266 C63.14269783 15.55414339 61.84187884 16.48678908 58.36132812 17.64697266 C56.66115969 17.7287538 54.95796515 17.75446767 53.25585938 17.74462891 C52.27294922 17.74140625 51.29003906 17.73818359 50.27734375 17.73486328 C49.25318359 17.72648437 48.22902344 17.71810547 47.17382812 17.70947266 C45.62018555 17.70270508 45.62018555 17.70270508 44.03515625 17.69580078 C41.47715546 17.68401276 38.91927079 17.66755781 36.36132812 17.64697266 C36.36798996 18.44797394 36.37465179 19.24897522 36.3815155 20.07424927 C36.44171811 27.63646013 36.48734885 35.19855418 36.51676464 42.76094246 C36.5323962 46.64851256 36.55358816 50.53588404 36.58764648 54.42333984 C36.62033013 58.17753924 36.63820001 61.93154802 36.64595985 65.68587875 C36.65148727 67.11556879 36.66228103 68.54524882 36.6785183 69.97485733 C36.70040971 71.9828085 36.70155453 73.99095297 36.7019043 75.99902344 C36.70856613 77.14041779 36.71522797 78.28181213 36.72209167 79.45779419 C36.30911056 83.10858005 35.25762124 85.51705427 33.36132812 88.64697266 C30.23190347 90.21168498 26.75050589 90.34399223 23.36132812 89.64697266 C20.42595169 87.40828232 19.45349822 86.24107859 18.88031006 82.54644775 C18.8891925 81.32955261 18.89807495 80.11265747 18.90722656 78.85888672 C18.90664246 78.18530624 18.90605835 77.51172577 18.90545654 76.81773376 C18.90823581 74.59882459 18.93931698 72.38127112 18.97070312 70.16259766 C18.97816616 68.62132501 18.9838588 67.08004286 18.987854 65.53875732 C19.00310566 61.48774892 19.04238274 57.4373168 19.08666992 53.38653564 C19.12763314 49.25077103 19.14586722 45.11491304 19.16601562 40.97900391 C19.20887807 32.86806276 19.27712298 24.75758945 19.36132812 16.64697266 C18.56436523 16.67315674 17.76740234 16.69934082 16.94628906 16.72631836 C13.33483599 16.8302621 9.72369741 16.89529351 6.11132812 16.95947266 C4.85707031 17.00136719 3.6028125 17.04326172 2.31054688 17.08642578 C0.50263672 17.1105957 0.50263672 17.1105957 -1.34179688 17.13525391 C-3.00710449 17.17453003 -3.00710449 17.17453003 -4.70605469 17.21459961 C-7.63867188 16.64697266 -7.63867188 16.64697266 -9.99707031 14.30395508 C-12.02597848 11.02010505 -12.34997875 9.4406093 -11.63867188 5.64697266 C-8.01375956 1.12136281 -5.75346078 0.01966136 0 0 Z " fill="#FBFCFC" transform="translate(113.638671875,294.35302734375)"/>
</svg>
