<?xml version="1.0" encoding="UTF-8"?>
<svg version="1.1" xmlns="http://www.w3.org/2000/svg" width="512" height="512">
<path d="M0 0 C0.85249691 -0.00932121 1.70499381 -0.01864243 2.58332396 -0.0282461 C5.44496921 -0.05803256 8.30662262 -0.0805998 11.16833496 -0.10295105 C13.21839641 -0.12231137 15.26845538 -0.14193552 17.31851196 -0.1618042 C36.03716477 -0.33520053 54.7566185 -0.42877218 73.47589874 -0.50287342 C87.30831185 -0.55877264 101.13932726 -0.65350151 114.97109842 -0.79853135 C124.70204074 -0.8971235 134.43259923 -0.94963065 144.16401815 -0.96872824 C149.97335833 -0.98148255 155.78088669 -1.01475679 161.5896759 -1.09832191 C167.06015259 -1.17619434 172.5279405 -1.19682119 177.99889755 -1.17458153 C180.00001068 -1.17627845 182.0012329 -1.19834043 184.00185013 -1.24291992 C200.66195143 -1.59498419 200.66195143 -1.59498419 207.12802839 4.38580734 C209.48635658 6.87272884 211.55622358 9.46715278 213.62731934 12.20100403 C214.8472994 13.60487369 216.07400102 15.00301809 217.31481934 16.38850403 C217.84462402 17.01112122 218.37442871 17.6337384 218.92028809 18.27522278 C221.61831633 21.31899377 224.54529667 24.12684653 227.43981934 26.98225403 C230.02928815 29.60871525 232.41568898 32.37076861 234.81481934 35.16975403 C236.83824814 37.43738975 238.9638528 39.56677353 241.12731934 41.70100403 C244.53450724 45.06214885 247.70190108 48.53801606 250.81481934 52.16975403 C252.83824814 54.43738975 254.9638528 56.56677353 257.12731934 58.70100403 C260.53450724 62.06214885 263.70190108 65.53801606 266.81481934 69.16975403 C268.83824814 71.43738975 270.9638528 73.56677353 273.12731934 75.70100403 C276.53450724 79.06214885 279.70190108 82.53801606 282.81481934 86.16975403 C284.83824814 88.43738975 286.9638528 90.56677353 289.12731934 92.70100403 C292.53450724 96.06214885 295.70190108 99.53801606 298.81481934 103.16975403 C300.83824814 105.43738975 302.9638528 107.56677353 305.12731934 109.70100403 C308.53450724 113.06214885 311.70190108 116.53801606 314.81481934 120.16975403 C316.83824814 122.43738975 318.9638528 124.56677353 321.12731934 126.70100403 C324.53189508 130.05957199 327.69764082 133.53193749 330.80700684 137.16194153 C333.53975738 140.22309128 336.47352277 143.06969978 339.41638184 145.92756653 C340.14599121 146.6778009 340.87560059 147.42803528 341.62731934 148.20100403 C342.48496352 148.99461303 343.34260771 149.78822203 344.22624111 150.60587978 C347.94420049 155.1473026 347.31492093 160.38637573 347.25550842 165.99642944 C347.26260281 167.19294803 347.2696972 168.38946662 347.27700657 169.62224334 C347.2915514 172.9361642 347.28370321 176.24865345 347.26628363 179.56246912 C347.2529051 183.13937226 347.26834891 186.71616759 347.28010559 190.2930603 C347.29848698 197.29916534 347.28996495 204.3049915 347.27201737 211.31108785 C347.2579852 217.00927082 347.2540999 222.70737812 347.25745964 228.40557671 C347.25793708 229.21696657 347.25841453 230.02835644 347.25890644 230.86433388 C347.2599328 232.51280819 347.26098816 234.16128248 347.2620722 235.80975675 C347.27064126 250.38985385 347.25396189 264.96981659 347.22424316 279.54988098 C347.19544249 293.67982132 347.1883043 307.8095678 347.20373535 321.93952942 C347.22052562 337.33511175 347.22450007 352.73060201 347.20702499 368.12618679 C347.20518069 369.77069818 347.20334597 371.41520958 347.20152092 373.05972099 C347.20060883 373.86877023 347.19969674 374.67781946 347.19875701 375.51138534 C347.19316629 381.1950406 347.19644545 386.87865074 347.20306587 392.56230354 C347.21082673 399.50043983 347.20394919 406.4383858 347.17889083 413.37648392 C347.16645484 416.9123212 347.16017641 420.44786315 347.1714325 423.98371124 C347.18343914 427.82821833 347.16409751 431.67222345 347.14198303 435.51669312 C347.1502238 436.61867226 347.15846457 437.7206514 347.16695505 438.85602385 C347.02255373 452.53194943 342.55958092 464.47543786 333.40856934 474.67366028 C325.25544604 482.60177855 314.74107724 488.31364984 303.21514797 488.33522511 C302.10973107 488.33968295 301.00431416 488.34414079 299.86539978 488.34873372 C298.65112385 488.34854936 297.43684792 488.348365 296.18577576 488.34817505 C294.89563318 488.35185174 293.60549061 488.35552842 292.27625281 488.35931653 C288.6922265 488.36932838 285.10821693 488.37305201 281.52417862 488.37570584 C277.6596462 488.37961135 273.795127 488.38918957 269.93060303 488.3979187 C260.59583939 488.41767689 251.26107469 488.42774883 241.92629537 488.43664649 C237.52900884 488.44103074 233.13172352 488.44639723 228.73443794 488.45163536 C214.11420282 488.46864755 199.49396844 488.4831411 184.87372494 488.4903841 C181.08008257 488.49229396 177.2864402 488.4942143 173.49279785 488.49617004 C172.07848166 488.49689565 172.07848166 488.49689565 170.63559342 488.49763592 C155.36607265 488.5059339 140.09663027 488.53126692 124.82714372 488.56375072 C109.14578031 488.59683837 93.46445672 488.61483443 77.78305823 488.61802834 C68.98038818 488.62019194 60.17783245 488.62891845 51.37519646 488.65448952 C43.87741222 488.67621989 36.37977004 488.68423549 28.88195788 488.67452274 C25.05877819 488.66998468 21.23589147 488.67183508 17.41275215 488.69128418 C13.26087925 488.71222247 9.10965319 488.70190924 4.95774841 488.68875122 C3.1597571 488.70520509 3.1597571 488.70520509 1.32544273 488.72199136 C-11.64189535 488.62296654 -23.44344235 483.87885358 -33.06018066 475.07600403 C-44.90267182 462.36562345 -46.85463533 448.09370903 -46.56018066 431.51350403 C-46.54509512 430.0219812 -46.53141361 428.53044348 -46.51916504 427.03889465 C-46.48649224 423.42594914 -46.43492785 419.81357542 -46.37268066 416.20100403 C-47.22601486 416.20988647 -48.07934906 416.21876892 -48.95854187 416.22792053 C-57.00665954 416.30812154 -65.05464269 416.36899637 -73.10306835 416.40825272 C-77.24072019 416.42911351 -81.37804138 416.457403 -85.51550293 416.50276184 C-89.50961359 416.54627431 -93.50340655 416.57015248 -97.49773598 416.580513 C-99.02037875 416.58789476 -100.54300445 416.60230988 -102.0655117 416.62392426 C-104.20107755 416.65303181 -106.33533653 416.65695723 -108.47106934 416.65510559 C-109.68574387 416.66398804 -110.9004184 416.67287048 -112.15190125 416.68202209 C-115.99574204 416.10795085 -117.63015982 414.89908829 -120.37268066 412.20100403 C-121.84868283 409.2489997 -121.51233702 406.60881126 -121.52658081 403.3125 C-121.53096306 402.59561376 -121.53534532 401.87872753 -121.53986037 401.14011747 C-121.55326905 398.72575869 -121.55943183 396.31143644 -121.56555176 393.89704895 C-121.57345104 392.17089675 -121.58171988 390.4447462 -121.59033203 388.71859741 C-121.61657034 383.03957196 -121.6318606 377.36053905 -121.64611816 371.68147278 C-121.65147694 369.72828478 -121.65685444 367.77509684 -121.66225052 365.82190895 C-121.68388112 357.69899605 -121.70261899 349.57608517 -121.71387291 341.45315075 C-121.73011968 329.8021368 -121.76331303 318.15145597 -121.82027376 306.50056762 C-121.85893816 298.31368029 -121.8785014 290.12688219 -121.88379347 281.93990594 C-121.8874515 277.04745478 -121.89952058 272.15535875 -121.93189621 267.26300621 C-121.96191563 262.66070931 -121.9683107 258.05898357 -121.95651245 253.45660973 C-121.95629121 251.76711399 -121.9646383 250.07759223 -121.98216629 248.38818741 C-122.00479589 246.08158716 -121.99659441 243.77706894 -121.98068237 241.47045898 C-121.98399252 240.17978106 -121.98730267 238.88910315 -121.99071312 237.55931377 C-121.20925864 233.31298954 -119.70826508 231.85506812 -116.37268066 229.20100403 C-112.99289509 228.07440884 -110.4445193 228.0807942 -106.88171387 228.08747864 C-106.22778656 228.08733261 -105.57385925 228.08718658 -104.90011597 228.08703613 C-102.7411974 228.08773214 -100.58236539 228.09550995 -98.42346191 228.10334778 C-96.92559354 228.10521306 -95.42772455 228.10663645 -93.92985535 228.1076355 C-89.98923048 228.11145196 -86.04864252 228.12127483 -82.10803223 228.13233948 C-78.08622741 228.1425723 -74.06441662 228.14713713 -70.04260254 228.1521759 C-62.15261165 228.16289787 -54.26265075 228.17996385 -46.37268066 228.20100403 C-46.37636784 227.24408566 -46.38005501 226.2871673 -46.38385391 225.30125141 C-46.47278824 201.98023615 -46.53844817 178.65924298 -46.57992935 155.33809376 C-46.6005243 144.05999524 -46.62858618 132.78200899 -46.67443848 121.50398254 C-46.71440022 111.67010424 -46.74013575 101.83630728 -46.74903464 92.00235003 C-46.75423359 86.79890697 -46.76638883 81.59569652 -46.79560089 76.39232826 C-46.82291767 71.48642467 -46.83109301 66.58084769 -46.82511139 61.67487526 C-46.82620439 59.88231629 -46.83406079 58.08974545 -46.84950256 56.29725266 C-46.98290506 40.00109365 -44.42338387 26.28743912 -33.15393066 13.72834778 C-23.79278679 4.62554716 -12.91048521 0.08538189 0 0 Z " fill="#4C9C75" transform="translate(143.3726806640625,11.798995971679688)"/>
<path d="M0 0 C1.10550776 -0.00017262 2.21101552 -0.00034524 3.35002351 -0.00052309 C4.56499631 0.0043891 5.77996911 0.00930129 7.03175926 0.01436234 C8.3116346 0.01555588 9.59150993 0.01674943 10.91016936 0.01797915 C14.44451542 0.02134276 17.97882202 0.03087188 21.51315305 0.04138571 C25.29232747 0.05152766 29.07150853 0.05591352 32.85069275 0.06082153 C39.24157359 0.06973623 45.63244174 0.08178929 52.02331352 0.09570694 C61.22234463 0.11540943 70.42136378 0.12428659 79.62041283 0.13002396 C115.67775543 0.15405375 151.73500636 0.21762747 187.79226303 0.29866791 C191.35536115 0.30661049 194.91845942 0.31447905 198.48155785 0.3222847 C199.36645766 0.32422607 200.25135747 0.32616744 201.16307242 0.32816765 C215.67601641 0.35958106 230.18894415 0.37629529 244.7019159 0.38795939 C259.73666105 0.40035282 274.77132359 0.42775952 289.80601656 0.46937823 C299.01948596 0.4944211 308.23281863 0.50788933 317.44632258 0.50619474 C323.71397146 0.50616508 329.98147883 0.52071657 336.24907254 0.54692945 C339.8592712 0.56159938 343.46917945 0.56975575 347.07940292 0.56056786 C350.98694888 0.55078933 354.89398137 0.57173443 358.80147362 0.59578323 C359.94351041 0.58802282 361.08554721 0.5802624 362.26219118 0.57226682 C369.91809973 0.65613402 369.91809973 0.65613402 373.86280823 3.02220154 C377.0561491 6.69393628 376.81193359 9.1112616 376.82317162 13.92734146 C376.8276283 14.99042016 376.8276283 14.99042016 376.83217502 16.07497519 C376.84088135 18.46170409 376.84237189 20.84838295 376.84386253 23.2351265 C376.84848936 24.94157392 376.85351383 26.64802031 376.8589077 28.35446548 C376.87204719 32.99916235 376.87847973 37.64384474 376.88291836 42.28855729 C376.88584672 45.18887226 376.88995108 48.08918326 376.89442253 50.98949623 C376.90810183 60.05946994 376.91776625 69.12943458 376.92162442 78.19941789 C376.92610574 88.6775086 376.94365524 99.1554689 376.97262502 109.63351995 C376.99422683 117.72699242 377.00432791 125.82042816 377.00566554 133.91392916 C377.00671469 138.75038866 377.01264574 143.58672563 377.03048515 148.42315483 C377.04693982 152.97282262 377.04913405 157.52227545 377.04034615 162.07196236 C377.03957436 163.74209162 377.04393711 165.41223232 377.0538044 167.08233261 C377.06648466 169.36222484 377.06066898 171.64135127 377.0502224 173.92123795 C377.05168896 175.19716718 377.05315552 176.47309641 377.05466652 177.78769016 C376.64848867 181.42106058 375.94525993 183.26483573 373.68272972 186.11476517 C370.26212787 188.35483964 367.3478635 188.36705669 363.31675625 188.37203407 C361.99863542 188.37848297 360.68051458 188.38493186 359.3224507 188.39157617 C357.85595986 188.38863377 356.38946941 188.38549832 354.92297935 188.3821907 C353.36803861 188.38592598 351.81309974 188.390527 350.25816387 188.39592135 C345.97843955 188.40818182 341.69879323 188.40788731 337.41905534 188.4055326 C332.80615933 188.40512521 328.19328858 188.41615608 323.58040428 188.42564774 C314.54076474 188.44227487 305.50115128 188.44775804 296.46149773 188.44887249 C289.11609363 188.44982206 281.77069816 188.45392775 274.42529678 188.46027374 C253.61200511 188.47789001 232.79873408 188.48711189 211.9854349 188.48561279 C210.30165174 188.48549293 210.30165174 188.48549293 208.58385277 188.48537064 C207.45996456 188.48528887 206.33607635 188.48520711 205.17813092 188.48512287 C186.95582273 188.48430963 168.73359714 188.503456 150.51131285 188.53164737 C131.81284098 188.56034785 113.11440942 188.57418926 94.41591495 188.57245982 C83.91323513 188.57179498 73.4106419 188.57732815 62.90798187 188.59881592 C53.96734028 188.61699034 45.02682456 188.62140584 36.08617253 188.60779707 C31.52251167 188.60124876 26.95909255 188.60121712 22.39545441 188.61850357 C18.22003281 188.63415723 14.04504618 188.63145025 9.86963569 188.61393531 C8.3568884 188.61084834 6.84410927 188.61456124 5.33139951 188.62565546 C3.27858391 188.63971706 1.22730668 188.62924016 -0.82545567 188.61254311 C-1.96662529 188.61297784 -3.10779491 188.61341258 -4.28354543 188.61386049 C-7.98813532 188.00439735 -9.64986267 186.704414 -12.31727028 184.11476517 C-13.79327245 181.16276083 -13.45692663 178.5225724 -13.47117043 175.22626114 C-13.47555268 174.5093749 -13.47993493 173.79248867 -13.48444998 173.05387861 C-13.49785866 170.63951983 -13.50402144 168.22519757 -13.51014137 165.81081009 C-13.51804066 164.08465789 -13.5263095 162.35850734 -13.53492165 160.63235855 C-13.56115995 154.95333309 -13.57645022 149.27430019 -13.59070778 143.59523392 C-13.59606655 141.64204592 -13.60144406 139.68885798 -13.60684013 137.73567009 C-13.62847073 129.61275719 -13.64720861 121.4898463 -13.65846252 113.36691189 C-13.67470929 101.71589794 -13.70790264 90.0652171 -13.76486337 78.41432875 C-13.80352777 70.22744143 -13.82309101 62.04064333 -13.82838309 53.85366708 C-13.83204111 48.96121592 -13.84411019 44.06911989 -13.87648582 39.17676735 C-13.90650525 34.57447045 -13.91290031 29.97274471 -13.90110207 25.37037086 C-13.90088082 23.68087513 -13.90922791 21.99135337 -13.92675591 20.30194855 C-13.94938551 17.99534829 -13.94118403 15.69083008 -13.92527199 13.38422012 C-13.93023721 11.44820324 -13.93023721 11.44820324 -13.93530273 9.47307491 C-13.15384826 5.22675068 -11.65285469 3.76882926 -8.31727028 1.11476517 C-5.25595783 0.09432768 -3.2041438 -0.00662166 0 0 Z " fill="#00733B" transform="translate(35.317270278930664,239.88523483276367)"/>
<path d="M0 0 C1.1255704 0.95801577 2.25018977 1.91714898 3.37440491 2.87675476 C4.00077882 3.41075236 4.62715273 3.94474997 5.27250767 4.49492931 C7.16481061 6.14359057 8.91327447 7.86829899 10.62109375 9.70703125 C11.23791016 10.36703125 11.85472656 11.02703125 12.49023438 11.70703125 C13.13283203 12.40183594 13.77542969 13.09664062 14.4375 13.8125 C15.85276695 15.32951817 17.26813436 16.84644263 18.68359375 18.36328125 C19.75843018 19.51884521 19.75843018 19.51884521 20.85498047 20.69775391 C24.22236874 24.31196645 27.6117346 27.90537249 31 31.5 C32.33345024 32.91655663 33.6667833 34.33322357 35 35.75 C35.66 36.45125 36.32 37.1525 37 37.875 C60.33333333 62.66666667 83.66666667 87.45833333 107 112.25 C107.66040283 112.95165283 108.32080566 113.65330566 109.0012207 114.3762207 C110.33058663 115.78872274 111.65985144 117.20131995 112.98901367 118.61401367 C116.38221302 122.22019795 119.77731311 125.82456134 123.17578125 129.42578125 C129.30890615 135.92712378 135.43779743 142.43236317 141.5 149 C142.3765625 149.94875 143.253125 150.8975 144.15625 151.875 C146 154 146 154 146 155 C130.37904056 155.09360743 114.75815734 155.16405929 99.13698673 155.20724869 C91.88313969 155.2278389 84.62946732 155.25589122 77.37573242 155.30175781 C71.05041505 155.34173466 64.72522423 155.36745854 58.39978403 155.37635398 C55.05304505 155.38155065 51.70695358 155.39581428 48.36027718 155.42292023 C44.61635155 155.45203272 40.87317133 155.45595253 37.12915039 155.45410156 C36.03006851 155.46848267 34.93098663 155.48286377 33.79859924 155.49768066 C23.64005176 155.44347474 15.3930247 152.03504666 8 145 C0.51163977 135.90106119 -0.29676184 127.81385958 -0.22705078 116.36352539 C-0.22734283 115.1042926 -0.22763489 113.84505981 -0.22793579 112.54766846 C-0.22850724 109.11218427 -0.21678688 105.67684107 -0.20278788 102.24138951 C-0.19024561 98.64461189 -0.18910727 95.04783067 -0.18673706 91.45103455 C-0.18053253 84.64782934 -0.16413569 77.84468876 -0.14403808 71.04151195 C-0.12164703 63.29301765 -0.1106776 55.54452018 -0.10064721 47.79600155 C-0.0797685 31.86396366 -0.0446126 15.93199018 0 0 Z " fill="#00733B" transform="translate(344,12)"/>
<path d="M0 0 C3.71851503 4.01809671 6.44849848 8.22871359 8.98828125 13.078125 C9.33634323 13.73077332 9.68440521 14.38342163 10.04301453 15.05584717 C10.76974648 16.42216911 11.49308642 17.79030028 12.21313477 19.16015625 C13.3190641 21.26247805 14.43698774 23.35808548 15.55664062 25.453125 C16.26373036 26.7860822 16.97013565 28.11940274 17.67578125 29.453125 C18.01007645 30.08019348 18.34437164 30.70726196 18.688797 31.35333252 C21 35.76845677 21 35.76845677 21 38 C21.66 38 22.32 38 23 38 C23.27166992 37.12456543 23.54333984 36.24913086 23.82324219 35.34716797 C25.71384113 29.96955146 28.52965405 25.12142959 31.25 20.125 C31.81074219 19.07441406 32.37148437 18.02382813 32.94921875 16.94140625 C36.21606533 10.91320667 39.67407898 5.32587278 44 0 C48.55737263 0.43820891 51.57653445 0.85041169 55 4 C54.76779225 11.39898332 51.02209975 16.91553688 47.375 23.1875 C46.46814453 24.77788086 46.46814453 24.77788086 45.54296875 26.40039062 C43.06423791 30.73684831 40.58584664 35.06061563 37.94238281 39.29931641 C37.29366211 40.3516748 36.64494141 41.4040332 35.9765625 42.48828125 C35.38182129 43.42841064 34.78708008 44.36854004 34.17431641 45.3371582 C32.75644511 48.55227718 32.84748395 49.71528152 34 53 C34.98689853 54.97742346 36.05156753 56.91691161 37.16796875 58.82421875 C37.81443359 59.93603516 38.46089844 61.04785156 39.12695312 62.19335938 C39.81368407 63.3581425 40.50053361 64.52285572 41.1875 65.6875 C42.1784668 67.3880957 42.1784668 67.3880957 43.18945312 69.12304688 C46.68592341 75.111572 50.23135418 81.06302634 53.89501953 86.95092773 C55.47090256 89.8732402 55.8436866 91.77865115 55 95 C52.50142212 97.79252822 50.66266446 98.81670983 47.0625 99.8125 C42.09928818 98.49572952 40.55724347 94.24569682 38 90 C35.67783992 85.95430072 33.45271613 81.86173678 31.25 77.75 C30.67378906 76.6878125 30.09757812 75.625625 29.50390625 74.53125 C27.10484554 70.07984598 24.80235832 65.73145783 23 61 C22.34 61 21.68 61 21 61 C20.60820557 62.28958618 20.60820557 62.28958618 20.20849609 63.60522461 C18.97211234 67.07833897 17.45154348 70.09461398 15.6640625 73.31640625 C15.34343842 73.89535141 15.02281433 74.47429657 14.69247437 75.07078552 C14.01752333 76.28644959 13.3400448 77.5007135 12.66015625 78.71362305 C11.62805383 80.55704561 10.60650007 82.40602832 9.5859375 84.25585938 C8.92510324 85.44305593 8.26366485 86.62991644 7.6015625 87.81640625 C7.00682129 88.88318604 6.41208008 89.94996582 5.79931641 91.04907227 C4.04122509 93.93238974 2.2754147 96.50362444 0 99 C-3.80799498 99.72919053 -5.51814936 99.25630353 -8.9375 97.4375 C-11 95 -11 95 -10.84277344 91.75561523 C-9.94873126 87.77153331 -8.63093617 84.99142533 -6.578125 81.47265625 C-6.2362616 80.88004501 -5.89439819 80.28743378 -5.54217529 79.67686462 C-4.45531364 77.7990511 -3.35291268 75.93092115 -2.25 74.0625 C-1.525028 72.81373898 -0.80106107 71.5643939 -0.078125 70.31445312 C0.62963453 69.09602067 1.33795897 67.87791618 2.046875 66.66015625 C2.39020874 66.07037994 2.73354248 65.48060364 3.08728027 64.87295532 C4.97382268 61.66011195 6.96838676 58.56513552 9.078125 55.49609375 C11.33616373 51.38848264 11.14070849 50.41339466 10 46 C8.62258005 42.93442434 8.62258005 42.93442434 6.83203125 39.859375 C6.51473557 39.29228821 6.19743988 38.72520142 5.87052917 38.14093018 C4.85949266 36.3391258 3.83612749 34.54467472 2.8125 32.75 C2.14439281 31.56164143 1.47706857 30.37284231 0.81054688 29.18359375 C-2.62354546 23.08037059 -6.13650915 17.06044811 -9.9621582 11.19238281 C-11.20773927 8.5611624 -11.39518926 6.87766666 -11 4 C-7.56227913 1.04196111 -4.58338992 -1.17522818 0 0 Z " fill="#FAFCFB" transform="translate(126,284)"/>
<path d="M0 0 C2 2 2 2 2.25 5.4375 C2 9 2 9 0 12 C-4.05119854 12.47661159 -6.5146911 12.22534295 -10.23046875 10.5 C-14.23564402 8.71388674 -17.78649624 8.55118803 -22.125 8.625 C-22.81464844 8.61339844 -23.50429688 8.60179687 -24.21484375 8.58984375 C-29.68623047 8.62122838 -32.86361596 10.01095279 -36.8125 13.6875 C-38.52697371 17.02621195 -39.01727122 20.40608785 -38 24 C-34.63290664 28.03059057 -31.14809029 30.20278311 -26.4375 32.4375 C-25.8283374 32.73261475 -25.2191748 33.02772949 -24.59155273 33.33178711 C-21.62631185 34.76725164 -18.64475288 36.16722405 -15.6640625 37.5703125 C-6.27221359 42.08880908 0.06823899 46.08604348 4 56 C6.69939542 64.09818626 5.42034089 72.88455739 2.19140625 80.625 C-1.02992803 87.04654505 -5.33061069 90.46147812 -12 93 C-22.04914157 96.33372477 -33.67050669 96.61599865 -43.515625 92.39453125 C-47.98197106 89.88747851 -51.83609899 87.05920154 -55 83 C-55.798877 79.00561499 -55.55811291 77.20924464 -53.875 73.5625 C-52 72 -52 72 -49.25 71.375 C-45.2392406 72.14629988 -43.64268091 73.76400971 -40.69921875 76.46484375 C-35.57277918 81.09631674 -30.653425 81.53831214 -23.98046875 81.34765625 C-19.68745809 80.84689878 -16.37466434 79.73187113 -13 77 C-9.95570663 72.71896245 -9.36314472 69.18582156 -10 64 C-12.72802639 56.93193162 -17.34497487 54.2522673 -24 51 C-25.96315486 50.16283265 -27.93705893 49.35493938 -29.91235352 48.546875 C-39.15886456 44.74056943 -46.4347659 40.34785115 -52.125 31.8125 C-53.92361257 23.97568809 -54.72401848 14.87130781 -50.39453125 7.7421875 C-38.60846564 -6.98214097 -16.07107602 -9.64264561 0 0 Z " fill="#F9FCFB" transform="translate(307,289)"/>
<path d="M0 0 C0.78503906 0.00515625 1.57007813 0.0103125 2.37890625 0.015625 C3.55259766 0.00789063 3.55259766 0.00789063 4.75 0 C6.94140625 0.265625 6.94140625 0.265625 9.94140625 2.265625 C10.22776555 4.95766648 10.31975769 7.41882056 10.28198242 10.11181641 C10.2824205 10.92165482 10.28285858 11.73149323 10.28330994 12.56587219 C10.28121539 15.24988694 10.25785342 17.93328152 10.234375 20.6171875 C10.2287814 22.47520608 10.22451019 24.33322908 10.22151184 26.19125366 C10.21004444 31.08715989 10.18056105 35.98280012 10.1473999 40.87860107 C10.11673977 45.87215577 10.1030152 50.86575335 10.08789062 55.859375 C10.0556931 65.66157536 10.00447396 75.46357808 9.94140625 85.265625 C11.01624268 85.24991455 12.0910791 85.2342041 13.19848633 85.21801758 C17.18473828 85.16373389 21.17095753 85.12928079 25.1574707 85.10083008 C26.88311252 85.08573984 28.60871597 85.06526525 30.33422852 85.03930664 C32.81406113 85.00293291 35.29338689 84.98590141 37.7734375 84.97265625 C38.5454097 84.95717239 39.3173819 84.94168854 40.11274719 84.92573547 C45.41812889 84.92406701 45.41812889 84.92406701 47.93237305 86.56518555 C49.63182113 89.42912358 49.23001543 92.03320222 48.94140625 95.265625 C48.28140625 96.255625 47.62140625 97.245625 46.94140625 98.265625 C44.89881897 98.6398468 44.89881897 98.6398468 42.35571289 98.63793945 C40.92896996 98.64728264 40.92896996 98.64728264 39.47340393 98.65681458 C38.44319626 98.64760483 37.41298859 98.63839508 36.3515625 98.62890625 C34.76836464 98.62965401 34.76836464 98.62965401 33.15318298 98.63041687 C30.91793946 98.62807325 28.68269346 98.61832791 26.44750977 98.60180664 C23.02140746 98.57824536 19.59608441 98.5812398 16.16992188 98.58789062 C14.00129743 98.58231308 11.83267628 98.57520272 9.6640625 98.56640625 C8.63587906 98.56731766 7.60769562 98.56822906 6.5483551 98.56916809 C5.59404099 98.55963608 4.63972687 98.55010406 3.65649414 98.5402832 C2.39646324 98.53337212 2.39646324 98.53337212 1.11097717 98.52632141 C-1.05859375 98.265625 -1.05859375 98.265625 -4.05859375 96.265625 C-4.35527621 93.2564362 -4.45740858 90.45291697 -4.4309082 87.44140625 C-4.43455887 86.52749115 -4.43820953 85.61357605 -4.44197083 84.67196655 C-4.45009987 81.64049904 -4.43644666 78.60956212 -4.421875 75.578125 C-4.42135668 73.47827149 -4.4218733 71.37841748 -4.42338562 69.27856445 C-4.42329579 64.87346166 -4.41284455 60.46854148 -4.39477539 56.06347656 C-4.37208792 50.40707225 -4.37154299 44.75093497 -4.37829304 39.09449768 C-4.38162899 34.75717786 -4.37500998 30.4199193 -4.3651638 26.08261108 C-4.36130506 23.99653443 -4.36016636 21.91045096 -4.36174965 19.82437134 C-4.36211907 16.91272923 -4.34953458 14.00143394 -4.33325195 11.08984375 C-4.33572937 10.22120697 -4.33820679 9.35257019 -4.34075928 8.45761108 C-4.26992232 0.55095772 -4.26992232 0.55095772 0 0 Z " fill="#FAFCFB" transform="translate(197.05859375,284.734375)"/>
</svg>
