<?xml version="1.0" encoding="UTF-8"?>
<svg version="1.1" xmlns="http://www.w3.org/2000/svg" width="512" height="512">
<path d="M0 0 C7.35145073 5.9110231 13.12019177 12.86356474 18.30664062 20.73632812 C19.89688863 23.84691327 19.89688863 23.84691327 22.11572266 24.19702148 C23.20409424 24.26095093 23.20409424 24.26095093 24.31445312 24.32617188 C25.12849609 24.38587158 25.94253906 24.44557129 26.78125 24.50708008 C27.65587891 24.56210693 28.53050781 24.61713379 29.43164062 24.67382812 C56.75610448 26.91735688 79.86658231 38.15528926 98.30664062 58.73632812 C115.68582252 80.18297813 122.31404703 106.06148026 119.68164062 133.29882812 C117.42897172 151.48591296 109.64692293 171.24026297 96.01876831 183.85388184 C91.30200543 188.37665415 88.74248056 191.68458386 88.24072266 198.3125 C88.2206935 200.77673387 88.24754074 203.24167145 88.31445312 205.70507812 C88.31086705 207.71641845 88.30726731 209.72775885 88.30288506 211.7390976 C88.30794938 214.53241182 88.35408038 217.3244748 88.39996338 220.11737061 C88.47302219 225.00442779 88.48681589 229.8918827 88.4916687 234.77941895 C88.49835656 237.37287871 88.52287987 239.96637491 88.56814575 242.55944824 C88.63281534 250.86220767 88.23129547 259.19396405 83.11914062 266.11132812 C77.44976113 271.40274899 71.9481465 273.19050628 64.30664062 273.73632812 C64.19379227 274.70650375 64.08094391 275.67667938 63.9646759 276.67625427 C63.32152777 281.14779112 62.07653257 285.37821585 60.77807617 289.69750977 C60.39247528 291.00131844 60.39247528 291.00131844 59.99908447 292.33146667 C59.15249956 295.18808601 58.29840365 298.04238657 57.44335938 300.89648438 C56.8488765 302.88988406 56.25454387 304.88332857 55.66035461 306.8768158 C54.41558956 311.04794864 53.16668019 315.21781521 51.9152832 319.38696289 C50.31453209 324.72242691 48.72772029 330.06192539 47.14444256 335.40259647 C45.9219886 339.51825128 44.6903485 343.63111468 43.45612526 347.74325371 C42.86721446 349.71060891 42.28156653 351.67894395 41.69928551 353.64827156 C40.88356946 356.40334093 40.05509279 359.15426268 39.22338867 361.90454102 C38.98687088 362.71353851 38.75035309 363.52253601 38.50666809 364.35604858 C37.0563435 369.09400086 35.42440838 372.85259761 32.30664062 376.73632812 C30.79070312 377.16945313 30.79070312 377.16945313 29.24414062 377.61132812 C26.22466734 378.4070198 26.22466734 378.4070198 25.25585938 380.62695312 C24.51014459 382.64851168 23.85866877 384.6541167 23.30664062 386.73632812 C23.94601562 387.02507812 24.58539063 387.31382812 25.24414062 387.61132812 C27.30664062 388.73632812 27.30664062 388.73632812 28.30664062 390.73632812 C27.92788359 399.27292909 25.33224819 407.23413889 22.89648438 415.36523438 C22.44600747 416.88338549 21.99578136 418.40161103 21.54579163 419.91990662 C20.60216516 423.0961353 19.65227421 426.27041226 18.69848633 429.44360352 C17.49211786 433.46055599 16.30634977 437.48325561 15.12605953 441.50793552 C14.20193878 444.64709176 13.26403799 447.78201437 12.32254219 450.91599846 C11.88057753 452.39458111 11.4432086 453.87454731 11.0110302 455.35601997 C6.346405 471.30123046 0.6536288 487.85588416 -14.31835938 496.73632812 C-21.38071075 499.93068398 -29.13345466 500.10555571 -36.52929688 497.88476562 C-49.47627324 492.02874862 -55.66126123 480.30918154 -60.51962662 467.56971359 C-62.36471763 462.29545814 -63.92819406 456.93841934 -65.49414062 451.57617188 C-66.01245332 449.84253685 -66.53210277 448.109301 -67.05297852 446.37643433 C-68.43476486 441.76696377 -69.79891205 437.15245232 -71.1597023 432.53674698 C-72.58793544 427.70441063 -74.03327531 422.87719819 -75.47729492 418.04956055 C-77.80157083 410.27320148 -80.11761904 402.49444387 -82.42773438 394.71386719 C-85.31503154 384.99266656 -88.22885088 375.27968932 -91.16210938 365.57226562 C-91.37074993 364.8817725 -91.57939049 364.19127937 -91.79435349 363.47986221 C-92.61056341 360.77913777 -93.42697969 358.0784759 -94.24381065 355.37793922 C-95.59944993 350.89564566 -96.95135166 346.41224291 -98.30126953 341.92822266 C-101.76270379 330.43073186 -105.23732068 318.93762171 -108.74804688 307.45507812 C-109.67054162 304.43101907 -110.59268633 301.40685348 -111.51473999 298.38265991 C-112.3525019 295.64161017 -113.196222 292.90244524 -114.0402832 290.16333008 C-114.53301224 288.54843055 -115.02546302 286.93344609 -115.51757812 285.31835938 C-115.74150238 284.5988208 -115.96542664 283.87928223 -116.19613647 283.13793945 C-117.2051471 279.80444545 -117.69335938 277.26272138 -117.69335938 273.73632812 C-118.84835938 273.65382813 -120.00335938 273.57132812 -121.19335938 273.48632812 C-127.86637741 272.60209429 -132.79363513 270.26748017 -137.06835938 264.98632812 C-142.21384862 258.14483963 -142.03331314 249.72455883 -142.00585938 241.54882812 C-142.02197266 240.57751953 -142.03808594 239.60621094 -142.0546875 238.60546875 C-142.06090813 229.52957153 -142.06090813 229.52957153 -138.69335938 225.73632812 C-137.63375 225.24519531 -137.63375 225.24519531 -136.55273438 224.74414062 C-135.63234375 224.24527344 -135.63234375 224.24527344 -134.69335938 223.73632812 C-133.99159349 221.31953105 -133.99159349 221.31953105 -133.94335938 218.61132812 C-133.85828125 217.24621094 -133.85828125 217.24621094 -133.77148438 215.85351562 C-133.7328125 214.80550781 -133.7328125 214.80550781 -133.69335938 213.73632812 C-134.64210937 213.50945312 -135.59085938 213.28257812 -136.56835938 213.04882812 C-139.69335938 211.73632812 -139.69335938 211.73632812 -140.88696289 209.55932617 C-141.81924811 206.29562227 -141.8370026 203.64651111 -141.72070312 200.25585938 C-140.68048984 186.44641228 -140.68048984 186.44641228 -144.91992188 173.99023438 C-147.72409812 171.63797083 -150.62131104 169.71856012 -153.69335938 167.73632812 C-165.54291347 154.59744431 -172.9187019 136.4243405 -173.69335938 118.73632812 C-173.74492187 117.94742188 -173.79648438 117.15851563 -173.84960938 116.34570312 C-174.57301507 96.21091124 -167.33026129 75.37923383 -153.74804688 60.41992188 C-142.09867993 48.08694778 -127.66641972 38.61311801 -110.69335938 35.73632812 C-110.49033203 34.84494141 -110.49033203 34.84494141 -110.28320312 33.93554688 C-105.78691078 16.62347517 -92.36054845 3.21480128 -77.33789062 -5.65429688 C-53.22150122 -18.7157019 -21.99171447 -16.41134863 0 0 Z " fill="#020100" transform="translate(282.693359375,13.263671875)"/>
<path d="M0 0 C9.84169486 6.8508804 16.62202048 15.51630259 21.8125 26.3125 C22.77083333 28.82291667 22.77083333 28.82291667 25 29.6875 C26.61019261 29.81667149 28.22507098 29.88983976 29.83984375 29.93359375 C30.82146484 29.96646484 31.80308594 29.99933594 32.81445312 30.03320312 C34.86124577 30.09336526 36.90812212 30.15075761 38.95507812 30.20507812 C61.38588896 30.97654664 80.37469349 39.59861546 96 55.6875 C113.05403742 74.51217519 117.88987918 94.90462189 117 119.6875 C115.67930849 138.78340022 105.00868853 157.98261673 90.8359375 170.58203125 C72.51396997 186.06197741 50.23229926 191.96238788 26.52148438 190.90527344 C19.97726051 190.34006743 14.01411202 188.22996586 8 185.6875 C7.32453125 185.40342285 6.6490625 185.1193457 5.953125 184.82666016 C-2.89288933 180.99186306 -10.17319879 176.43303319 -17.25390625 169.88671875 C-21.20326932 166.72385757 -25.05748068 164.9594527 -30.125 164.25 C-33.76182173 164.80342939 -35.38868387 166.1507929 -38 168.6875 C-39.61159657 171.91069313 -39.17868465 175.4413664 -39.2109375 178.984375 C-39.23901625 180.68230114 -39.26768077 182.38021767 -39.296875 184.078125 C-39.33806084 186.75520455 -39.37494678 189.43210676 -39.40136719 192.109375 C-39.42907711 194.69308595 -39.47495852 197.27598119 -39.5234375 199.859375 C-39.52669037 200.65333679 -39.52994324 201.44729858 -39.53329468 202.26531982 C-39.63968952 207.10696449 -40.3056049 210.50503691 -43 214.6875 C-46.16818756 216.79962504 -48.13219252 217.01906464 -51.8671875 217.24609375 C-55.31146865 216.34402012 -56.77370544 214.4039049 -59 211.6875 C-59.61181641 208.18579102 -59.61181641 208.18579102 -59.6015625 204.19140625 C-59.61357193 203.12465919 -59.61357193 203.12465919 -59.62582397 202.03636169 C-59.64881231 199.773655 -59.63946927 197.51275338 -59.625 195.25 C-59.62113914 192.99115528 -59.62470459 190.7331066 -59.64559937 188.47434998 C-59.66315469 186.42250954 -59.65574412 184.37050031 -59.64697266 182.31860352 C-60.09863013 177.67302843 -61.55272202 174.3819616 -64.578125 170.83984375 C-68.49265863 168.97728339 -72.47104715 169.28503281 -76.75 169.25 C-93.98068212 168.75671842 -108.42817376 164.67421648 -122 153.6875 C-122.82113281 153.05714844 -123.64226562 152.42679688 -124.48828125 151.77734375 C-132.83241613 144.83471209 -137.70015257 135.44747116 -142 125.6875 C-142.36351562 124.89085937 -142.72703125 124.09421875 -143.1015625 123.2734375 C-148.14623421 109.93098803 -145.90412378 91.40048675 -140.7109375 78.48046875 C-137.60640686 71.88126592 -133.80504414 66.15991138 -129 60.6875 C-128.41734375 60.01074219 -127.8346875 59.33398438 -127.234375 58.63671875 C-117.49994375 48.10471855 -104.05774038 41.32371244 -89.875 39.47265625 C-87.02273138 38.27826877 -86.34243088 36.4070798 -85 33.6875 C-84.37716223 31.99317014 -83.79458022 30.283579 -83.25 28.5625 C-78.48972235 15.16520344 -69.40327572 4.5873355 -57 -2.3125 C-37.99869358 -11.17200483 -18.14688815 -10.88314062 0 0 Z " fill="#FB7998" transform="translate(270,23.3125)"/>
<path d="M0 0 C7.23097067 4.45412884 7.23097067 4.45412884 8.59375 7.1796875 C7.32144531 7.94539063 7.32144531 7.94539063 6.0234375 8.7265625 C-13.77938788 20.88989284 -27.5412497 35.68845179 -38.40625 56.1796875 C-39.01919922 57.25089844 -39.01919922 57.25089844 -39.64453125 58.34375 C-43.05935827 64.54054034 -44.642468 71.37134381 -46.40625 78.1796875 C-46.70917969 79.20320313 -47.01210937 80.22671875 -47.32421875 81.28125 C-55.06471399 110.5715747 -47.20742452 141.60606052 -32.40625 167.1796875 C-33.05585693 167.82752197 -33.70546387 168.47535645 -34.37475586 169.14282227 C-36.97633151 173.03189803 -36.95715868 176.25125251 -36.91015625 180.76953125 C-36.91957748 181.59167618 -36.92899872 182.41382111 -36.93870544 183.26087952 C-36.96729819 185.87990394 -36.97043621 188.49801983 -36.96875 191.1171875 C-36.97236552 193.73265182 -36.98198821 196.34745638 -37.00950623 198.96278381 C-37.02620493 200.58659082 -37.02924103 202.21061456 -37.01649475 203.8344574 C-37.0612026 208.66804018 -37.71183061 212.00308053 -40.40625 216.1796875 C-43.57443756 218.29181254 -45.53844252 218.51125214 -49.2734375 218.73828125 C-52.71771865 217.83620762 -54.17995544 215.8960924 -56.40625 213.1796875 C-57.01806641 209.67797852 -57.01806641 209.67797852 -57.0078125 205.68359375 C-57.01982193 204.61684669 -57.01982193 204.61684669 -57.03207397 203.52854919 C-57.05506231 201.2658425 -57.04571927 199.00494088 -57.03125 196.7421875 C-57.02738914 194.48334278 -57.03095459 192.2252941 -57.05184937 189.96653748 C-57.06940469 187.91469704 -57.06199412 185.86268781 -57.05322266 183.81079102 C-57.50488013 179.16521593 -58.95897202 175.8741491 -61.984375 172.33203125 C-65.89890863 170.46947089 -69.87729715 170.77722031 -74.15625 170.7421875 C-91.38693212 170.24890592 -105.83442376 166.16640398 -119.40625 155.1796875 C-120.22738281 154.54933594 -121.04851562 153.91898438 -121.89453125 153.26953125 C-130.23866613 146.32689959 -135.10640257 136.93965866 -139.40625 127.1796875 C-139.76976562 126.38304687 -140.13328125 125.58640625 -140.5078125 124.765625 C-145.55248421 111.42317553 -143.31037378 92.89267425 -138.1171875 79.97265625 C-135.01265686 73.37345342 -131.21129414 67.65209888 -126.40625 62.1796875 C-125.82359375 61.50292969 -125.2409375 60.82617188 -124.640625 60.12890625 C-114.90619375 49.59690605 -101.46399038 42.81589994 -87.28125 40.96484375 C-84.42898138 39.77045627 -83.74868088 37.8992673 -82.40625 35.1796875 C-81.78341223 33.48535764 -81.20083022 31.7757665 -80.65625 30.0546875 C-75.89597235 16.65739094 -66.80952572 6.079523 -54.40625 -0.8203125 C-36.35709835 -9.23586787 -17.69542902 -9.45650221 0 0 Z " fill="#F2618B" transform="translate(267.40625,21.8203125)"/>
<path d="M0 0 C0.85053955 0.29656494 0.85053955 0.29656494 1.71826172 0.59912109 C14.01354618 4.80547024 26.10063524 6.40717724 39 7 C39.01401855 8.3003418 39.01401855 8.3003418 39.02832031 9.62695312 C39.07262577 12.87775741 39.13436953 16.12765627 39.20751953 19.37792969 C39.23555071 20.77819961 39.25685316 22.17862251 39.27099609 23.57910156 C39.37397662 33.20434834 39.90773384 40.13352133 46.3125 47.75 C52.98144595 53.33330359 57.11415416 54.63872613 65.84765625 54.30859375 C73.42638626 53.56668586 77.40888222 51.20710173 82.45703125 45.5234375 C87.37052177 37.48770363 87.51597625 29.15567618 87.6875 19.9375 C87.72166016 18.69033203 87.75582031 17.44316406 87.79101562 16.15820312 C87.87288731 13.10555873 87.94223628 10.05317966 88 7 C91.03973907 8.46861503 93.7750188 10.16830398 96.56567383 12.0715332 C104.29678604 17.28719759 112.12000763 21.1170588 121 24 C121.64243652 24.21027832 122.28487305 24.42055664 122.94677734 24.63720703 C147.80063954 32.41288896 171.40779849 27.40141129 194.68310547 17.42211914 C195.77768066 16.95281982 196.87225586 16.48352051 198 16 C198.10136217 23.18981902 198.1714496 30.37945402 198.21972656 37.56982422 C198.23985052 40.01618333 198.2671526 42.46249429 198.30175781 44.90869141 C198.35023963 48.42362341 198.37296128 51.93791984 198.390625 55.453125 C198.41127014 56.5480426 198.43191528 57.64296021 198.45318604 58.77105713 C198.45348816 59.79181335 198.45379028 60.81256958 198.45410156 61.86425781 C198.46298401 62.76138489 198.47186646 63.65851196 198.48101807 64.58282471 C197.81595342 67.92485681 196.69745125 68.92865043 194 71 C191.30754054 71.39302886 189.02346125 71.5410547 186.33276367 71.50793457 C185.55629329 71.51417453 184.7798229 71.5204145 183.97982311 71.52684355 C181.37556362 71.54281039 178.77223534 71.53015531 176.16796875 71.51757812 C174.30196587 71.52299762 172.43596728 71.5301193 170.56997681 71.53881836 C165.49975243 71.5570752 160.42985312 71.54997442 155.35962296 71.53730202 C150.05769209 71.52718659 144.75578936 71.53656364 139.45385742 71.54284668 C130.54959101 71.55012733 121.64545722 71.5405244 112.74121094 71.52148438 C102.44144785 71.49971487 92.14200146 71.50676595 81.84224606 71.52879 C73.00478113 71.54693207 64.16741164 71.54950815 55.32993412 71.53903532 C50.0491981 71.53279384 44.76861102 71.53198276 39.48788452 71.54518127 C34.52361576 71.55672178 29.55975597 71.54874696 24.59553146 71.52560425 C22.77180028 71.52030753 20.94803478 71.52184735 19.12431717 71.53065491 C16.63815627 71.54155624 14.15331285 71.52791347 11.66723633 71.50793457 C10.942336 71.51685746 10.21743567 71.52578034 9.47056866 71.53497362 C6.06539022 71.48174851 4.29034715 71.22251511 1.55293274 69.12462616 C-0.37609104 66.48545559 -0.50995618 64.96724404 -0.5390625 61.71875 C-0.56226563 60.71199219 -0.58546875 59.70523438 -0.609375 58.66796875 C-0.61453125 57.62253906 -0.6196875 56.57710938 -0.625 55.5 C-0.65056147 53.42696449 -0.68409882 51.35400817 -0.7265625 49.28125 C-0.73252441 48.36408203 -0.73848633 47.44691406 -0.74462891 46.50195312 C-1.01656961 43.83766219 -1.53525364 42.23235078 -3 40 C-5.53770003 38.71745356 -5.53770003 38.71745356 -8 38 C-8.3470186 34.27276317 -8.54044496 30.7135525 -8 27 C-5.0625 24.375 -5.0625 24.375 -2 23 C-0.34920558 21.34920558 -0.77450553 19.36263821 -0.68359375 17.08984375 C-0.64169922 16.10048828 -0.59980469 15.11113281 -0.55664062 14.09179688 C-0.49766602 12.53041992 -0.49766602 12.53041992 -0.4375 10.9375 C-0.37272461 9.37032227 -0.37272461 9.37032227 -0.30664062 7.77148438 C-0.20018775 5.18113116 -0.0981724 2.59067814 0 0 Z " fill="#BB6525" transform="translate(157,200)"/>
<path d="M0 0 C0.84401367 0.29656494 0.84401367 0.29656494 1.70507812 0.59912109 C6.59985652 2.28105901 11.40931209 3.63514402 16.5 4.625 C17.7065625 4.86476562 18.913125 5.10453125 20.15625 5.3515625 C24.41247757 6.06958463 28.71003249 6.52333694 33 7 C33.33 28.12 33.66 49.24 34 71 C24.1 71 14.2 71 4 71 C-0.49618862 66.50381138 -0.49618862 66.50381138 -0.5390625 61.71875 C-0.56226563 60.71199219 -0.58546875 59.70523438 -0.609375 58.66796875 C-0.61453125 57.62253906 -0.6196875 56.57710938 -0.625 55.5 C-0.65056147 53.42696449 -0.68409882 51.35400817 -0.7265625 49.28125 C-0.73252441 48.36408203 -0.73848633 47.44691406 -0.74462891 46.50195312 C-1.01656961 43.83766219 -1.53525364 42.23235078 -3 40 C-5.53770003 38.71745356 -5.53770003 38.71745356 -8 38 C-8.3470186 34.27276317 -8.54044496 30.7135525 -8 27 C-5.0625 24.375 -5.0625 24.375 -2 23 C-0.34920558 21.34920558 -0.77450553 19.36263821 -0.68359375 17.08984375 C-0.64169922 16.10048828 -0.59980469 15.11113281 -0.55664062 14.09179688 C-0.49766602 12.53041992 -0.49766602 12.53041992 -0.4375 10.9375 C-0.37272461 9.37032227 -0.37272461 9.37032227 -0.30664062 7.77148438 C-0.20018775 5.18113116 -0.0981724 2.59067814 0 0 Z " fill="#A75721" transform="translate(157,200)"/>
<path d="M0 0 C3.05075084 -0.266487 5.89626179 -0.34757146 8.9453125 -0.29296875 C9.8303244 -0.28872391 10.7153363 -0.28447906 11.62716675 -0.28010559 C14.46008445 -0.26328259 17.29229652 -0.22562425 20.125 -0.1875 C22.04295849 -0.17245782 23.96092811 -0.15876861 25.87890625 -0.14648438 C30.58621031 -0.11336727 35.29298544 -0.06156055 40 0 C39.73844293 1.5016453 39.46513114 3.0012433 39.1875 4.5 C39.03667969 5.3353125 38.88585937 6.170625 38.73046875 7.03125 C36.64132114 15.52190339 33.72471082 19.99141749 27.48828125 26 C26.76005661 26.7211499 26.03183197 27.4422998 25.28153992 28.18530273 C22.97006942 30.46895295 20.64177352 32.7345257 18.3125 35 C16.73518095 36.55222055 15.15899631 38.10559476 13.58398438 39.66015625 C9.73568285 43.45355254 5.8734421 47.23228746 2 51 C-1.81249879 49.2241334 -4.23349496 46.99634812 -7.203125 43.9921875 C-7.6857782 43.50670441 -8.1684314 43.02122131 -8.66571045 42.52102661 C-10.19858562 40.97700134 -11.72434004 39.42615176 -13.25 37.875 C-14.29120361 36.82375991 -15.33286541 35.77297343 -16.375 34.72265625 C-18.92199464 32.15366996 -21.46265177 29.57851839 -24 27 C-22.4712211 23.3655151 -20.30277641 21.08469094 -17.5 18.33984375 C-16.1696875 17.0259668 -16.1696875 17.0259668 -14.8125 15.68554688 C-13.884375 14.77869141 -12.95625 13.87183594 -12 12.9375 C-10.16445214 11.13636866 -8.33101857 9.33307936 -6.5 7.52734375 C-5.6853125 6.73062256 -4.870625 5.93390137 -4.03125 5.11303711 C-1.85452179 2.97324025 -1.85452179 2.97324025 0 0 Z " fill="#E68E4C" transform="translate(291,286)"/>
<path d="M0 0 C34.41164391 -4.28858972 34.41164391 -4.28858972 45.27684021 3.95240784 C52.42896888 10.09450861 58.45323675 17.40501463 64 25 C62.4152642 28.86328627 59.94043113 31.28876923 56.9921875 34.203125 C56.50670441 34.6857782 56.02122131 35.1684314 55.52102661 35.66571045 C53.97700134 37.19858562 52.42615176 38.72434004 50.875 40.25 C49.82375991 41.29120361 48.77297343 42.33286541 47.72265625 43.375 C45.15366996 45.92199464 42.57851839 48.46265177 40 51 C37.10795288 49.68291682 34.96894497 48.24677962 32.671875 46.05761719 C32.04442383 45.46229187 31.41697266 44.86696655 30.77050781 44.25360107 C27.92024964 41.49331752 25.07463374 38.72884664 22.24609375 35.94628906 C20.75939683 34.49255804 19.262072 33.04961008 17.75390625 31.61816406 C8.6124812 22.93863 1.47574355 16.06494207 0 3 C0 2.01 0 1.02 0 0 Z " fill="#D38144" transform="translate(181,286)"/>
<path d="M0 0 C5.6012737 2.33011678 9.53065204 7.12056817 13.75610352 11.33056641 C15.31281353 12.87531112 16.88721009 14.40042234 18.46289062 15.92578125 C19.45166381 16.90509733 20.43933375 17.88552883 21.42578125 18.8671875 C22.32723877 19.75519043 23.22869629 20.64319336 24.1574707 21.55810547 C26 24 26 24 26.10644531 25.98193359 C24.49400169 28.92289983 22.25680719 31.11034795 19.87109375 33.421875 C19.36199966 33.92672424 18.85290558 34.43157349 18.3283844 34.95172119 C16.7050088 36.55833979 15.071503 38.15419822 13.4375 39.75 C12.3332995 40.83914984 11.22977555 41.92898605 10.12695312 43.01953125 C7.4257471 45.6877076 4.71540937 48.34628291 2 51 C-1.90851199 49.41568547 -4.52367356 46.73364905 -7.421875 43.7734375 C-7.92672424 43.26575836 -8.43157349 42.75807922 -8.95172119 42.23501587 C-10.55592096 40.61966158 -12.15300856 38.99747791 -13.75 37.375 C-14.83938107 36.27558302 -15.9292199 35.17661941 -17.01953125 34.078125 C-19.68501885 31.3906398 -22.34415143 28.69700979 -25 26 C-20.03805145 20.00499003 -14.6523376 14.53572963 -9.125 9.0625 C-8.24585938 8.18787109 -7.36671875 7.31324219 -6.4609375 6.41210938 C-4.3095654 4.27242952 -2.15588208 2.13513403 0 0 Z " fill="#E58D4C" transform="translate(255,395)"/>
<path d="M0 0 C3.86328627 1.5847358 6.28876923 4.05956887 9.203125 7.0078125 C9.6857782 7.49329559 10.1684314 7.97877869 10.66571045 8.47897339 C12.19858562 10.02299866 13.72434004 11.57384824 15.25 13.125 C16.29120361 14.17624009 17.33286541 15.22702657 18.375 16.27734375 C20.92199464 18.84633004 23.46265177 21.42148161 26 24 C24.4152642 27.86328627 21.94043113 30.28876923 18.9921875 33.203125 C18.50670441 33.6857782 18.02122131 34.1684314 17.52102661 34.66571045 C15.97700134 36.19858562 14.42615176 37.72434004 12.875 39.25 C11.82375991 40.29120361 10.77297343 41.33286541 9.72265625 42.375 C7.15366996 44.92199464 4.57851839 47.46265177 2 50 C-1.86328627 48.4152642 -4.28876923 45.94043113 -7.203125 42.9921875 C-7.6857782 42.50670441 -8.1684314 42.02122131 -8.66571045 41.52102661 C-10.19858562 39.97700134 -11.72434004 38.42615176 -13.25 36.875 C-14.29120361 35.82375991 -15.33286541 34.77297343 -16.375 33.72265625 C-18.92199464 31.15366996 -21.46265177 28.57851839 -24 26 C-22.4152642 22.13671373 -19.94043113 19.71123077 -16.9921875 16.796875 C-16.50670441 16.3142218 -16.02122131 15.8315686 -15.52102661 15.33428955 C-13.97700134 13.80141438 -12.42615176 12.27565996 -10.875 10.75 C-9.82375991 9.70879639 -8.77297343 8.66713459 -7.72265625 7.625 C-5.15366996 5.07800536 -2.57851839 2.53734823 0 0 Z " fill="#E9904D" transform="translate(255,323)"/>
<path d="M0 0 C3.71418887 1.74564904 6.28421612 3.88827871 9.25 6.75 C10.14203125 7.59046875 11.0340625 8.4309375 11.953125 9.296875 C14.39003459 12.51508384 14.50683027 14.05553832 14 18 C13.67 18.66 13.34 19.32 13 20 C12.46092969 24.59638282 12.46092969 24.59638282 14.1171875 28.79296875 C15.34533927 30.25356733 16.66737101 31.63405529 18 33 C16.50408288 37.75173675 16.50408288 37.75173675 15 40 C11.5 41.1875 11.5 41.1875 8 42 C6.16666667 43.75 6.16666667 43.75 5 46 C4.443125 46.9075 3.88625 47.815 3.3125 48.75 C2.6628125 49.86375 2.6628125 49.86375 2 51 C-3.99500997 46.03805145 -9.46427037 40.6523376 -14.9375 35.125 C-15.81212891 34.24585938 -16.68675781 33.36671875 -17.58789062 32.4609375 C-19.72757048 30.3095654 -21.86486597 28.15588208 -24 26 C-22.4152642 22.13671373 -19.94043113 19.71123077 -16.9921875 16.796875 C-16.50670441 16.3142218 -16.02122131 15.8315686 -15.52102661 15.33428955 C-13.97700134 13.80141438 -12.42615176 12.27565996 -10.875 10.75 C-9.82375991 9.70879639 -8.77297343 8.66713459 -7.72265625 7.625 C-5.15366996 5.07800536 -2.57851839 2.53734823 0 0 Z " fill="#E68E4C" transform="translate(291,359)"/>
<path d="M0 0 C3.86328627 1.5847358 6.28876923 4.05956887 9.203125 7.0078125 C9.6857782 7.49329559 10.1684314 7.97877869 10.66571045 8.47897339 C12.19858562 10.02299866 13.72434004 11.57384824 15.25 13.125 C16.29120361 14.17624009 17.33286541 15.22702657 18.375 16.27734375 C20.92199464 18.84633004 23.46265177 21.42148161 26 24 C24.41568547 27.90851199 21.73364905 30.52367356 18.7734375 33.421875 C18.26575836 33.92672424 17.75807922 34.43157349 17.23501587 34.95172119 C15.61966158 36.55592096 13.99747791 38.15300856 12.375 39.75 C11.27558302 40.83938107 10.17661941 41.9292199 9.078125 43.01953125 C6.3906398 45.68501885 3.69700979 48.34415143 1 51 C-2.32490038 48.78339974 -2.55578149 48.18771355 -3.71875 44.5625 C-4.01136719 43.66660156 -4.30398437 42.77070313 -4.60546875 41.84765625 C-5.04826172 40.43806641 -5.04826172 40.43806641 -5.5 39 C-5.94279297 37.63681641 -5.94279297 37.63681641 -6.39453125 36.24609375 C-7.28040846 33.50260618 -8.14031142 30.75178855 -9 28 C-9.29261719 27.10667969 -9.58523437 26.21335937 -9.88671875 25.29296875 C-12.82799723 16.08248636 -12.82799723 16.08248636 -12 12 C-10.25973127 9.57947159 -8.19697055 7.62899341 -6 5.625 C-5.14148438 4.80708984 -5.14148438 4.80708984 -4.265625 3.97265625 C-2.85694461 2.63440988 -1.43017503 1.31525025 0 0 Z " fill="#D28143" transform="translate(219,359)"/>
<path d="M0 0 C4.38988494 -0.46032655 6.38007335 -0.45559232 9.99780273 2.203125 C10.99453647 3.2009567 11.97246094 4.2178324 12.93359375 5.25 C13.4563942 5.78270508 13.97919464 6.31541016 14.51783752 6.86425781 C16.17495352 8.56038943 17.80600645 10.27924468 19.4375 12 C20.56021063 13.15784087 21.68454418 14.31411041 22.81054688 15.46875 C25.55949183 18.29464875 28.28532503 21.1411802 31 24 C29.61314777 27.1195572 27.99810509 29.25855799 25.59375 31.671875 C24.93246094 32.33574219 24.27117187 32.99960937 23.58984375 33.68359375 C22.55537109 34.70646484 22.55537109 34.70646484 21.5 35.75 C20.81035156 36.44738281 20.12070313 37.14476562 19.41015625 37.86328125 C18.74886719 38.52199219 18.08757812 39.18070312 17.40625 39.859375 C16.80103516 40.46233398 16.19582031 41.06529297 15.57226562 41.68652344 C14 43 14 43 12 43 C10.7701785 38.80572636 9.54352949 34.6105407 8.31958008 30.41455078 C7.90439611 28.99275818 7.48840556 27.57120082 7.0715332 26.14990234 C4.52772331 17.47462287 2.1046652 8.79505399 0 0 Z " fill="#E68E4C" transform="translate(214,287)"/>
<path d="M0 0 C0.66 0.33 1.32 0.66 2 1 C1.20722656 1.58394531 1.20722656 1.58394531 0.3984375 2.1796875 C-0.26929688 2.73914063 -0.93703125 3.29859375 -1.625 3.875 C-2.29789063 4.40867187 -2.97078125 4.94234375 -3.6640625 5.4921875 C-7.05009542 11.84842474 -1.92269279 21.90661352 0.01953125 28.33007812 C0.38433594 29.52052734 0.74914062 30.71097656 1.125 31.9375 C1.86052068 34.34130373 2.59247174 36.74620351 3.3203125 39.15234375 C3.64273926 40.20413818 3.96516602 41.25593262 4.29736328 42.33959961 C5 45 5 45 5 48 C3.5 49.6875 3.5 49.6875 2 51 C-1.90851199 49.41568547 -4.52367356 46.73364905 -7.421875 43.7734375 C-7.92672424 43.26575836 -8.43157349 42.75807922 -8.95172119 42.23501587 C-10.55592096 40.61966158 -12.15300856 38.99747791 -13.75 37.375 C-14.83938107 36.27558302 -15.9292199 35.17661941 -17.01953125 34.078125 C-19.68501885 31.3906398 -22.34415143 28.69700979 -25 26 C-20.03805145 20.00499003 -14.6523376 14.53572963 -9.125 9.0625 C-8.24585938 8.18787109 -7.36671875 7.31324219 -6.4609375 6.41210938 C-4.3095654 4.27242952 -2.15588208 2.13513403 0 0 Z " fill="#CF7F43" transform="translate(255,395)"/>
<path d="M0 0 C4.20858366 1.94159325 7.03449761 4.59671355 10.3125 7.8125 C11.15651367 8.59463867 11.15651367 8.59463867 12.01757812 9.39257812 C15.98286206 13.28020656 15.98286206 13.28020656 16.0625 16.625 C14.8914113 19.24272768 13.60911889 21.06014032 11.6875 23.1875 C11.09324219 23.86167969 10.49898438 24.53585937 9.88671875 25.23046875 C6.61480609 28.29915702 4.71594082 29 0.1875 29 C-5.84362357 28.05482392 -9.43454855 24.05465503 -13 19.375 C-14.17911862 16.57459328 -14.01668872 15.79764001 -13 13 C-11.69311523 11.35253906 -11.69311523 11.35253906 -10.05859375 9.765625 C-9.18364258 8.90517578 -9.18364258 8.90517578 -8.29101562 8.02734375 C-7.67935547 7.44082031 -7.06769531 6.85429687 -6.4375 6.25 C-5.82197266 5.64800781 -5.20644531 5.04601562 -4.57226562 4.42578125 C-3.05485187 2.94365619 -1.52829404 1.4709033 0 0 Z " fill="#D28143" transform="translate(255,468)"/>
<path d="M0 0 C9.24 0 18.48 0 28 0 C25.96986589 4.06026821 23.57604446 6.65457376 20.375 9.75 C19.859375 10.25660156 19.34375 10.76320313 18.8125 11.28515625 C17.54616661 12.52803902 16.2736856 13.76465276 15 15 C10.96918 13.387672 8.24055863 10.53765404 5.25 7.5 C4.74339844 7.00113281 4.23679688 6.50226563 3.71484375 5.98828125 C0 2.25341139 0 2.25341139 0 0 Z " fill="#D78547" transform="translate(242,286)"/>
<path d="M0 0 C1 2 1 2 0.109375 5.125 C-0.33658992 6.41915622 -0.79017827 7.71070212 -1.25 9 C-1.72143424 10.35759374 -2.19148348 11.71566921 -2.66015625 13.07421875 C-2.89105957 13.74114746 -3.12196289 14.40807617 -3.35986328 15.09521484 C-4.47342168 18.40870935 -5.40374514 21.77322606 -6.32421875 25.14453125 C-7 27 -7 27 -9 29 C-11.97 26.03 -14.94 23.06 -18 20 C-16.23433463 16.46866927 -15.02506669 14.78657357 -12.3046875 12.109375 C-11.23154297 11.04589844 -11.23154297 11.04589844 -10.13671875 9.9609375 C-9.39035156 9.23132813 -8.64398438 8.50171875 -7.875 7.75 C-7.12089844 7.00492187 -6.36679687 6.25984375 -5.58984375 5.4921875 C-3.73099228 3.6568658 -1.86762995 1.8263809 0 0 Z " fill="#DF8A4A" transform="translate(285,438)"/>
<path d="M0 0 C6.78376359 5.55035203 12.85522968 11.76442027 19 18 C17.59155282 21.21524305 15.89655214 23.32183868 13.375 25.75 C12.74335938 26.36359375 12.11171875 26.9771875 11.4609375 27.609375 C10.97882813 28.06828125 10.49671875 28.5271875 10 29 C7.40079805 26.40079805 6.66325303 23.54228206 5.5625 20.125 C5.34440674 19.46040771 5.12631348 18.79581543 4.90161133 18.11108398 C2.97740305 12.14468476 1.39965353 6.11068247 0 0 Z " fill="#CC7D41" transform="translate(226,438)"/>
<path d="M0 0 C4.91935902 4.11619836 9.52647956 8.40410362 14 13 C12.43622501 16.32302186 10.78646849 18.56184007 8 21 C7.34 21 6.68 21 6 21 C3.28671113 14.07189348 1.21119677 7.34686463 0 0 Z " fill="#C2763E" transform="translate(195,334)"/>
<path d="M0 0 C1.12018319 3.36054957 0.90181274 4.01723271 -0.21484375 7.23046875 C-0.48876953 8.03291016 -0.76269531 8.83535156 -1.04492188 9.66210938 C-1.33947266 10.49548828 -1.63402344 11.32886719 -1.9375 12.1875 C-2.22818359 13.03248047 -2.51886719 13.87746094 -2.81835938 14.74804688 C-3.53757537 16.83495229 -4.2650343 18.91859994 -5 21 C-8.32759923 19.44805246 -10.48580485 17.69378051 -13 15 C-11.38989473 10.92623969 -8.46177729 8.23492931 -5.375 5.25 C-4.859375 4.74339844 -4.34375 4.23679687 -3.8125 3.71484375 C-2.54616661 2.47196098 -1.2736856 1.23534724 0 0 Z " fill="#E28C4B" transform="translate(316,334)"/>
<path d="M0 0 C0.33 0.99 0.66 1.98 1 3 C-3.34478801 7.34478801 -8.17792311 11.20078791 -13 15 C-11.38989473 10.92623969 -8.46177729 8.23492931 -5.375 5.25 C-4.859375 4.74339844 -4.34375 4.23679687 -3.8125 3.71484375 C-2.54616661 2.47196098 -1.2736856 1.23534724 0 0 Z " fill="#B46F3C" transform="translate(316,334)"/>
</svg>
