<?xml version="1.0" encoding="UTF-8"?>
<svg version="1.1" xmlns="http://www.w3.org/2000/svg" width="512" height="512">
<path d="M0 0 C7.88819954 5.35141255 14.80529234 13.32637493 18.26171875 22.26171875 C18.83535156 23.16535156 19.40898437 24.06898437 20 25 C23.19861645 25.80008547 23.19861645 25.80008547 26.875 25.625 C35.62132681 25.80918923 45.13685907 26.74781436 51.75 33.0625 C55.31740133 37.71994063 55.15373544 41.67556391 55.125 47.3125 C55.12886719 48.05951172 55.13273437 48.80652344 55.13671875 49.57617188 C55.12925356 53.82759858 54.83873595 57.81297691 54 62 C54.70382812 62.44988281 55.40765625 62.89976563 56.1328125 63.36328125 C73.03944441 74.37687045 89.1941948 87.31137135 102 103 C102.72960937 103.84175781 103.45921875 104.68351562 104.2109375 105.55078125 C137.75047722 144.6449766 167.41189123 203.22171379 167.27415466 255.59461975 C167.27939134 256.60151665 167.28462802 257.60841354 167.29002339 258.64582247 C167.30491221 261.98796263 167.30572606 265.32994821 167.30639648 268.67211914 C167.31402513 271.08113357 167.32245383 273.49014559 167.33161926 275.89915466 C167.35349372 282.41962895 167.36237545 288.94006917 167.36744571 295.46057439 C167.37071446 299.53740051 167.37724364 303.61421731 167.3844471 307.69103813 C167.4039907 318.99688058 167.42041015 330.30271444 167.42332363 341.60857487 C167.4235112 342.33020529 167.42369877 343.0518357 167.42389202 343.79533371 C167.42425825 345.25795424 167.42462195 346.72057477 167.42498314 348.1831953 C167.42516595 348.90914954 167.42534876 349.63510378 167.42553711 350.38305664 C167.42580793 351.47332806 167.42580793 351.47332806 167.42608423 352.58562516 C167.42962888 364.3731963 167.4566794 376.16058513 167.494035 387.948093 C167.53215205 400.07353234 167.55148132 412.19888121 167.55178314 424.32438177 C167.55236665 431.12325274 167.56079092 437.92190564 167.58978081 444.72072029 C167.61595276 451.11241282 167.61817099 457.50367363 167.60212517 463.89539528 C167.60031039 466.23748466 167.60700384 468.57959884 167.62294388 470.92163467 C167.64341798 474.12572016 167.6328437 477.32829668 167.61473083 480.53236389 C167.6279308 481.45290544 167.64113077 482.37344699 167.65473074 483.32188374 C167.55891299 490.77278713 165.27950972 497.01033317 160.51363176 502.80823189 C150.68514968 512.20567716 137.70428602 511.57404022 125.06005859 511.50793457 C123.13624284 511.51254794 121.21243062 511.51890379 119.28862572 511.52684355 C114.02148529 511.54349993 108.75463577 511.53530721 103.48749447 511.52289867 C97.79960626 511.51383543 92.1117675 511.52782425 86.42388916 511.53881836 C75.288975 511.55659451 64.15416876 511.55276758 53.01925039 511.5411678 C43.96877756 511.53213022 34.91833494 511.53091089 25.86785889 511.53526306 C24.57920689 511.53587599 23.29055489 511.53648893 21.96285284 511.53712043 C19.34489074 511.53839935 16.72692866 511.5396962 14.10896659 511.5410108 C-9.73383813 511.55208896 -33.57658157 511.54060512 -57.41937652 511.51964041 C-79.17219397 511.50065882 -100.92491774 511.50235736 -122.67773438 511.52148438 C-147.13285425 511.54291576 -171.58791398 511.55131534 -196.04304314 511.53903532 C-198.65131505 511.53776114 -201.25958696 511.53650366 -203.86785889 511.53526306 C-205.79278292 511.53433741 -205.79278292 511.53433741 -207.7565943 511.53339306 C-216.79503807 511.52994096 -225.83344859 511.53576549 -234.87188721 511.54518127 C-245.88838472 511.55640554 -256.90476825 511.55335208 -267.92125273 511.5320583 C-273.54084515 511.52155378 -279.16024759 511.51741605 -284.77983856 511.53065491 C-289.92675107 511.54259673 -295.07329795 511.53598646 -300.22017741 511.5147447 C-302.07938233 511.51028626 -303.93861831 511.51252779 -305.79780316 511.52224785 C-317.62388964 511.57932065 -329.39541035 511.52024959 -338.51371062 502.80954027 C-343.97907036 496.15552748 -345.74105307 489.30020882 -345.63491821 480.86730957 C-345.64271817 479.89801907 -345.65051812 478.92872857 -345.65855443 477.93006563 C-345.67836683 474.70884027 -345.66275167 471.48881051 -345.64697266 468.26757812 C-345.65375352 465.94737564 -345.66265928 463.62717854 -345.67352295 461.30699158 C-345.69626662 455.02391993 -345.68749997 448.74125999 -345.67162752 442.45818138 C-345.65894315 435.87384327 -345.6707157 429.28953973 -345.67855835 422.7052002 C-345.68922726 410.94169181 -345.67271915 399.17835617 -345.64726166 387.41487771 C-345.62492491 376.76396011 -345.6288057 366.11331504 -345.65185547 355.46240234 C-345.67865477 343.07321604 -345.68855103 330.68420333 -345.67379415 318.29499197 C-345.66601062 311.74428867 -345.6649281 305.19377282 -345.68147659 298.64308167 C-345.69595065 292.48362666 -345.68584508 286.32468485 -345.65700531 280.16528511 C-345.65041031 277.90868035 -345.65226488 275.65203219 -345.66331863 273.39544487 C-345.67704782 270.3072827 -345.65976806 267.2207497 -345.63491821 264.13269043 C-345.64607182 263.2464853 -345.65722543 262.36028016 -345.66871703 261.44722033 C-345.54871505 253.72264895 -342.85792635 247.36634188 -337.85498047 241.47338867 C-332.82385618 237.32303089 -327.70319769 233.68713706 -322.125 230.3125 C-308.47207111 221.84169574 -295.22691239 212.76612968 -281.93408203 203.74536133 C-272.56271493 197.39136483 -263.15415916 191.10825917 -253.64758301 184.95817566 C-247.24031935 180.81262459 -240.86068358 176.62672343 -234.4921875 172.421875 C-233.53585419 171.79064224 -232.57952087 171.15940948 -231.59420776 170.50904846 C-227.67917361 167.92418 -223.76490965 165.33814794 -219.85107422 162.75146484 C-216.94039768 160.82816228 -214.02884484 158.90619229 -211.1171875 156.984375 C-210.22780487 156.39597839 -209.33842224 155.80758179 -208.42208862 155.20135498 C-207.60588043 154.6627887 -206.78967224 154.12422241 -205.94873047 153.56933594 C-205.23184052 153.09558533 -204.51495056 152.62183472 -203.77633667 152.13372803 C-200.00575691 149.72719552 -196.39937304 149.33414894 -192 150 C-190.31644563 150.97129936 -188.64768655 151.96902628 -187 153 C-186.25314941 152.48501953 -185.50629883 151.97003906 -184.73681641 151.43945312 C-181.9699707 149.53484979 -179.20034542 147.63443683 -176.42871094 145.73681641 C-175.22867137 144.91394141 -174.02977114 144.08940232 -172.83203125 143.26318359 C-171.1123307 142.07733049 -169.38864996 140.89748079 -167.6640625 139.71875 C-166.62717285 139.00654297 -165.5902832 138.29433594 -164.52197266 137.56054688 C-162 136 -162 136 -160 136 C-159.87818359 134.19982422 -159.87818359 134.19982422 -159.75390625 132.36328125 C-159.00987353 125.73427325 -156.94732346 119.52515162 -154.9375 113.1875 C-154.73714142 112.55027008 -154.53678284 111.91304016 -154.33035278 111.25650024 C-146.21775554 85.51114612 -135.9036904 59.61304233 -118 39 C-117.22462891 38.08154297 -117.22462891 38.08154297 -116.43359375 37.14453125 C-104.84161663 24.44855631 -86.91407479 16.67455971 -69.94140625 15.74609375 C-56.03697272 15.25134405 -43.51071082 17.74464459 -31 24 C-30.25556641 22.49759766 -30.25556641 22.49759766 -29.49609375 20.96484375 C-25.08465152 12.2535306 -21.24915534 5.11061057 -12.625 0 C-7.95895875 -1.28718379 -4.5928273 -1.70076965 0 0 Z " fill="#101010" transform="translate(345,1)"/>
<path d="M0 0 C39.81173109 23.88703865 63.81112703 84.92832508 74.58203125 127.2890625 C75.85905782 132.57263808 77 137.55522745 77 143 C-70.18 143 -217.36 143 -369 143 C-365.87455666 139.87455666 -363.43883439 137.81551633 -359.8125 135.47265625 C-358.21015503 134.43093262 -358.21015503 134.43093262 -356.57543945 133.36816406 C-355.99718414 132.99534302 -355.41892883 132.62252197 -354.82315063 132.23840332 C-352.27292247 130.59354649 -349.73047298 128.9368221 -347.18733215 127.28103638 C-345.77523195 126.36178488 -344.36277507 125.4430811 -342.94999695 124.52487183 C-320.08376481 109.65956379 -297.30699221 94.64503229 -274.66854858 79.43493652 C-273.1940258 78.44526544 -271.7179952 77.45783679 -270.24038696 76.47277832 C-268.21686158 75.12265656 -266.19945458 73.7638735 -264.18359375 72.40234375 C-263.59514679 72.01201462 -263.00669983 71.62168549 -262.40042114 71.2195282 C-259.33808292 69.1349905 -256.89399006 67.21425471 -255 64 C-254.71842691 60.55072966 -254.90317598 58.29047207 -256 55 C-249.74713467 50.34610023 -243.40320757 45.85211375 -236.9375 41.5 C-236.28257568 41.05479004 -235.62765137 40.60958008 -234.95288086 40.15087891 C-230.23645149 37 -230.23645149 37 -228 37 C-227.96132813 38.93939453 -227.96132813 38.93939453 -227.921875 40.91796875 C-227.34657823 60.88403769 -222.64113186 76.7255075 -208 91 C-191.0972659 106.68872557 -170.33626853 107.20523561 -148.5625 107.125 C-147.54743881 107.12217514 -147.54743881 107.12217514 -146.51187134 107.11929321 C-113.97242472 107.01333589 -76.06583939 104.25867241 -51.1875 80.6875 C-37.35114215 66.05193015 -31.56286351 48.13564097 -31.875 28.375 C-31.88853516 26.72564453 -31.88853516 26.72564453 -31.90234375 25.04296875 C-31.92565876 22.36174242 -31.9583796 19.68099393 -32 17 C-30.98421875 16.85304688 -29.9684375 16.70609375 -28.921875 16.5546875 C-14.03378478 14.41583318 -14.03378478 14.41583318 -2.375 5.83203125 C-1.09436205 3.4459418 -1.09436205 3.4459418 0 0 Z " fill="#F8F3F3" transform="translate(413,100)"/>
<path d="M0 0 C155.76 0 311.52 0 472 0 C472 18.15 472 36.3 472 55 C316.24 55 160.48 55 0 55 C0 36.85 0 18.7 0 0 Z " fill="#F1B482" transform="translate(20,263)"/>
<path d="M0 0 C155.76 0 311.52 0 472 0 C472 16.83 472 33.66 472 51 C466.93062717 55.05549826 465.16008701 55.5803882 459.1835022 55.50336456 C458.39920232 55.50917833 457.61490243 55.51499209 456.80683589 55.52098203 C454.16860262 55.53562479 451.53129349 55.52167717 448.89306641 55.50793457 C446.98665197 55.5125418 445.08024109 55.51889351 443.17383766 55.52684355 C437.92716414 55.54358443 432.68078061 55.53526886 427.43410587 55.52289867 C421.77894663 55.51386997 416.1238382 55.52780707 410.46868896 55.53881836 C399.38710326 55.55663148 388.30562574 55.55275115 377.22403574 55.5411678 C368.22008785 55.53214473 359.21617035 55.53090459 350.21221924 55.53526306 C348.2920755 55.53618246 348.2920755 55.53618246 346.33314097 55.53712043 C343.73288329 55.5383993 341.13262561 55.53969615 338.53236794 55.5410108 C314.82930269 55.55209922 291.12630719 55.54058811 267.42325321 55.51964041 C245.77888195 55.50065755 224.13460481 55.50235605 202.49023438 55.52148438 C178.18024313 55.54289658 153.87031852 55.55132607 129.56031609 55.53903532 C126.96947099 55.53776109 124.37862588 55.5365036 121.78778076 55.53526306 C120.51294032 55.53464596 119.23809987 55.53402886 117.9246279 55.53339306 C108.92851921 55.52993522 99.93244386 55.53577784 90.93634033 55.54518127 C79.97735007 55.55638436 69.01847444 55.55339681 58.05949736 55.5320583 C52.46499284 55.52152515 46.87067967 55.51746463 41.27617645 55.53065491 C36.15894381 55.54253769 31.04208062 55.53608432 25.9248817 55.5147447 C24.0696419 55.51026115 22.21437117 55.51258395 20.35915112 55.52224785 C17.84448453 55.53434621 15.33109673 55.52200448 12.8164978 55.50336456 C11.72653287 55.51741156 11.72653287 55.51741156 10.61454844 55.53174233 C5.2477767 55.45179035 4.60898542 54.68718834 0 51 C0 34.17 0 17.34 0 0 Z " fill="#F0B382" transform="translate(20,437)"/>
<path d="M0 0 C58.41 0 116.82 0 177 0 C179.31 4.95 181.62 9.9 184 15 C192.14460109 30.07704582 203.05805547 49.35532484 219 57 C219.65097656 57.31710937 220.30195313 57.63421875 220.97265625 57.9609375 C229.79762369 61.55690554 241.12310451 61.54117957 249.953125 57.97265625 C250.62859375 57.65167969 251.3040625 57.33070313 252 57 C253.13695312 56.47212891 253.13695312 56.47212891 254.296875 55.93359375 C274.28939742 45.76961004 286.13370835 18.99919639 295 0 C353.41 0 411.82 0 472 0 C472 26.07 472 52.14 472 79 C460.12 79 448.24 79 436 79 C433.69 74.05 431.38 69.1 429 64 C427.45887663 61.08979691 425.93032131 58.25787189 424.25 55.4375 C423.62992065 54.38997559 423.62992065 54.38997559 422.99731445 53.32128906 C413.94547622 38.39565563 402.81213641 23.48519431 385.36328125 18.6953125 C374.91467051 16.53520482 364.97361227 17.86351545 355.71484375 23.35546875 C348.27506151 28.70236427 342.31829692 35.44802581 337.125 42.9375 C336.61251709 43.6711377 336.10003418 44.40477539 335.57202148 45.16064453 C328.16065151 55.94018965 322.4215182 67.07265996 317 79 C263.54 79 210.08 79 155 79 C152.69 74.05 150.38 69.1 148 64 C138.86714602 47.0935295 126.75530238 26.16454291 107.75 19.6875 C95.71498058 16.32154137 85.42259419 17.81831821 74.22265625 23.37890625 C58.17247758 33.53694884 46.2978559 55.63833623 38.97265625 72.73046875 C38.06157781 74.85631844 37.03434045 76.9313191 36 79 C24.12 79 12.24 79 0 79 C0 52.93 0 26.86 0 0 Z " fill="#F7F2F2" transform="translate(20,338)"/>
<path d="M0 0 C0.93328125 0.33 1.8665625 0.66 2.828125 1 C20.40422801 7.71248155 29.76297154 21.78144643 40.26806641 36.56982422 C42.55927637 39.78475289 44.87505607 42.98153586 47.19262695 46.17749023 C48.83924253 48.45063695 50.47887696 50.72867562 52.1171875 53.0078125 C53.78950952 55.33258939 55.47780678 57.63764251 57.1953125 59.9296875 C66.91651128 73.10170143 69.53998109 86.95631774 68 103 C64.73933385 116.74539439 56.08728266 128.76888592 44.125 136.25 C22.19324079 148.52647641 -3.42249558 149.36826823 -27.96459961 149.31567383 C-31.09067382 149.31247114 -34.21583579 149.33623859 -37.34179688 149.36132812 C-39.36458216 149.36359812 -41.38736995 149.36430601 -43.41015625 149.36328125 C-44.32700699 149.372491 -45.24385773 149.38170074 -46.18849182 149.39118958 C-54.51797855 149.33215785 -62.21272038 147.56101583 -69.3125 143.0625 C-70.09238281 142.57910156 -70.87226563 142.09570312 -71.67578125 141.59765625 C-80.54565997 135.50054634 -87.08916328 126.2757101 -89.54296875 115.6484375 C-91.79795217 102.58109766 -87.98884902 91.32031116 -84 79 C-83.70561035 78.06800781 -83.4112207 77.13601562 -83.10791016 76.17578125 C-74.86068318 50.24953925 -63.2812683 19.09895323 -39 4 C-26.81127662 -1.92507387 -13.15379347 -4.89443478 0 0 Z " fill="#F45B7F" transform="translate(294,39)"/>
<path d="M0 0 C12.03882666 7.10608227 22.46054578 25.25293126 27.9375 37.75 C27.9375 38.74 27.9375 39.73 27.9375 40.75 C3.1875 40.75 -21.5625 40.75 -47.0625 40.75 C-44.95285927 30.20179634 -37.87629729 21.16595409 -31.5 12.6875 C-30.97051758 11.97368164 -30.44103516 11.25986328 -29.89550781 10.52441406 C-22.49761453 0.92308671 -12.21315391 -4.96003598 0 0 Z " fill="#F35A7F" transform="translate(125.0625,376.25)"/>
<path d="M0 0 C12.13954706 7.11628621 24.3292117 27.2376351 28.75 40.5 C3.67 40.5 -21.41 40.5 -47.25 40.5 C-46.28961385 35.69806923 -44.75629619 32.50735232 -42.25 28.4375 C-41.85135742 27.78209229 -41.45271484 27.12668457 -41.04199219 26.45141602 C-37.15510123 20.16456042 -32.82044848 14.30958776 -28.25 8.5 C-27.78980469 7.86191406 -27.32960938 7.22382813 -26.85546875 6.56640625 C-20.51237658 -1.94055014 -9.65888009 -4.19300221 0 0 Z " fill="#F25A7F" transform="translate(406.25,376.5)"/>
<path d="M0 0 C25.08 0 50.16 0 76 0 C60.21621622 31.56756757 60.21621622 31.56756757 46.625 40.125 C40.17170955 41.6826908 33.78716269 42.46147149 27.8125 39.0625 C14.750579 29.53154545 6.99980897 13.99961794 0 0 Z " fill="#F55B80" transform="translate(218,338)"/>
<path d="M0 0 C5.83048783 5.18265585 8.4610437 10.75271605 10.4375 18.25 C11.38973934 21.57771813 11.96480562 22.96004962 14.3125 25.625 C17.59095674 27.30234996 19.35712661 27.52041048 23 27 C23.9075 26.505 24.815 26.01 25.75 25.5 C30.96029276 23.09524949 36.57530023 23.19176674 42 25 C42.4973628 30.96835357 41.29024415 34.97570826 38 40 C37.2575 40.639375 36.515 41.27875 35.75 41.9375 C33.30002328 44.82497257 33.37465292 47.1155442 33.55078125 50.8203125 C34.28661989 54.39072953 36.16329954 55.84164096 39 58 C39.94875 58.61875 40.8975 59.2375 41.875 59.875 C46.06961112 62.72733556 51.12000922 66.20762703 52.69921875 71.21875 C52.84810547 72.10046875 52.84810547 72.10046875 53 73 C48.1520873 75.42395635 41.51358656 74.52832177 36.5 72.875 C30.35386151 69.78044076 27.06137692 63.65738127 23.39501953 58.08300781 C21.44318147 55.16857269 19.38767351 52.33492698 17.32397461 49.49902344 C16.22870255 47.99378008 15.13970295 46.48395351 14.05688477 44.96972656 C11.21439243 40.99923439 8.31334869 37.10154122 5.28125 33.2734375 C-5.76058736 19.13622671 -5.76058736 19.13622671 -4.72265625 10.5703125 C-3.6178414 6.64075481 -2.14210517 3.4809209 0 0 Z " fill="#A1E972" transform="translate(338,23)"/>
<path d="M0 0 C3.86879336 1.54751735 5.71939641 2.82383731 8.125 6.25 C8.77189636 9.05889208 8.88966558 11.46556258 8.125 14.25 C4.30520902 19.8833156 -0.87715915 23.20428791 -6.875 26.25 C-11.18665573 27.01497118 -12.88143852 26.74678074 -16.75 24.8125 C-19.35027986 21.6768684 -19.91996887 19.5076351 -20.1171875 15.484375 C-19.80632164 12.61638672 -18.77361747 10.76818213 -16.7265625 8.73828125 C-6.36630075 0.41072908 -6.36630075 0.41072908 0 0 Z " fill="#120F11" transform="translate(264.875,92.75)"/>
<path d="M0 0 C3.22694574 1.29472161 4.39736022 2.66220077 5.91796875 5.76953125 C6.50993268 8.58705187 6.56635216 10.95795717 5.91796875 13.76953125 C2.26335051 18.56621769 -3.63936662 23.04819893 -9.08203125 25.76953125 C-12.39453125 26.14453125 -12.39453125 26.14453125 -16.08203125 25.76953125 C-19.65716277 22.81616173 -21.82567459 20.64948006 -22.45703125 16.01953125 C-21.83487783 10.62753496 -18.7134334 8.20198191 -14.83984375 4.80078125 C-9.93967678 0.9539212 -6.3019887 -1.37193736 0 0 Z " fill="#120F11" transform="translate(285.08203125,50.23046875)"/>
<path d="M0 0 C3.38031589 1.18767855 3.93216817 1.89825225 6 5 C6.5457383 8.06762372 6.50668532 10.92719868 6 14 C4.125 16.625 4.125 16.625 1 19 C0.22527344 19.61230469 -0.54945313 20.22460938 -1.34765625 20.85546875 C-9.09545616 26.71014108 -9.09545616 26.71014108 -15 26 C-17.98824051 24.35866035 -20.46183418 22.07633164 -22 19 C-22.48590727 16.01514104 -22.5400379 13.91723994 -20.9765625 11.26171875 C-15.71219784 4.70307659 -8.82751384 -1.38470805 0 0 Z " fill="#120F11" transform="translate(342,129)"/>
<path d="M0 0 C2.8100346 1.79363911 4.50940468 3.01880935 6 6 C6.47167368 10.15072839 6.07153062 13.01049631 3.51953125 16.41015625 C-0.96203698 21.09909781 -6.13518268 25.3703532 -12.8125 25.75 C-16.03961755 25.4467425 -17.20643054 24.86940109 -20.0625 23.0625 C-22.26713659 19.57775184 -22.96551257 17.43643634 -22.75390625 13.34765625 C-20.02007229 4.83452562 -8.61975699 -1.61946949 0 0 Z " fill="#120F11" transform="translate(296,133)"/>
<path d="M0 0 C3.0432531 1.9874306 4.62073803 3.32041127 5.4375 6.9375 C5.64508616 10.36267156 5.25671105 12.52158395 3.625 15.5625 C-6.91672442 25.35124411 -6.91672442 25.35124411 -13.8125 25.8125 C-17.41475543 25.49315111 -18.1040352 24.91295013 -21.0625 22.4375 C-23.32738586 18.41915413 -23.80968831 16.53425456 -23 12 C-18.109963 4.27058667 -9.52775573 -2.41418956 0 0 Z " fill="#110F10" transform="translate(250,137)"/>
<path d="M0 0 C2.62847554 1.76648125 3.35069618 3.12701916 5 6 C5.77064538 10.72020295 4.68876796 13.15806241 2 17 C-0.41015625 18.984375 -0.41015625 18.984375 -3.0625 20.75 C-3.94035156 21.34296875 -4.81820313 21.9359375 -5.72265625 22.546875 C-9.76997875 25.1293861 -13.23371328 25.77463551 -18 25 C-21.108234 22.99259888 -22.544009 21.518046 -23.6171875 17.9453125 C-23.92029308 15.29084244 -23.81998352 13.55342018 -23 11 C-17.26959492 4.00963271 -9.36919669 -2.08392621 0 0 Z " fill="#110F10" transform="translate(315,90)"/>
</svg>
