<?xml version="1.0" encoding="UTF-8"?>
<svg version="1.1" xmlns="http://www.w3.org/2000/svg" width="512" height="512">
<path d="M0 0 C0.7850248 -0.00235223 1.5700496 -0.00470446 2.37886304 -0.00712797 C5.02533682 -0.01381704 7.6717615 -0.01335977 10.31824303 -0.01294994 C12.22847645 -0.01624862 14.13870918 -0.0199742 16.04894102 -0.02409142 C21.31092878 -0.03411903 26.57290513 -0.03782944 31.83490109 -0.04048073 C37.50515494 -0.04438151 43.17539974 -0.05395998 48.84564781 -0.0626936 C62.54529589 -0.08246402 76.24494472 -0.09252478 89.9446035 -0.10142139 C96.39368842 -0.10580318 102.8427725 -0.11117026 109.29185677 -0.11641026 C130.7258859 -0.13342282 152.15991371 -0.14794245 173.59394836 -0.155159 C174.98012565 -0.15563375 176.36630294 -0.15610964 177.75248023 -0.15658666 C178.43989776 -0.15682303 179.12731528 -0.15705941 179.83556364 -0.15730295 C183.31834602 -0.15850414 186.80112839 -0.1597196 190.28391075 -0.16094494 C191.32066256 -0.16130516 191.32066256 -0.16130516 192.37835885 -0.16167267 C214.78659379 -0.16956522 237.19477579 -0.19299619 259.6029876 -0.22550088 C283.29525854 -0.25980543 306.98748912 -0.27950957 330.67978704 -0.28280324 C343.59433638 -0.28496969 356.50880791 -0.2937382 369.42333412 -0.31926441 C380.42061666 -0.34095071 391.41780249 -0.34903198 402.41510399 -0.33929763 C408.0264346 -0.33474702 413.63756559 -0.33668361 419.24886894 -0.35605907 C424.38735436 -0.37364877 429.52549391 -0.37272694 434.66398279 -0.35716178 C436.52136818 -0.35477936 438.37877725 -0.35914208 440.23612638 -0.37099043 C452.89608334 -0.44673809 463.01745018 0.27864839 472.60178185 9.34125233 C480.11919015 17.32849866 480.58426428 25.03549005 480.55670738 35.48805714 C480.5612385 36.74456772 480.56576961 38.0010783 480.57043803 39.29566497 C480.58265561 42.7764446 480.58240904 46.25712804 480.58004928 49.73792422 C480.5796408 53.49468724 480.59068323 57.25141955 480.60016441 61.00816822 C480.61676849 68.36577094 480.62227369 75.72334161 480.62338917 83.0809615 C480.62433991 89.06234428 480.62845151 95.0437165 480.63479042 101.02509594 C480.6524011 117.98802019 480.66162955 134.95091915 480.66012947 151.91385261 C480.6600096 153.28520917 480.6600096 153.28520917 480.65988731 154.68426991 C480.65980555 155.59962545 480.65972379 156.514981 480.65963955 157.45807459 C480.65882667 172.29233491 480.67796538 187.12649368 480.70616405 201.96072463 C480.73489801 217.19692248 480.74870406 232.43307081 480.74697649 247.66929644 C480.74631278 256.22147389 480.75179708 264.77354488 480.7733326 273.3256979 C480.79155113 280.60720705 480.79588623 287.88856148 480.78231375 295.17008356 C480.77578748 298.8836622 480.77565424 302.59694408 480.79302025 306.31049442 C480.81167133 310.34036512 480.79918773 314.36954989 480.78375816 318.39943409 C480.79404529 319.56753787 480.80433242 320.73564166 480.81493127 321.93914253 C480.7308416 331.87808317 478.05700874 339.03385755 471.28928185 346.34125233 C464.39601945 352.52095436 457.61209992 354.2867752 448.57856369 354.26844215 C447.79353889 354.27079438 447.00851409 354.27314661 446.19970065 354.27557012 C443.55322687 354.2822592 440.90680219 354.28180193 438.26032066 354.2813921 C436.35008724 354.28469078 434.43985451 354.28841635 432.52962267 354.29253358 C427.26763491 354.30256119 422.00565856 354.30627159 416.7436626 354.30892289 C411.07340875 354.31282366 405.40316395 354.32240213 399.73291588 354.33113575 C386.0332678 354.35090618 372.33361897 354.36096693 358.63396019 354.36986354 C352.18487527 354.37424534 345.73579119 354.37961241 339.28670692 354.38485241 C317.85267779 354.40186497 296.41864998 354.4163846 274.98461533 354.42360115 C273.59843804 354.42407591 272.21226075 354.4245518 270.82608346 354.42502881 C270.13866593 354.42526519 269.45124841 354.42550156 268.74300005 354.4257451 C265.26021767 354.4269463 261.7774353 354.42816175 258.29465294 354.42938709 C257.25790113 354.42974732 257.25790113 354.42974732 256.20020484 354.43011482 C233.7919699 354.43800737 211.38378791 354.46143835 188.97557609 354.49394304 C165.28330515 354.52824759 141.59107457 354.54795173 117.89877665 354.55124539 C104.98422731 354.55341184 92.06975578 354.56218036 79.15522957 354.58770657 C68.15794703 354.60939286 57.1607612 354.61747413 46.1634597 354.60773978 C40.55212909 354.60318917 34.9409981 354.60512576 29.32969475 354.62450123 C24.19120933 354.64209092 19.05306978 354.6411691 13.9145809 354.62560394 C12.05719551 354.62322151 10.19978644 354.62758423 8.34243731 354.63943259 C-4.31751965 354.71518024 -14.43888649 353.98979376 -24.02321815 344.92718983 C-31.54062646 336.9399435 -32.00570059 329.2329521 -31.97814369 318.78038502 C-31.9826748 317.52387443 -31.98720592 316.26736385 -31.99187434 314.97277719 C-32.00409192 311.49199755 -32.00384535 308.01131412 -32.00148559 304.53051794 C-32.00107711 300.77375491 -32.01211954 297.01702261 -32.02160072 293.26027393 C-32.0382048 285.90267121 -32.04371 278.54510054 -32.04482548 271.18748065 C-32.04577622 265.20609787 -32.04988782 259.22472565 -32.05622673 253.24334621 C-32.07383741 236.28042196 -32.08306586 219.317523 -32.08156578 202.35458954 C-32.08148587 201.44035184 -32.08140596 200.52611413 -32.08132362 199.58417225 C-32.08124186 198.6688167 -32.0811601 197.75346116 -32.08107586 196.81036756 C-32.08026298 181.97610725 -32.09940169 167.14194847 -32.12760036 152.30771752 C-32.15633432 137.07151968 -32.17014037 121.83537134 -32.1684128 106.59914571 C-32.16774909 98.04696827 -32.17323339 89.49489728 -32.19476891 80.94274426 C-32.21298744 73.66123511 -32.21732254 66.37988067 -32.20375006 59.09835859 C-32.19722379 55.38477995 -32.19709055 51.67149807 -32.21445656 47.95794773 C-32.23310764 43.92807704 -32.22062404 39.89889226 -32.20519447 35.86900806 C-32.2154816 34.70090428 -32.22576873 33.5328005 -32.23636758 32.32929963 C-32.15227791 22.39035898 -29.47844505 15.2345846 -22.71071815 7.92718983 C-15.81745576 1.7474878 -9.03353623 -0.01833305 0 0 Z " fill="#306FC5" transform="translate(31.710718154907227,78.86577892303467)"/>
<path d="M0 0 C1.29349365 0.00523682 2.5869873 0.01047363 3.91967773 0.01586914 C4.9496714 0.01799156 4.9496714 0.01799156 6.00047302 0.02015686 C8.20144949 0.0257706 10.40232557 0.03832532 12.60327148 0.05102539 C14.09220231 0.05603863 15.58113473 0.06060184 17.07006836 0.06469727 C20.72700223 0.07574446 24.38387707 0.09301826 28.04077148 0.11352539 C28.70077148 1.76352539 29.36077148 3.41352539 30.04077148 5.11352539 C30.37077148 3.46352539 30.70077148 1.81352539 31.04077148 0.11352539 C42.92077148 0.11352539 54.80077148 0.11352539 67.04077148 0.11352539 C73.04077148 14.11352539 73.04077148 14.11352539 73.04077148 16.11352539 C73.70077148 16.11352539 74.36077148 16.11352539 75.04077148 16.11352539 C75.21092773 15.54504883 75.38108398 14.97657227 75.55639648 14.39086914 C75.91991211 13.23264648 75.91991211 13.23264648 76.29077148 12.05102539 C76.52280273 11.29692383 76.75483398 10.54282227 76.99389648 9.76586914 C78.35207843 6.32480368 80.18374631 3.31410499 82.04077148 0.11352539 C97.02708866 0.04333783 112.01339305 -0.00951043 126.99983978 -0.04191113 C133.95885219 -0.05735751 140.91776227 -0.07840414 147.87670898 -0.11279297 C154.59403386 -0.14597186 161.31123054 -0.1633345 168.02864075 -0.17110634 C170.5898455 -0.17664407 173.15104452 -0.18745787 175.71220398 -0.20366478 C179.30297352 -0.2254808 182.89330557 -0.2284397 186.48413086 -0.22705078 C187.54005432 -0.23783661 188.59597778 -0.24862244 189.68389893 -0.25973511 C195.84767009 -0.23398198 200.40905178 0.57281776 206.04077148 3.11352539 C206.37077148 2.12352539 206.70077148 1.13352539 207.04077148 0.11352539 C217.27077148 0.11352539 227.50077148 0.11352539 238.04077148 0.11352539 C238.04077148 1.43352539 238.04077148 2.75352539 238.04077148 4.11352539 C238.9630957 3.80608398 238.9630957 3.80608398 239.90405273 3.49243164 C250.42024958 -0.01296731 250.42024958 -0.01296731 255.10717773 -0.0793457 C256.13834717 -0.09540863 257.1695166 -0.11147156 258.23193359 -0.12802124 C262.92764603 -0.17243991 267.62321874 -0.21349825 272.3190918 -0.23657227 C274.80030671 -0.25317446 277.28147299 -0.28051975 279.76245117 -0.31860352 C283.33464426 -0.37315892 286.90571888 -0.39521012 290.47827148 -0.40991211 C291.59081299 -0.43258148 292.70335449 -0.45525085 293.84960938 -0.47860718 C296.67226979 -0.47080566 299.27298836 -0.44073198 302.04077148 0.11352539 C304.26342773 2.64624023 304.26342773 2.64624023 305.04077148 5.11352539 C305.37077148 3.46352539 305.70077148 1.81352539 306.04077148 0.11352539 C310.68544787 -0.01007404 315.32916775 -0.1008086 319.97509766 -0.16113281 C321.55534538 -0.18627791 323.13547678 -0.22039935 324.71533203 -0.26367188 C326.98686381 -0.32433169 329.25685892 -0.35268139 331.52905273 -0.37475586 C332.58857903 -0.4134655 332.58857903 -0.4134655 333.66950989 -0.45295715 C335.67089844 -0.45410156 335.67089844 -0.45410156 339.04077148 0.11352539 C341.01025391 2.64404297 341.01025391 2.64404297 342.04077148 5.11352539 C342.37077148 3.46352539 342.70077148 1.81352539 343.04077148 0.11352539 C353.27077148 0.11352539 363.50077148 0.11352539 374.04077148 0.11352539 C374.04077148 22.55352539 374.04077148 44.99352539 374.04077148 68.11352539 C363.15077148 68.11352539 352.26077148 68.11352539 341.04077148 68.11352539 C339.39077148 65.14352539 337.74077148 62.17352539 336.04077148 59.11352539 C335.71077148 62.08352539 335.38077148 65.05352539 335.04077148 68.11352539 C321.84077148 68.11352539 308.64077148 68.11352539 295.04077148 68.11352539 C293.06077148 63.16352539 293.06077148 63.16352539 291.04077148 58.11352539 C287.74077148 57.78352539 284.44077148 57.45352539 281.04077148 57.11352539 C280.73333008 58.17893555 280.73333008 58.17893555 280.41967773 59.26586914 C280.01555664 60.64452148 280.01555664 60.64452148 279.60327148 62.05102539 C279.20301758 63.42581055 279.20301758 63.42581055 278.79467773 64.82836914 C278.04077148 67.11352539 278.04077148 67.11352539 277.04077148 68.11352539 C272.7700831 68.38192424 268.49320379 68.3849725 264.21508789 68.40869141 C262.07687751 68.42573755 259.94028252 68.46957479 257.80249023 68.51391602 C250.09385769 68.59960512 243.73577866 68.22700289 237.04077148 64.11352539 C237.04077148 65.43352539 237.04077148 66.75352539 237.04077148 68.11352539 C220.87077148 68.11352539 204.70077148 68.11352539 188.04077148 68.11352539 C188.04077148 62.50352539 188.04077148 56.89352539 188.04077148 51.11352539 C187.05077148 51.11352539 186.06077148 51.11352539 185.04077148 51.11352539 C185.04077148 57.05352539 185.04077148 62.99352539 185.04077148 69.11352539 C153.03077148 69.11352539 121.02077148 69.11352539 88.04077148 69.11352539 C87.71077148 67.46352539 87.38077148 65.81352539 87.04077148 64.11352539 C86.38077148 65.76352539 85.72077148 67.41352539 85.04077148 69.11352539 C78.11077148 69.11352539 71.18077148 69.11352539 64.04077148 69.11352539 C63.38077148 67.46352539 62.72077148 65.81352539 62.04077148 64.11352539 C61.71077148 65.76352539 61.38077148 67.41352539 61.04077148 69.11352539 C47.51077148 69.11352539 33.98077148 69.11352539 20.04077148 69.11352539 C19.05077148 65.48352539 18.06077148 61.85352539 17.04077148 58.11352539 C13.74077148 58.11352539 10.44077148 58.11352539 7.04077148 58.11352539 C6.56639648 59.55727539 6.09202148 61.00102539 5.60327148 62.48852539 C4.84680132 64.7908259 4.12468334 66.94570168 3.04077148 69.11352539 C-8.83922852 69.11352539 -20.71922852 69.11352539 -32.95922852 69.11352539 C-30.70992641 62.36561907 -30.70992641 62.36561907 -29.33032227 59.32495117 C-29.0220752 58.6412999 -28.71382812 57.95764862 -28.39624023 57.25328064 C-28.06640137 56.52911453 -27.7365625 55.80494843 -27.39672852 55.05883789 C-26.6792137 53.46861742 -25.96176847 51.87836556 -25.24438477 50.28808594 C-24.87071777 49.46255219 -24.49705078 48.63701843 -24.11206055 47.78646851 C-18.11876901 34.54033595 -12.22299959 21.27425475 -6.74047852 7.80737305 C-6.37954102 6.92227051 -6.01860352 6.03716797 -5.64672852 5.12524414 C-5.3412207 4.36687256 -5.03571289 3.60850098 -4.72094727 2.82714844 C-3.45292349 -0.02549863 -3.34426376 0.12829656 0 0 Z " fill="#F9FAFD" transform="translate(69.959228515625,182.886474609375)"/>
<path d="M0 0 C1.18160706 0.00848969 1.18160706 0.00848969 2.38708496 0.01715088 C4.87329034 0.03932598 7.35798928 0.08948163 9.84375 0.140625 C11.54164567 0.16071461 13.23956421 0.17896104 14.9375 0.1953125 C19.07348639 0.2391281 23.2083639 0.30801895 27.34375 0.390625 C27.36356934 1.44975098 27.38338867 2.50887695 27.40380859 3.60009766 C27.48015694 7.547596 27.56882825 11.49473973 27.66113281 15.44189453 C27.69930219 17.14690119 27.73417566 18.85198506 27.765625 20.55712891 C27.81153836 23.01492826 27.86948769 25.47220152 27.9296875 27.9296875 C27.94701431 29.06442001 27.94701431 29.06442001 27.96469116 30.22207642 C28.08675694 34.64706906 28.78522235 38.25838547 30.34375 42.390625 C31.26099561 49.69659297 30.51847939 56.21574671 26.34375 62.390625 C22.20774089 66.90655979 17.70186905 71.01145632 11.35227966 71.56388855 C8.93415702 71.62174544 6.52410797 71.61533952 4.10546875 71.5859375 C2.78431816 71.58169266 2.78431816 71.58169266 1.43647766 71.57736206 C-1.36540545 71.56620333 -4.16696416 71.54110671 -6.96875 71.515625 C-8.87304225 71.50558963 -10.77733952 71.49646475 -12.68164062 71.48828125 C-17.33996797 71.46627809 -21.99805406 71.43177794 -26.65625 71.390625 C-26.65625 70.400625 -26.65625 69.410625 -26.65625 68.390625 C-27.76250732 68.87860062 -28.86876465 69.36657623 -30.00854492 69.86933899 C-35.0486684 71.74739055 -39.6899862 71.79272277 -45.01953125 71.73120117 C-46.52821022 71.73185829 -46.52821022 71.73185829 -48.06736755 71.73252869 C-51.3680308 71.73045067 -54.66817627 71.70716594 -57.96875 71.68359375 C-60.26659874 71.6779943 -62.56445108 71.67372585 -64.86230469 71.67073059 C-70.89245598 71.65930941 -76.92238842 71.62986553 -82.95245361 71.59661865 C-89.11280355 71.56585903 -95.27318905 71.55221267 -101.43359375 71.53710938 C-113.50790833 71.50499335 -125.58206092 71.45382989 -137.65625 71.390625 C-137.65625 65.450625 -137.65625 59.510625 -137.65625 53.390625 C-138.97625 53.390625 -140.29625 53.390625 -141.65625 53.390625 C-141.65625 59.330625 -141.65625 65.270625 -141.65625 71.390625 C-151.88625 71.390625 -162.11625 71.390625 -172.65625 71.390625 C-172.65625 65.450625 -172.65625 59.510625 -172.65625 53.390625 C-174.96625 54.050625 -177.27625 54.710625 -179.65625 55.390625 C-183.68174002 55.62825723 -187.61784444 55.48137569 -191.65625 55.390625 C-191.65625 60.670625 -191.65625 65.950625 -191.65625 71.390625 C-197.22448093 71.58914952 -202.79063168 71.73390306 -208.36157227 71.83007812 C-210.25419005 71.87018487 -212.14656187 71.92468788 -214.03833008 71.99414062 C-229.76012677 72.55666742 -229.76012677 72.55666742 -234.49560547 69.64453125 C-236.81882742 67.05497874 -238.65625 64.96142291 -238.65625 61.390625 C-239.92825971 62.49343627 -241.19880853 63.59793269 -242.46875 64.703125 C-243.17644531 65.31800781 -243.88414062 65.93289063 -244.61328125 66.56640625 C-246.62572981 68.25742637 -246.62572981 68.25742637 -247.91267395 69.98335266 C-250.45314086 72.03381029 -252.36311223 71.75120111 -255.59643555 71.73120117 C-256.83453979 71.73083862 -258.07264404 71.73047607 -259.3482666 71.73010254 C-260.65001831 71.71475464 -261.95177002 71.69940674 -263.29296875 71.68359375 C-264.4890979 71.68057251 -265.68522705 71.67755127 -266.91760254 71.67443848 C-271.39307258 71.65872216 -275.8684198 71.61683834 -280.34375 71.578125 C-295.3484375 71.4853125 -295.3484375 71.4853125 -310.65625 71.390625 C-310.65625 48.290625 -310.65625 25.190625 -310.65625 1.390625 C-295.31125 1.1121875 -295.31125 1.1121875 -279.65625 0.828125 C-274.83193359 0.70522095 -274.83193359 0.70522095 -269.91015625 0.57983398 C-267.3463885 0.5535361 -264.78258306 0.53060503 -262.21875 0.51171875 C-261.56205322 0.48819839 -260.90535645 0.46467804 -260.22875977 0.44044495 C-249.36977712 0.07135506 -249.36977712 0.07135506 -244.97607422 3.45413208 C-242.98619655 5.67730406 -241.26097928 7.87880517 -239.65625 10.390625 C-238.91375 9.648125 -238.17125 8.905625 -237.40625 8.140625 C-236.49875 7.233125 -235.59125 6.325625 -234.65625 5.390625 C-234.04505814 4.684254 -233.43386627 3.977883 -232.80415344 3.25010681 C-230.17640652 0.97521516 -228.97155395 0.88955404 -225.53979492 0.88891602 C-224.52161179 0.87953506 -223.50342865 0.87015411 -222.45439148 0.86048889 C-221.35955948 0.87172287 -220.26472748 0.88295685 -219.13671875 0.89453125 C-218.00478592 0.89307602 -216.87285309 0.89162079 -215.70661926 0.89012146 C-213.31179228 0.89178129 -210.91695472 0.90335182 -208.5222168 0.92407227 C-204.86786184 0.95293456 -201.21496591 0.94470004 -197.56054688 0.93164062 C-195.23176381 0.937881 -192.90298533 0.94627427 -190.57421875 0.95703125 C-189.48545944 0.95409561 -188.39670013 0.95115997 -187.27494812 0.94813538 C-181.29536842 1.02194143 -176.95478809 1.55800823 -171.65625 4.390625 C-171.65625 3.400625 -171.65625 2.410625 -171.65625 1.390625 C-165.21508383 1.31440398 -158.7740345 1.26195342 -152.33251953 1.22583008 C-150.14237115 1.21076694 -147.95225281 1.19031241 -145.76220703 1.16430664 C-142.60962497 1.12781511 -139.45744263 1.11087361 -136.3046875 1.09765625 C-135.32946136 1.08217239 -134.35423523 1.06668854 -133.34945679 1.05073547 C-127.99657258 1.04941779 -124.31701375 1.43243893 -119.65625 4.390625 C-119.32625 3.400625 -118.99625 2.410625 -118.65625 1.390625 C-100.17625 1.390625 -81.69625 1.390625 -62.65625 1.390625 C-62.65625 2.380625 -62.65625 3.370625 -62.65625 4.390625 C-61.85880371 3.90166748 -61.06135742 3.41270996 -60.23974609 2.90893555 C-55.7362421 1.00082195 -52.14864307 1.00907492 -47.3203125 1.09765625 C-46.44096039 1.10190109 -45.56160828 1.10614594 -44.65560913 1.11051941 C-41.86383658 1.12723039 -39.07280212 1.16486808 -36.28125 1.203125 C-34.38152089 1.21818166 -32.48178039 1.23186834 -30.58203125 1.24414062 C-25.93982242 1.27710902 -21.29816109 1.32883847 -16.65625 1.390625 C-16.65625 2.380625 -16.65625 3.370625 -16.65625 4.390625 C-15.51478516 3.73868164 -14.37332031 3.08673828 -13.19726562 2.41503906 C-8.6714261 0.16106463 -4.98917396 -0.13804198 0 0 Z " fill="#FBFCFD" transform="translate(444.65625,263.609375)"/>
<path d="M0 0 C1.60488281 0.00483398 1.60488281 0.00483398 3.2421875 0.00976562 C4.35335937 0.01814453 5.46453125 0.02652344 6.609375 0.03515625 C8.29933594 0.04192383 8.29933594 0.04192383 10.0234375 0.04882812 C12.80213717 0.06060228 15.58072909 0.07704785 18.359375 0.09765625 C16.1093848 1.23619825 13.86652748 2.31319124 11.5546875 3.32421875 C2.9769679 7.23111903 -1.27139442 10.95628337 -5.19036961 19.46069527 C-7.26132536 25.09125623 -7.05903896 30.67479818 -7.02830505 36.60934448 C-7.03369059 37.85869125 -7.03907613 39.10803801 -7.04462487 40.39524376 C-7.05903743 43.84681996 -7.054848 47.29815653 -7.04745805 50.74974561 C-7.04271822 54.47855173 -7.05524345 58.20730661 -7.06547546 61.93609619 C-7.08265313 69.23495729 -7.08350559 76.53373226 -7.07826256 83.83260833 C-7.07421754 89.76674211 -7.07566836 95.70085049 -7.08101082 101.63498306 C-7.08213345 102.90291715 -7.08213345 102.90291715 -7.08327876 104.19646607 C-7.08481028 105.91379849 -7.08634863 107.6311309 -7.08789373 109.34846331 C-7.10161515 125.4458647 -7.0961837 141.54321747 -7.08470852 157.64061774 C-7.07477751 172.35768261 -7.08771514 187.07462173 -7.11164271 201.79166721 C-7.1360431 216.91380779 -7.14563921 232.03588983 -7.13898998 247.1580497 C-7.13549972 255.64371213 -7.13771701 264.12927787 -7.15524101 272.61492538 C-7.16997479 279.83890763 -7.17058317 287.06272511 -7.1531701 294.28670417 C-7.14466715 297.97003648 -7.14249295 301.6530746 -7.15782166 305.33639145 C-7.17425669 309.33516548 -7.15950019 313.33323203 -7.14183044 317.33200073 C-7.15143545 318.48804554 -7.16104046 319.64409034 -7.17093652 320.83516681 C-7.09245437 329.47879109 -5.40353383 338.07550559 0.6015625 344.72265625 C3.94094705 347.33479705 7.78748049 349.02440842 11.6171875 350.80078125 C14.359375 352.09765625 14.359375 352.09765625 17.359375 354.09765625 C13.73465643 354.21548906 10.11044097 354.28544433 6.484375 354.34765625 C5.47117188 354.38117188 4.45796875 354.4146875 3.4140625 354.44921875 C-6.80302423 354.58020704 -14.50033753 351.93771638 -21.953125 344.890625 C-29.47053331 336.90337867 -29.93560744 329.19638728 -29.90805054 318.74382019 C-29.91258165 317.48730961 -29.91711276 316.23079902 -29.92178118 314.93621236 C-29.93399877 311.45543272 -29.93375219 307.97474929 -29.93139243 304.49395311 C-29.93098395 300.73719009 -29.94202638 296.98045778 -29.95150757 293.22370911 C-29.96811165 285.86610639 -29.97361684 278.50853571 -29.97473232 271.15091582 C-29.97568307 265.16953304 -29.97979466 259.18816083 -29.98613358 253.20678139 C-30.00374426 236.24385713 -30.0129727 219.28095818 -30.01147263 202.31802472 C-30.01139272 201.40378701 -30.0113128 200.4895493 -30.01123047 199.54760742 C-30.01114871 198.63225188 -30.01106695 197.71689633 -30.01098271 196.77380273 C-30.01016982 181.93954242 -30.02930853 167.10538364 -30.0575072 152.2711527 C-30.08624117 137.03495485 -30.10004722 121.79880651 -30.09831965 106.56258088 C-30.09765593 98.01040344 -30.10314024 89.45833245 -30.12467575 80.90617943 C-30.14289428 73.62467028 -30.14722939 66.34331585 -30.1336569 59.06179377 C-30.12713063 55.34821513 -30.12699739 51.63493324 -30.1443634 47.9213829 C-30.16301448 43.89151221 -30.15053089 39.86232743 -30.13510132 35.83244324 C-30.14538844 34.66433945 -30.15567557 33.49623567 -30.16627443 32.2927348 C-30.08218475 22.35379415 -27.4083519 15.19801978 -20.640625 7.890625 C-14.52605343 2.40900713 -8.12276406 -0.04320619 0 0 Z " fill="#2D63AD" transform="translate(29.640625,78.90234375)"/>
<path d="M0 0 C7.3425 -0.268125 14.685 -0.53625 22.25 -0.8125 C24.54227539 -0.93085205 26.83455078 -1.0492041 29.19628906 -1.17114258 C44.70213409 -1.63078001 44.70213409 -1.63078001 50.02148438 2.88134766 C52.19830219 5.10095222 54.03458273 7.44820908 55.81933594 9.98950195 C57.83633593 12.7740549 58.82403877 13.90080401 62 15 C63.79419526 13.06478939 65.58541329 11.1269646 67.375 9.1875 C68.13683594 8.36668945 68.13683594 8.36668945 68.9140625 7.52929688 C71.15216303 5.09977985 73.16379112 2.75431332 75 0 C76.81239319 -0.38768005 76.81239319 -0.38768005 79.03149414 -0.40405273 C79.86318619 -0.41673691 80.69487823 -0.42942108 81.55177307 -0.44248962 C82.45378952 -0.43955399 83.35580597 -0.43661835 84.28515625 -0.43359375 C85.21541122 -0.4388356 86.1456662 -0.44407745 87.10411072 -0.44947815 C89.07875572 -0.45591251 91.05343898 -0.45454316 93.02807617 -0.44604492 C96.02659192 -0.43760112 99.0231603 -0.46616821 102.02148438 -0.49804688 C103.94270777 -0.4996608 105.8639345 -0.4990777 107.78515625 -0.49609375 C108.67300308 -0.50732773 109.56084991 -0.51856171 110.4756012 -0.53013611 C117.81795869 -0.44945943 123.74084544 1.45626961 129.5625 6 C132.15159253 11.40332355 132.19691447 17.56563738 130.22265625 23.23046875 C128.13687575 26.71171806 125.64118439 28.50213602 121.875 29.9375 C113.84904495 31.94398876 105.17381364 31.1726862 97 31 C97 36.94 97 42.88 97 49 C75.62072003 50.94193628 75.62072003 50.94193628 70.12890625 46.43359375 C67.33638303 43.55884599 65.17452536 40.35613728 63 37 C62.0196396 35.98073876 61.02349635 34.97593813 60 34 C57.85111324 36.12198832 55.70581417 38.24739599 53.5625 40.375 C52.95083984 40.97828125 52.33917969 41.5815625 51.70898438 42.203125 C51.12568359 42.78320312 50.54238281 43.36328125 49.94140625 43.9609375 C49.13231812 44.76217041 49.13231812 44.76217041 48.30688477 45.57958984 C46.89153023 46.98652388 46.89153023 46.98652388 46 49 C30.82 49 15.64 49 0 49 C0 32.83 0 16.66 0 0 Z " fill="#3673C6" transform="translate(145,276)"/>
<path d="M0 0 C0.92683594 0.01353516 1.85367187 0.02707031 2.80859375 0.04101562 C5.08098208 0.07615565 7.35306862 0.12995577 9.625 0.1875 C9.625 3.4875 9.625 6.7875 9.625 10.1875 C8.10519531 10.26097656 8.10519531 10.26097656 6.5546875 10.3359375 C5.20310089 10.41102564 3.85153962 10.48657081 2.5 10.5625 C1.83484375 10.5934375 1.1696875 10.624375 0.484375 10.65625 C-3.76541969 10.90623792 -7.45526348 11.49917975 -11.375 13.1875 C-14.26923713 18.44974932 -14.34740654 25.55762628 -12.8046875 31.31640625 C-11.45566863 34.71735382 -10.46512365 36.12741757 -7.375 38.1875 C-4.86603314 38.64351261 -4.86603314 38.64351261 -2.1875 38.8125 C-1.28644531 38.88726562 -0.38539063 38.96203125 0.54296875 39.0390625 C1.23003906 39.08804688 1.91710937 39.13703125 2.625 39.1875 C2.99238281 38.01316406 3.35976563 36.83882812 3.73828125 35.62890625 C6.06401359 28.65170922 8.97508822 21.90506064 11.8125 15.125 C12.37724291 13.76900086 12.94169828 12.41288193 13.50585938 11.05664062 C14.87507168 7.76530357 16.25014066 4.47650459 17.625 1.1875 C23.895 1.1875 30.165 1.1875 36.625 1.1875 C39.02907999 6.97104696 41.43179892 12.7551567 43.83325195 18.53979492 C44.650585 20.50804976 45.46829136 22.47614962 46.28637695 24.4440918 C47.4614293 27.27091572 48.63514296 30.09829219 49.80859375 32.92578125 C50.35863319 34.24779289 50.35863319 34.24779289 50.91978455 35.59651184 C51.43020042 36.8274482 51.43020042 36.8274482 51.95092773 38.08325195 C52.40060158 39.16580009 52.40060158 39.16580009 52.85935974 40.2702179 C53.50523177 41.88758176 54.07427171 43.53531512 54.625 45.1875 C54.955 30.6675 55.285 16.1475 55.625 1.1875 C61.565 1.1875 67.505 1.1875 73.625 1.1875 C74.67300781 3.00636719 75.72101563 4.82523438 76.80078125 6.69921875 C77.82338058 8.4732869 78.84613135 10.24726767 79.86889648 12.02124023 C80.57608596 13.24803706 81.28311957 14.47492375 81.98999023 15.7019043 C83.00983736 17.47208291 84.03025657 19.24193069 85.05078125 21.01171875 C85.66348877 22.07479248 86.27619629 23.13786621 86.9074707 24.2331543 C88.45681629 26.8982049 90.03897001 29.54411669 91.625 32.1875 C91.955 21.6275 92.285 11.0675 92.625 0.1875 C96.585 0.1875 100.545 0.1875 104.625 0.1875 C104.625 16.3575 104.625 32.5275 104.625 49.1875 C99.675 49.1875 94.725 49.1875 89.625 49.1875 C84.39758107 42.77519945 84.39758107 42.77519945 82.8984375 39.6328125 C80.76994434 35.38168979 78.35735802 31.34687226 75.87744141 27.29248047 C73.43071115 23.27515607 71.03284473 19.22825092 68.625 15.1875 C68.295 26.4075 67.965 37.6275 67.625 49.1875 C59.375 49.1875 51.125 49.1875 42.625 49.1875 C41.635 45.5575 40.645 41.9275 39.625 38.1875 C31.375 38.1875 23.125 38.1875 14.625 38.1875 C13.635 41.4875 12.645 44.7875 11.625 48.1875 C9.28895602 50.52354398 3.69385419 49.46837016 0.5625 49.5 C-0.83258789 49.54350586 -0.83258789 49.54350586 -2.25585938 49.58789062 C-9.72518857 49.65612765 -15.25306186 48.22506144 -20.6875 42.9375 C-25.81195003 34.58654439 -26.31248392 26.88525037 -25.375 17.1875 C-23.56318252 10.22271777 -19.92888292 5.47765747 -13.859375 1.56640625 C-9.14569787 -0.29898392 -5.01372555 -0.13946883 0 0 Z " fill="#3572C6" transform="translate(329.375,192.8125)"/>
<path d="M0 0 C5.94 0 11.88 0 18 0 C20.40407999 5.78354696 22.80679892 11.5676567 25.20825195 17.35229492 C26.025585 19.32054976 26.84329136 21.28864962 27.66137695 23.2565918 C28.8364293 26.08341572 30.01014296 28.91079219 31.18359375 31.73828125 C31.55028671 32.61962234 31.91697968 33.50096344 32.29478455 34.40901184 C32.6350618 35.22963608 32.97533905 36.05026031 33.32592773 36.89575195 C33.6257103 37.61745071 33.92549286 38.33914948 34.23435974 39.0827179 C34.88023177 40.70008176 35.44927171 42.34781512 36 44 C36.33 29.48 36.66 14.96 37 0 C42.94 0 48.88 0 55 0 C60.17529012 10.25978569 65.19995523 20.55990263 70 31 C72.65966806 27.79064445 74.15185183 24.56244013 75.69921875 20.703125 C76.42915039 18.89521484 76.42915039 18.89521484 77.17382812 17.05078125 C77.67851445 15.78390556 78.18307011 14.51697781 78.6875 13.25 C79.20323163 11.9672289 79.71950212 10.68467431 80.23632812 9.40234375 C81.49618755 6.27035677 82.74879263 3.13545345 84 0 C90.6 0 97.2 0 104 0 C104 16.17 104 32.34 104 49 C100.04 49 96.08 49 92 49 C91.505 31.675 91.505 31.675 91 14 C88.89625 18.846875 86.7925 23.69375 84.625 28.6875 C83.9645166 30.20819092 83.3040332 31.72888184 82.62353516 33.2956543 C81.83922119 35.1041687 81.83922119 35.1041687 81.0390625 36.94921875 C80.76860107 37.57139282 80.49813965 38.19356689 80.21948242 38.83459473 C78.75865072 42.2054873 77.36495039 45.58762403 76 49 C72.37 49 68.74 49 65 49 C60.05 37.78 55.1 26.56 50 15 C49.67 26.22 49.34 37.44 49 49 C41.08 49 33.16 49 25 49 C23.35 45.7 21.7 42.4 20 39 C12.08 38.67 4.16 38.34 -4 38 C-4.66 39.98 -5.32 41.96 -6 44 C-6.99 46.475 -6.99 46.475 -8 49 C-11.96 49 -15.92 49 -20 49 C-19.392008 43.88768005 -17.80299597 39.70509446 -15.76171875 35.0390625 C-15.2786602 33.91496475 -15.2786602 33.91496475 -14.7858429 32.76815796 C-14.10554343 31.18849398 -13.42206463 29.61019585 -12.7355957 28.03320312 C-11.69501597 25.6422694 -10.66404189 23.24738086 -9.63476562 20.8515625 C-8.96931148 19.30965339 -8.30331324 17.76797896 -7.63671875 16.2265625 C-7.33239426 15.52109283 -7.02806976 14.81562317 -6.71452332 14.08877563 C-4.62408424 9.29373636 -2.34658511 4.69317021 0 0 Z " fill="#3673C6" transform="translate(74,193)"/>
<path d="M0 0 C6.14625 -0.0825 12.2925 -0.165 18.625 -0.25 C20.55424316 -0.28641602 22.48348633 -0.32283203 24.47119141 -0.36035156 C26.01463714 -0.37204314 27.55809529 -0.38223386 29.1015625 -0.390625 C29.89135498 -0.41108887 30.68114746 -0.43155273 31.49487305 -0.45263672 C36.81381996 -0.45597253 39.76573345 0.49472157 44 4 C46.38713778 6.9441366 46.96192889 8.65101478 47.375 12.4375 C46.8842029 17.1000725 45.43078487 20.28305815 42.4375 23.875 C41 25 41 25 39 25 C39 25.66 39 26.32 39 27 C39.763125 27.226875 40.52625 27.45375 41.3125 27.6875 C44.7125056 29.34796785 45.41813979 30.57876746 47 34 C47.20952713 36.69591571 47.28744431 39.13450509 47.1875 41.8125 C47.16719727 42.85180664 47.16719727 42.85180664 47.14648438 43.91210938 C47.11138845 45.60841265 47.05758943 47.30431136 47 49 C43.04 49 39.08 49 35 49 C34.97421875 48.10796875 34.9484375 47.2159375 34.921875 46.296875 C34.86515625 45.12640625 34.8084375 43.9559375 34.75 42.75 C34.70359375 41.58984375 34.6571875 40.4296875 34.609375 39.234375 C34.20234864 36.00917691 34.20234864 36.00917691 32.53125 33.625 C28.74006425 31.19115236 25.16682448 31.3272117 20.75 31.25 C16.41875 31.12625 16.41875 31.12625 12 31 C12 36.94 12 42.88 12 49 C8.04 49 4.08 49 0 49 C0 32.83 0 16.66 0 0 Z " fill="#3471C6" transform="translate(281,276)"/>
<path d="M0 0 C8.971875 -0.12375 8.971875 -0.12375 18.125 -0.25 C20.00203613 -0.28641602 21.87907227 -0.32283203 23.81298828 -0.36035156 C25.31541808 -0.37204362 26.81786064 -0.38223423 28.3203125 -0.390625 C29.08851318 -0.41108887 29.85671387 -0.43155273 30.64819336 -0.45263672 C36.83643157 -0.4566227 40.30923178 1.48861633 44.875 5.75 C46.5639176 9.1278352 46.5294186 12.34348221 46 16 C44.4798574 19.76416263 42.54544627 22.84849509 40 26 C40.81855469 26.81726563 41.63710938 27.63453125 42.48046875 28.4765625 C45.67825873 32.31391048 45.59594324 35.55210431 45.3125 40.375 C45.28994141 41.11105469 45.26738281 41.84710938 45.24414062 42.60546875 C45.18572927 44.40453842 45.09606337 46.20254753 45 48 C41.7 48 38.4 48 35 48 C34.95101562 47.25234375 34.90203125 46.5046875 34.8515625 45.734375 C34.77679688 44.74953125 34.70203125 43.7646875 34.625 42.75 C34.52058594 41.28820312 34.52058594 41.28820312 34.4140625 39.796875 C34.01089652 37.07360292 33.47210492 35.30876887 32 33 C29.76352369 31.88176185 28.35108471 31.80603939 25.8671875 31.68359375 C25.14128418 31.64548584 24.41538086 31.60737793 23.66748047 31.56811523 C22.28520264 31.50346069 22.28520264 31.50346069 20.875 31.4375 C16.481875 31.2209375 16.481875 31.2209375 12 31 C12 36.94 12 42.88 12 49 C8.04 49 4.08 49 0 49 C0 32.83 0 16.66 0 0 Z " fill="#3371C6" transform="translate(233,193)"/>
<path d="M0 0 C12.54 0 25.08 0 38 0 C38 3.3 38 6.6 38 10 C29.09 10 20.18 10 11 10 C11 12.97 11 15.94 11 19 C19.91 19 28.82 19 38 19 C38 22.3 38 25.6 38 29 C29.42 29 20.84 29 12 29 C12 31.97 12 34.94 12 38 C20.91 38 29.82 38 39 38 C39 41.63 39 45.26 39 49 C26.13 49 13.26 49 0 49 C0 32.83 0 16.66 0 0 Z " fill="#3572C6" transform="translate(335,276)"/>
<path d="M0 0 C1.29873047 0.00322266 2.59746094 0.00644531 3.93554688 0.00976562 C5.30729233 0.01812094 6.67903712 0.02658588 8.05078125 0.03515625 C9.4342432 0.0401729 10.81770688 0.04473552 12.20117188 0.04882812 C15.5885852 0.06063096 18.97591158 0.07709606 22.36328125 0.09765625 C22.36328125 4.05765625 22.36328125 8.01765625 22.36328125 12.09765625 C8.99828125 12.59265625 8.99828125 12.59265625 -4.63671875 13.09765625 C-4.63671875 14.74765625 -4.63671875 16.39765625 -4.63671875 18.09765625 C-1.65240601 19.58981262 1.23082759 19.33500763 4.55078125 19.47265625 C11.46078461 19.85477248 16.3185022 20.53363179 21.73828125 25.09765625 C24.84098664 28.91637058 24.70534013 32.87946106 24.63671875 37.59375 C24.22330686 41.37942177 22.93481392 43.32831337 20.36328125 46.09765625 C13.67828356 51.38034121 6.61247899 50.55749544 -1.57421875 50.34765625 C-2.93942696 50.32756298 -4.30466368 50.30931719 -5.66992188 50.29296875 C-8.99292009 50.24600058 -12.31444867 50.18032351 -15.63671875 50.09765625 C-15.63671875 46.79765625 -15.63671875 43.49765625 -15.63671875 40.09765625 C-14.51644287 40.06792725 -14.51644287 40.06792725 -13.37353516 40.03759766 C-10.0025627 39.94257414 -6.63222946 39.83280366 -3.26171875 39.72265625 C-2.08609375 39.69171875 -0.91046875 39.66078125 0.30078125 39.62890625 C1.42226563 39.59023438 2.54375 39.5515625 3.69921875 39.51171875 C4.7361084 39.48029785 5.77299805 39.44887695 6.84130859 39.41650391 C9.5313796 39.33811153 9.5313796 39.33811153 11.36328125 37.09765625 C11.53015573 34.51411407 11.53015573 34.51411407 11.36328125 32.09765625 C7.66041668 30.24622397 3.03442364 30.42862474 -1.07617188 30.11132812 C-6.53554364 29.57065415 -10.10720742 28.23834795 -14.63671875 25.09765625 C-17.69010077 19.97585416 -18.280808 15.8944595 -17.63671875 10.09765625 C-13.41656085 2.10950022 -8.77814337 -0.0383325 0 0 Z " fill="#3572C6" transform="translate(396.63671875,274.90234375)"/>
<path d="M0 0 C1.25361328 0.00322266 2.50722656 0.00644531 3.79882812 0.00976562 C5.76432617 0.02233398 5.76432617 0.02233398 7.76953125 0.03515625 C9.10481606 0.04017308 10.44010266 0.04473566 11.77539062 0.04882812 C15.04431598 0.0606293 18.31315116 0.07709328 21.58203125 0.09765625 C21.58203125 4.05765625 21.58203125 8.01765625 21.58203125 12.09765625 C13.00203125 12.42765625 4.42203125 12.75765625 -4.41796875 13.09765625 C-4.74796875 14.74765625 -5.07796875 16.39765625 -5.41796875 18.09765625 C-2.91158203 19.35084961 -0.71682244 19.22169191 2.04199219 19.28588867 C9.25878061 19.49178036 15.15787255 19.80196447 20.58203125 25.09765625 C23.45023065 28.39608557 24.47742831 30.26083275 25.01953125 34.59765625 C24.38605814 39.66544116 22.93547341 42.7807936 19.26953125 46.34765625 C14.35786791 49.54594866 9.89082036 50.34821615 4.08984375 50.29296875 C2.29160156 50.28330078 2.29160156 50.28330078 0.45703125 50.2734375 C-0.78046875 50.25667969 -2.01796875 50.23992187 -3.29296875 50.22265625 C-4.55367188 50.21363281 -5.814375 50.20460938 -7.11328125 50.1953125 C-10.21503915 50.17181433 -13.31640527 50.13895959 -16.41796875 50.09765625 C-16.41796875 46.79765625 -16.41796875 43.49765625 -16.41796875 40.09765625 C-15.29769287 40.06792725 -15.29769287 40.06792725 -14.15478516 40.03759766 C-10.7838127 39.94257414 -7.41347946 39.83280366 -4.04296875 39.72265625 C-2.86734375 39.69171875 -1.69171875 39.66078125 -0.48046875 39.62890625 C0.64101563 39.59023438 1.7625 39.5515625 2.91796875 39.51171875 C3.9548584 39.48029785 4.99174805 39.44887695 6.06005859 39.41650391 C8.7501296 39.33811153 8.7501296 39.33811153 10.58203125 37.09765625 C10.83210855 34.55575623 10.83210855 34.55575623 10.58203125 32.09765625 C8.23969477 29.75531977 1.80530829 30.35015958 -1.54101562 30.11132812 C-7.77737035 29.53511546 -11.96878019 27.88466392 -16.23046875 23.03515625 C-18.65756076 19.07516402 -18.80392352 15.65192257 -18.41796875 11.09765625 C-14.11043081 2.96119569 -8.99079078 -0.04068231 0 0 Z " fill="#3472C6" transform="translate(442.41796875,274.90234375)"/>
<path d="M0 0 C12.54 0 25.08 0 38 0 C38 3.3 38 6.6 38 10 C29.09 10 20.18 10 11 10 C11 13.3 11 16.6 11 20 C19.58 20 28.16 20 37 20 C37 22.97 37 25.94 37 29 C28.42 29 19.84 29 11 29 C11 32.3 11 35.6 11 39 C19.91 39 28.82 39 38 39 C38 42.3 38 45.6 38 49 C25.46 49 12.92 49 0 49 C0 32.83 0 16.66 0 0 Z " fill="#306FC5" transform="translate(187,193)"/>
<path d="M0 0 C4.10649969 -0.27453458 8.20937564 -0.47263127 12.32299805 -0.60424805 C13.71749958 -0.65915222 15.11137983 -0.7339223 16.50366211 -0.82983398 C28.07395467 -1.60616865 28.07395467 -1.60616865 32.91064453 2.42724609 C35.16196395 5.19008549 37.10792069 7.9840433 39 11 C39.66 11.66 40.32 12.32 41 13 C40.57523713 18.23874205 36.97006714 22.88270896 33.33984375 26.46875 C25.06710835 32.63349816 9.79149541 29.74956977 0 29 C0 25.7 0 22.4 0 19 C8.58 19 17.16 19 26 19 C26 15.7 26 12.4 26 9 C17.42 9 8.84 9 0 9 C0 6.03 0 3.06 0 0 Z " fill="#FCFDFE" transform="translate(156,286)"/>
<path d="M0 0 C3.63 0 7.26 0 11 0 C11 15.84 11 31.68 11 48 C7.37 48 3.74 48 0 48 C0 32.16 0 16.32 0 0 Z " fill="#306FC5" transform="translate(287,193)"/>
<path d="M0 0 C0.33 0 0.66 0 1 0 C1 12.54 1 25.08 1 38 C-0.65 36.35 -2.3 34.7 -4 33 C-4.69222656 32.319375 -5.38445312 31.63875 -6.09765625 30.9375 C-13.97462687 23.17014925 -13.97462687 23.17014925 -16 20 C-15.68892356 16.07879965 -13.58305803 14.3002708 -10.8125 11.6875 C-7.88802024 8.87029781 -5.10372795 6.05437142 -2.5 2.9375 C-1.675 1.968125 -0.85 0.99875 0 0 Z " fill="#FAFCFD" transform="translate(229,282)"/>
<path d="M0 0 C2.91765891 -0.10806144 5.83131125 -0.18732877 8.75 -0.25 C9.9875 -0.30027344 9.9875 -0.30027344 11.25 -0.3515625 C17.37132465 -0.45029354 17.37132465 -0.45029354 20.546875 1.82421875 C22.51891431 4.77697654 22.59178523 6.52326177 22 10 C20.18948174 12.0830694 18.7345343 12.91396625 15.984375 13.23608398 C13.56599328 13.29557332 11.16793246 13.26117138 8.75 13.1875 C7.90953125 13.17396484 7.0690625 13.16042969 6.203125 13.14648438 C4.13514062 13.11123464 2.06748729 13.0574302 0 13 C0 8.71 0 4.42 0 0 Z " fill="#F4F7FB" transform="translate(242,286)"/>
<path d="M0 0 C2.91722548 -0.08103404 5.83219516 -0.14051081 8.75 -0.1875 C9.575 -0.21263672 10.4 -0.23777344 11.25 -0.26367188 C17.42297754 -0.33834499 17.42297754 -0.33834499 20.578125 1.51171875 C21.28195312 2.24841797 21.28195312 2.24841797 22 3 C21.125 9.875 21.125 9.875 20 11 C18.5112814 11.08669432 17.018555 11.10703494 15.52734375 11.09765625 C14.62822266 11.09443359 13.72910156 11.09121094 12.80273438 11.08789062 C11.85720703 11.07951172 10.91167969 11.07113281 9.9375 11.0625 C8.98810547 11.05798828 8.03871094 11.05347656 7.06054688 11.04882812 C4.70700469 11.03700128 2.35349468 11.01906521 0 11 C0 7.37 0 3.74 0 0 Z " fill="#F6F9FC" transform="translate(245,203)"/>
<path d="M0 0 C3.12522772 -0.05378021 6.2495371 -0.09356575 9.375 -0.125 C10.26445312 -0.14175781 11.15390625 -0.15851563 12.0703125 -0.17578125 C12.92109375 -0.18222656 13.771875 -0.18867188 14.6484375 -0.1953125 C15.82672119 -0.21102295 15.82672119 -0.21102295 17.02880859 -0.22705078 C19 0 19 0 21 2 C21.25 5.5 21.25 5.5 21 9 C19 11 19 11 17.02880859 11.22705078 C16.24328613 11.21657715 15.45776367 11.20610352 14.6484375 11.1953125 C13.79765625 11.18886719 12.946875 11.18242187 12.0703125 11.17578125 C10.73613281 11.15064453 10.73613281 11.15064453 9.375 11.125 C8.02921875 11.11146484 8.02921875 11.11146484 6.65625 11.09765625 C4.43738678 11.07405132 2.2186603 11.03817962 0 11 C0 7.37 0 3.74 0 0 Z " fill="#FBFCFE" transform="translate(294,287)"/>
<path d="M0 0 C0.66 0 1.32 0 2 0 C3.00605593 2.60197202 4.00502525 5.20629362 5 7.8125 C5.28617187 8.55048828 5.57234375 9.28847656 5.8671875 10.04882812 C6.13789063 10.76103516 6.40859375 11.47324219 6.6875 12.20703125 C7.06455078 13.18893433 7.06455078 13.18893433 7.44921875 14.19067383 C8 16 8 16 8 19 C3.05 19 -1.9 19 -7 19 C-6.10656817 14.53284086 -4.76463639 10.80385599 -2.9375 6.6875 C-2.65583984 6.04232422 -2.37417969 5.39714844 -2.08398438 4.73242188 C-1.3937257 3.15301642 -0.69746802 1.57623507 0 0 Z " fill="#F0F5FB" transform="translate(356,202)"/>
<path d="M0 0 C2.72772048 2.72772048 3.7460131 5.97005745 5.125 9.5 C5.40214844 10.18964844 5.67929688 10.87929687 5.96484375 11.58984375 C8 16.73287408 8 16.73287408 8 19 C3.05 19 -1.9 19 -7 19 C-6.15199097 14.75995483 -5.05741374 11.25219111 -3.5 7.25 C-3.0565625 6.10015625 -2.613125 4.9503125 -2.15625 3.765625 C-1 1 -1 1 0 0 Z " fill="#EFF4FA" transform="translate(82,202)"/>
</svg>
