<?xml version="1.0" encoding="UTF-8"?>
<svg version="1.1" xmlns="http://www.w3.org/2000/svg" width="2000" height="1553">
<path d="M0 0 C0.63599121 0.20540405 1.27198242 0.41080811 1.92724609 0.62243652 C66.54311088 21.50086535 137.071728 52.99784611 187.52734375 99.3203125 C189.84002639 101.22578285 189.84002639 101.22578285 192.453125 101.01953125 C195.72281203 99.71065347 198.01376687 97.90980333 200.75 95.6875 C266.84147187 43.12127854 347.91396518 6.28512811 531 -28 C531.84594727 -28.05784668 532.69189453 -28.11569336 533.56347656 -28.17529297 C610.77477748 -33.24350653 688.94216715 -22.86623444 889 59 C890.26457031 59.7727124 890.26457031 59.7727124 891.5546875 60.56103516 C915.94437193 75.54010988 939.25863804 92.08652781 961.18261719 110.48681641 C963.63415837 112.52801096 966.13153264 114.51037487 968.625 116.5 C973.80823048 120.72571768 978.67206376 125.26751137 983.52392578 129.86523438 C986.52842321 132.71082836 989.55737122 135.4944882 992.703125 138.18359375 C997.85860757 142.66369376 1002.65574508 147.50602499 1007.47290039 152.3425293 C1009.05959946 153.93458966 1010.65157742 155.5212299 1012.24414062 157.10742188 C1017.70757322 162.56728506 1022.97968759 168.12668477 1028 174 C1029.61967817 175.77570221 1031.24411718 177.54708307 1032.875 179.3125 C1037.7957178 184.71491457 1042.42792553 190.30168859 1047 196 C1047.91225289 197.12020516 1048.82503803 198.23997705 1049.73828125 199.359375 C1076.05890171 231.75126164 1098.6366898 267.0514434 1118 304 C1118.49064941 304.93602051 1118.98129883 305.87204102 1119.48681641 306.83642578 C1132.27541857 331.41965419 1142.75911651 356.89249525 1152 383 C1152.34482422 383.96196289 1152.68964844 384.92392578 1153.04492188 385.91503906 C1171.30715207 437.15964016 1180.97611699 490.86937195 1185 545 C1185.07202637 545.93924316 1185.14405273 546.87848633 1185.21826172 547.84619141 C1190.99277901 626.80543977 1179.16833091 707.84300942 1103 895 C1102.44634766 895.93956543 1101.89269531 896.87913086 1101.32226562 897.84716797 C1086.64737472 922.68320767 1070.34975065 946.71537714 1052 969 C1051.32066406 969.84046875 1050.64132812 970.6809375 1049.94140625 971.546875 C1038.45725423 985.71270958 1026.59455904 999.65046132 1013.55078125 1012.4140625 C1011.89800906 1014.10430308 1010.39405522 1015.87646093 1008.875 1017.6875 C1004.65931585 1022.58990193 999.85672097 1026.82873714 995.08203125 1031.171875 C992.71840267 1033.32567198 990.42596365 1035.52772331 988.1875 1037.8125 C984.6324478 1041.41932481 980.84319966 1044.70493903 977 1048 C975.9566862 1048.90715539 974.91374621 1049.81474081 973.87109375 1050.72265625 C966.40407892 1057.20322064 958.8078796 1063.47214873 950.96386719 1069.49121094 C949.61243886 1070.52947884 948.26430948 1071.5720503 946.91894531 1072.61816406 C925.43326835 1089.29947139 902.61028813 1104.49216608 879 1118 C878.27022949 1118.41862305 877.54045898 1118.83724609 876.78857422 1119.26855469 C871.56380574 1122.25049006 866.29327047 1125.14176284 861 1128 C860.15695312 1128.45842285 859.31390625 1128.9168457 858.4453125 1129.38916016 C833.19401021 1143.06540617 807.04541379 1154.37985984 780 1164 C779.03287079 1164.34417969 779.03287079 1164.34417969 778.04620361 1164.6953125 C716.39514961 1186.55294775 651.44587628 1198.67763847 586 1200 C584.43113037 1200.03287109 584.43113037 1200.03287109 582.83056641 1200.06640625 C501.09173262 1201.49937339 419.02986859 1186.98097799 324 1148 C322.91879883 1147.51917969 321.83759766 1147.03835938 320.72363281 1146.54296875 C293.13245982 1134.20062049 265.70829631 1120.41526219 240.81787109 1103.14208984 C238.89316909 1101.83277129 238.89316909 1101.83277129 236 1101 C236 1100.34 236 1099.68 236 1099 C235.26297852 1098.72776611 234.52595703 1098.45553223 233.76660156 1098.17504883 C231.14305067 1097.0607574 229.06111211 1095.83075921 226.734375 1094.19921875 C225.93451172 1093.63992676 225.13464844 1093.08063477 224.31054688 1092.50439453 C223.46556641 1091.90481934 222.62058594 1091.30524414 221.75 1090.6875 C220.87408203 1090.07245605 219.99816406 1089.45741211 219.09570312 1088.82373047 C212.36195713 1084.06027369 205.79679705 1079.09819476 199.38183594 1073.9128418 C198.72989258 1073.39761963 198.07794922 1072.88239746 197.40625 1072.3515625 C196.84228516 1071.89604004 196.27832031 1071.44051758 195.69726562 1070.97119141 C193.74728022 1069.66890015 193.74728022 1069.66890015 190 1070 C187.50352817 1071.8038625 185.17222897 1073.65447095 182.8125 1075.625 C163.03392329 1091.55481812 141.03975128 1105.43060905 119 1118 C118.28521484 1118.41040527 117.57042969 1118.82081055 116.83398438 1119.24365234 C111.59688588 1122.2394903 106.30967771 1125.13517095 101 1128 C100.10812988 1128.48549316 99.21625977 1128.97098633 98.29736328 1129.47119141 C11.94434071 1176.2869607 -86.1584789 1198.97918065 -358.50195312 1176.11795044 C-388.68723616 1167.15479082 -418.00191899 1156.38509067 -446.57861328 1143.12255859 C-448.22314993 1142.36014888 -449.87005599 1141.60283352 -451.51904297 1140.85009766 C-464.72415427 1134.81813323 -477.37068874 1128.0393392 -489.92675781 1120.75756836 C-492.16669026 1119.47656473 -494.41234238 1118.21856549 -496.67480469 1116.97875977 C-505.92759394 1111.89092967 -514.78458317 1106.37603143 -523.53710938 1100.47094727 C-525.62735269 1099.06091292 -527.72327134 1097.65966513 -529.8203125 1096.25976562 C-537.19600974 1091.32153936 -544.49133627 1086.28819229 -551.67984009 1081.08058167 C-554.73058699 1078.86481916 -554.73058699 1078.86481916 -558 1077 C-558 1076.34 -558 1075.68 -558 1075 C-558.52722656 1074.77183594 -559.05445313 1074.54367187 -559.59765625 1074.30859375 C-562.80977769 1072.55890158 -565.58679184 1070.33472376 -568.4375 1068.0625 C-569.05077148 1067.57668457 -569.66404297 1067.09086914 -570.29589844 1066.59033203 C-579.36372944 1059.36723935 -588.15885336 1051.84783339 -596.734375 1044.046875 C-598.81761127 1042.16477879 -600.93218933 1040.32837688 -603.0625 1038.5 C-606.82283914 1035.23145571 -610.29823448 1031.72019122 -613.79296875 1028.171875 C-615.73632275 1026.25947708 -617.7227379 1024.49795836 -619.8125 1022.75 C-624.08220791 1019.09390281 -627.79730323 1014.98704126 -631.57080078 1010.83349609 C-634.36673521 1007.75787972 -637.19958108 1004.76749636 -640.1875 1001.875 C-644.02845926 998.09752767 -647.3537623 993.9755039 -650.72265625 989.77734375 C-652.86490351 987.16475747 -655.08640571 984.67190984 -657.375 982.1875 C-662.93593782 976.06185421 -667.96053393 969.55249374 -673 963 C-673.95181152 961.76902588 -673.95181152 961.76902588 -674.92285156 960.51318359 C-682.62484604 950.54600434 -690.21037095 940.61532387 -697 930 C-697.96702152 928.53401461 -698.93594377 927.06928213 -699.90625 925.60546875 C-709.29147816 911.39403907 -718.1054878 896.85996413 -726.37890625 881.97265625 C-726.88107666 881.069104 -727.38324707 880.16555176 -727.90063477 879.23461914 C-729 877 -729 877 -729 875 C-729.66 874.67 -730.32 874.34 -731 874 C-732.18744937 871.9149511 -733.26468203 869.84265887 -734.3125 867.6875 C-734.65442383 866.99092285 -734.99634766 866.2943457 -735.34863281 865.57666016 C-736.57658697 863.05620689 -737.78929301 860.52878279 -739 858 C-739.47937012 857.00403809 -739.95874023 856.00807617 -740.45263672 854.98193359 C-758.30181379 817.74203395 -772.81276171 779.05153831 -783 739 C-783.28681641 737.8759375 -783.57363281 736.751875 -783.86914062 735.59375 C-802.36470941 662.09501915 -806.71222474 585.38847756 -718.5 274.6875 C-716.35932062 271.10873988 -714.18813681 267.54991653 -712 264 C-711.4328125 263.07848145 -710.865625 262.15696289 -710.28125 261.20751953 C-702.3646965 248.41159475 -693.97783924 236.07151617 -685 224 C-683.99189401 222.63042432 -682.98407743 221.26063555 -681.9765625 219.890625 C-668.46538439 201.60741377 -653.86668396 184.1656828 -638.39746094 167.51074219 C-636.95768085 165.95425037 -635.52862839 164.38846439 -634.1015625 162.8203125 C-625.22640681 153.08952627 -616.19941134 143.3940532 -606.14453125 134.86328125 C-603.83819329 132.85941384 -601.6077611 130.78746281 -599.37573242 128.70166016 C-593.11952 122.85890964 -586.67963139 117.3577122 -580 112 C-578.80726658 111.0172335 -577.61594599 110.03275069 -576.42578125 109.046875 C-566.23499565 100.6309254 -555.73031073 92.71380002 -545 85 C-544.17419434 84.40509766 -543.34838867 83.81019531 -542.49755859 83.19726562 C-531.74416159 75.47901753 -520.83448351 68.17316776 -509.43603516 61.44238281 C-506.84858683 59.91034787 -504.27420779 58.35756118 -501.69921875 56.8046875 C-477.1042502 42.09270622 -451.52970122 28.86446193 -425 18 C-423.50968262 17.38898437 -423.50968262 17.38898437 -421.98925781 16.765625 C-360.1365539 -8.3167676 -294.65088117 -23.79815132 -228 -28 C-227.20045898 -28.05639648 -226.40091797 -28.11279297 -225.57714844 -28.17089844 C-149.81615166 -33.45509508 -72.1232842 -23.46293944 0 0 Z " fill="#F69D1A" transform="translate(808,35)"/>
<path d="M0 0 C0.63599121 0.20540405 1.27198242 0.41080811 1.92724609 0.62243652 C67.08268015 21.67520889 127.72087264 53.76540786 182.35546875 95.015625 C185.53281591 97.39980869 188.75280368 99.71220259 192 102 C188.85179089 105.22663425 185.64829827 108.19014219 182.125 111 C164.99721596 124.89915095 148.99689195 139.93852977 133.375 155.5 C132.54589111 156.32443604 131.71678223 157.14887207 130.86254883 157.99829102 C126.59174833 162.28037959 122.4762635 166.63677907 118.53271484 171.22216797 C116.45134978 173.6363923 114.2878222 175.97126318 112.125 178.3125 C108.08720678 182.74496474 104.22692566 187.27742177 100.46484375 191.9453125 C98.65914825 194.1831158 96.84020688 196.40481899 95.00390625 198.6171875 C69.70973559 229.19446419 48.25546235 263.13274006 29.56518555 298.0793457 C28.41800641 300.21999521 27.26194867 302.35589298 26.10083008 304.48901367 C21.44462977 313.07299443 17.17542751 321.77249729 13.1875 330.6875 C12.8897467 331.35085358 12.59199341 332.01420715 12.28521729 332.69766235 C-3.96343148 368.97863377 -16.58559811 406.39739582 -26 445 C-26.25861816 446.05928711 -26.51723633 447.11857422 -26.78369141 448.20996094 C-32.20923327 470.83706485 -35.51802667 493.91144285 -38.25 517 C-38.33299347 517.69630524 -38.41598694 518.39261047 -38.50149536 519.11001587 C-38.74061164 521.13527876 -38.97322726 523.16117158 -39.203125 525.1875 C-39.39890137 526.91033203 -39.39890137 526.91033203 -39.59863281 528.66796875 C-40.75555709 540.38865002 -41.18667544 552.08718761 -41.2734375 563.859375 C-41.2827939 564.95671778 -41.2827939 564.95671778 -41.29233932 566.0762291 C-41.33812821 571.63412534 -41.36145968 577.19193921 -41.375 582.75 C-41.37730118 583.56794792 -41.37960236 584.38589584 -41.38197327 585.22863007 C-41.43332767 607.12900481 -41.03017252 628.82119561 -38.75 650.625 C-38.64757996 651.61254272 -38.54515991 652.60008545 -38.43963623 653.61755371 C-36.04738836 675.99713404 -32.03951415 698.07519482 -27 720 C-26.80293457 720.86657227 -26.60586914 721.73314453 -26.40283203 722.62597656 C-25.00109253 728.76748635 -23.51686463 734.88601855 -22 741 C-21.65727051 742.41031494 -21.65727051 742.41031494 -21.30761719 743.84912109 C-11.89669378 782.23779312 3.0235522 819.38537251 20 855 C20.43779785 855.92087402 20.8755957 856.84174805 21.32666016 857.79052734 C27.96718967 871.659614 35.41833925 884.95733863 43.30517578 898.15283203 C44.88656977 900.80944637 46.4451106 903.47789536 47.99609375 906.15234375 C58.99322198 924.99234189 71.69152112 942.73127732 85 960 C85.45681152 960.59570801 85.91362305 961.19141602 86.38427734 961.80517578 C95.35008182 973.47248108 104.86120019 984.64602815 114.76953125 995.5234375 C116.0215869 996.91363589 117.26720056 998.30993479 118.48883057 999.72694397 C122.62045525 1004.51693195 126.92329384 1009.07030099 131.40234375 1013.53515625 C132.08373917 1014.21750839 132.76513458 1014.89986053 133.46717834 1015.60289001 C134.89705741 1017.03344437 136.32817911 1018.46275767 137.76049805 1019.89086914 C139.93197711 1022.05699074 142.09806325 1024.22840174 144.26367188 1026.40039062 C145.66374202 1027.79979987 147.06412238 1029.19889884 148.46484375 1030.59765625 C149.10155502 1031.23639175 149.7382663 1031.87512726 150.39427185 1032.53321838 C154.76894825 1036.88556208 159.31979049 1040.97972827 164 1045 C165.12956271 1045.98492473 166.25857919 1046.97047676 167.38671875 1047.95703125 C175.04652268 1054.59964248 182.89246672 1060.91261621 191 1067 C189.63539762 1070.17325559 188.23284975 1071.89521715 185.484375 1073.96875 C184.74316406 1074.52973389 184.00195312 1075.09071777 183.23828125 1075.66870117 C182.41714844 1076.27302979 181.59601562 1076.8773584 180.75 1077.5 C179.88246094 1078.14364502 179.01492188 1078.78729004 178.12109375 1079.45043945 C159.16424324 1093.33869223 139.39410595 1106.3263797 119 1118 C118.28086426 1118.41330566 117.56172852 1118.82661133 116.82080078 1119.25244141 C111.58817113 1122.24538732 106.30499709 1125.13769637 101 1128 C100.10812988 1128.48549316 99.21625977 1128.97098633 98.29736328 1129.47119141 C11.94434071 1176.2869607 -86.1584789 1198.97918065 -358.50195312 1176.11795044 C-388.68723616 1167.15479082 -418.00191899 1156.38509067 -446.57861328 1143.12255859 C-448.22314993 1142.36014888 -449.87005599 1141.60283352 -451.51904297 1140.85009766 C-464.72415427 1134.81813323 -477.37068874 1128.0393392 -489.92675781 1120.75756836 C-492.16669026 1119.47656473 -494.41234238 1118.21856549 -496.67480469 1116.97875977 C-505.92759394 1111.89092967 -514.78458317 1106.37603143 -523.53710938 1100.47094727 C-525.62735269 1099.06091292 -527.72327134 1097.65966513 -529.8203125 1096.25976562 C-537.19600974 1091.32153936 -544.49133627 1086.28819229 -551.67984009 1081.08058167 C-554.73058699 1078.86481916 -554.73058699 1078.86481916 -558 1077 C-558 1076.34 -558 1075.68 -558 1075 C-558.52722656 1074.77183594 -559.05445313 1074.54367187 -559.59765625 1074.30859375 C-562.80977769 1072.55890158 -565.58679184 1070.33472376 -568.4375 1068.0625 C-569.05077148 1067.57668457 -569.66404297 1067.09086914 -570.29589844 1066.59033203 C-579.36372944 1059.36723935 -588.15885336 1051.84783339 -596.734375 1044.046875 C-598.81761127 1042.16477879 -600.93218933 1040.32837688 -603.0625 1038.5 C-606.82283914 1035.23145571 -610.29823448 1031.72019122 -613.79296875 1028.171875 C-615.73632275 1026.25947708 -617.7227379 1024.49795836 -619.8125 1022.75 C-624.08220791 1019.09390281 -627.79730323 1014.98704126 -631.57080078 1010.83349609 C-634.36673521 1007.75787972 -637.19958108 1004.76749636 -640.1875 1001.875 C-644.02845926 998.09752767 -647.3537623 993.9755039 -650.72265625 989.77734375 C-652.86490351 987.16475747 -655.08640571 984.67190984 -657.375 982.1875 C-662.93593782 976.06185421 -667.96053393 969.55249374 -673 963 C-673.95181152 961.76902588 -673.95181152 961.76902588 -674.92285156 960.51318359 C-682.62484604 950.54600434 -690.21037095 940.61532387 -697 930 C-697.96702152 928.53401461 -698.93594377 927.06928213 -699.90625 925.60546875 C-709.29147816 911.39403907 -718.1054878 896.85996413 -726.37890625 881.97265625 C-726.88107666 881.069104 -727.38324707 880.16555176 -727.90063477 879.23461914 C-729 877 -729 877 -729 875 C-729.66 874.67 -730.32 874.34 -731 874 C-732.18744937 871.9149511 -733.26468203 869.84265887 -734.3125 867.6875 C-734.65442383 866.99092285 -734.99634766 866.2943457 -735.34863281 865.57666016 C-736.57658697 863.05620689 -737.78929301 860.52878279 -739 858 C-739.47937012 857.00403809 -739.95874023 856.00807617 -740.45263672 854.98193359 C-758.30181379 817.74203395 -772.81276171 779.05153831 -783 739 C-783.28681641 737.8759375 -783.57363281 736.751875 -783.86914062 735.59375 C-802.36470941 662.09501915 -806.71222474 585.38847756 -718.5 274.6875 C-716.35932062 271.10873988 -714.18813681 267.54991653 -712 264 C-711.4328125 263.07848145 -710.865625 262.15696289 -710.28125 261.20751953 C-702.3646965 248.41159475 -693.97783924 236.07151617 -685 224 C-683.99189401 222.63042432 -682.98407743 221.26063555 -681.9765625 219.890625 C-668.46538439 201.60741377 -653.86668396 184.1656828 -638.39746094 167.51074219 C-636.95768085 165.95425037 -635.52862839 164.38846439 -634.1015625 162.8203125 C-625.22640681 153.08952627 -616.19941134 143.3940532 -606.14453125 134.86328125 C-603.83819329 132.85941384 -601.6077611 130.78746281 -599.37573242 128.70166016 C-593.11952 122.85890964 -586.67963139 117.3577122 -580 112 C-578.80726658 111.0172335 -577.61594599 110.03275069 -576.42578125 109.046875 C-566.23499565 100.6309254 -555.73031073 92.71380002 -545 85 C-544.17419434 84.40509766 -543.34838867 83.81019531 -542.49755859 83.19726562 C-531.74416159 75.47901753 -520.83448351 68.17316776 -509.43603516 61.44238281 C-506.84858683 59.91034787 -504.27420779 58.35756118 -501.69921875 56.8046875 C-477.1042502 42.09270622 -451.52970122 28.86446193 -425 18 C-423.50968262 17.38898437 -423.50968262 17.38898437 -421.98925781 16.765625 C-360.1365539 -8.3167676 -294.65088117 -23.79815132 -228 -28 C-227.20045898 -28.05639648 -226.40091797 -28.11279297 -225.57714844 -28.17089844 C-149.81615166 -33.45509508 -72.1232842 -23.46293944 0 0 Z " fill="#EB001A" transform="translate(808,35)"/>
<path d="M0 0 C3.70921899 1.3434545 6.26603568 3.68658794 9.14453125 6.29296875 C10.39550032 7.3975127 11.64681173 8.50166901 12.8984375 9.60546875 C13.53281738 10.17007813 14.16719727 10.7346875 14.82080078 11.31640625 C17.14174221 13.36397766 19.50536787 15.35704691 21.87329102 17.34985352 C34.58852627 28.08849555 46.48797651 39.67430156 58.26953125 51.41796875 C59.19765625 52.3414209 60.12578125 53.26487305 61.08203125 54.21630859 C65.61980553 58.76478517 70.02787693 63.36331625 74.21166992 68.23999023 C76.27753095 70.64448383 78.43109858 72.96460224 80.58203125 75.29296875 C84.61539592 79.72057207 88.47162014 84.2481214 92.23046875 88.91015625 C94.07637442 91.19861343 95.93514833 93.47258676 97.80859375 95.73828125 C104.34003522 103.66021293 110.55292537 111.70554789 116.41503906 120.13378906 C117.79826409 122.11087034 119.20001474 124.07382063 120.60546875 126.03515625 C168.75452437 193.37066872 203.98416152 270.90049878 223.19384766 364.16552734 C223.68211607 366.84380273 224.19751546 369.51547649 224.71875 372.1875 C227.13977494 384.9412408 228.79074859 397.79118727 230.39453125 410.66796875 C230.50321533 411.52471191 230.61189941 412.38145508 230.72387695 413.26416016 C233.5297842 435.53644902 233.89531954 457.69231036 233.89233398 480.11376953 C233.89225293 483.09755541 233.89918037 486.08118709 233.9128418 489.06494141 C234.02094754 513.09242732 233.13822783 536.85063937 229.70703125 560.66796875 C229.54203125 561.85583984 229.37703125 563.04371094 229.20703125 564.26757812 C228.87707538 566.64300261 228.54357201 569.01793739 228.20629883 571.39233398 C227.68304217 575.15287337 227.2011888 578.91761984 226.71875 582.68359375 C225.89586506 588.86802592 224.83494588 594.94591037 223.51953125 601.04296875 C223.3073999 602.03901123 223.09526855 603.03505371 222.87670898 604.0612793 C222.16469372 607.37023515 221.43830353 610.67571651 220.70703125 613.98046875 C220.43697266 615.20443359 220.16691406 616.42839844 219.88867188 617.68945312 C216.65755118 632.21840547 213.24421687 646.56463359 208.46679688 660.66772461 C207.54969339 663.45940884 206.70241856 666.26945551 205.8515625 669.08203125 C203.6144467 676.38523054 201.13891603 683.59633919 198.58203125 690.79296875 C198.34304108 691.46576874 198.1040509 692.13856873 197.8578186 692.83175659 C174.9088332 757.20996406 140.7448005 817.59704862 97.13964844 870.24365234 C95.07820993 872.7428128 93.05286418 875.27092246 91.01953125 877.79296875 C87.25098427 882.39820231 83.29914821 886.80920409 79.26171875 891.1796875 C77.31539993 893.31349575 75.42090562 895.46932322 73.53735352 897.65722656 C69.80751896 901.92386783 65.87922359 905.95298853 61.8671875 909.953125 C61.14139999 910.67986923 60.41561249 911.40661346 59.66783142 912.15538025 C58.14379569 913.68009171 56.61851556 915.20356025 55.09204102 916.72583008 C52.77570662 919.03680766 50.46476047 921.35307646 48.15429688 923.66992188 C46.66308091 925.16047695 45.17155472 926.65072175 43.6796875 928.140625 C42.99922867 928.82310806 42.31876984 929.50559113 41.61769104 930.20875549 C37.14045612 934.66452607 32.49586564 938.86340591 27.70703125 942.98046875 C26.4920586 944.04915659 25.27831399 945.11924401 24.06640625 946.19140625 C20.31230118 949.49278327 16.52415822 952.7521854 12.70703125 955.98046875 C12.12211914 956.47562988 11.53720703 956.97079102 10.93457031 957.48095703 C9.33446192 958.81684857 7.71474702 960.12225297 6.08203125 961.41796875 C5.16164063 962.15917969 4.24125 962.90039062 3.29296875 963.6640625 C0.70703125 964.98046875 0.70703125 964.98046875 -1.75390625 964.51171875 C-4.86755787 962.63394731 -7.57524691 960.43932434 -10.29296875 958.04296875 C-11.45155763 957.04005803 -12.61041925 956.03746232 -13.76953125 955.03515625 C-14.35637695 954.52436523 -14.94322266 954.01357422 -15.54785156 953.48730469 C-17.18543564 952.0733191 -18.83889826 950.68229621 -20.50390625 949.30078125 C-26.22877364 944.54979382 -31.802612 939.66584105 -37.23828125 934.5859375 C-37.88349731 933.98304901 -38.52871338 933.38016052 -39.19348145 932.75900269 C-45.87535938 926.48224918 -52.3860443 920.03911655 -58.85742188 913.54638672 C-60.81655531 911.58181674 -62.78108519 909.62275427 -64.74609375 907.6640625 C-70.80675432 901.60693568 -76.78564527 895.55292389 -82.29296875 888.98046875 C-83.26522134 887.86179648 -84.23915756 886.74458505 -85.21484375 885.62890625 C-91.69751487 878.14412127 -97.93524262 870.50764329 -103.98583984 862.66992188 C-105.24394106 861.04383662 -106.51126005 859.4254022 -107.78125 857.80859375 C-127.52803034 832.48736345 -145.15951894 805.29227485 -160.29296875 776.98046875 C-161.00235596 775.65426514 -161.00235596 775.65426514 -161.72607422 774.30126953 C-177.34099514 744.98708834 -190.34373406 715.04231899 -201.33349609 683.68994141 C-202.17901292 681.30227073 -203.04917014 678.92667637 -203.9375 676.5546875 C-208.62065931 663.95061042 -211.94153446 650.99090855 -215.29296875 637.98046875 C-215.5667334 636.92778809 -215.84049805 635.87510742 -216.12255859 634.79052734 C-223.55614744 606.13995595 -228.99290368 577.05941376 -232.04296875 547.60546875 C-232.20455978 546.05202255 -232.20455978 546.05202255 -232.36941528 544.4671936 C-234.51077039 523.04422517 -234.75472325 501.6764199 -234.73046875 480.16796875 C-234.73052414 479.36990059 -234.73057953 478.57183243 -234.7306366 477.74958038 C-234.73030104 460.20733639 -234.57067871 442.77170479 -232.56167603 425.32138062 C-232.29670615 423.01302805 -232.0543226 420.70340189 -231.8190918 418.3918457 C-223.4016045 336.35534495 -198.78539803 255.281717 -156.29296875 180.98046875 C-155.82310547 180.14596191 -155.35324219 179.31145508 -154.86914062 178.45166016 C-137.6596452 147.93700042 -117.4756518 118.69439243 -94.9140625 91.90576172 C-93.3881107 90.09346414 -91.87069572 88.27439066 -90.35546875 86.453125 C-84.70190351 79.68332016 -78.84824817 73.13635952 -72.84448242 66.67553711 C-71.67213279 65.39471516 -70.5131055 64.1016816 -69.3605957 62.80297852 C-63.84520877 56.59361477 -58.10969829 50.6417649 -52.22680664 44.78393555 C-50.7248995 43.2874195 -49.22845813 41.78558575 -47.73242188 40.28320312 C-42.95827907 35.50576519 -38.13470662 30.83878255 -33.00268555 26.44506836 C-30.60611834 24.39209011 -28.29823283 22.24660695 -25.98046875 20.10546875 C-21.38325269 15.90995118 -16.65898228 11.92448528 -11.80078125 8.03515625 C-9.58228082 6.21750636 -7.50682514 4.31772778 -5.41796875 2.35546875 C-2.29296875 -0.01953125 -2.29296875 -0.01953125 0 0 Z " fill="#FE5E00" transform="translate(1000.29296875,138.01953125)"/>
<path d="M0 0 C6.30257905 4.9520264 11.71940852 10.21009627 16 17 C16.66 16.34 17.32 15.68 18 15 C18.4640625 14.54238281 18.928125 14.08476563 19.40625 13.61328125 C20.51579075 12.49014318 21.59748886 11.3390984 22.65625 10.16796875 C30.90758327 1.30477814 41.36889932 -4.73090365 53 -8 C53.78890625 -8.22429687 54.5778125 -8.44859375 55.390625 -8.6796875 C73.58369143 -12.85608325 94.49179165 -10.66504819 111 -2 C114.23986581 0.10000811 117.11771831 2.43677013 120 5 C120.67675781 5.54914063 121.35351562 6.09828125 122.05078125 6.6640625 C134.15346596 17.33322533 138.82044101 34.4951637 140 50 C140.12629914 53.68411447 140.1271323 57.36333108 140.11352539 61.04931641 C140.11367142 62.10416229 140.11381744 63.15900818 140.1139679 64.24581909 C140.11327679 67.69775522 140.10552229 71.14963592 140.09765625 74.6015625 C140.09578922 77.00865652 140.09436666 79.41575092 140.09336853 81.82284546 C140.08956583 88.13235539 140.07975488 94.441842 140.06866455 100.75134277 C140.05840196 107.20011072 140.05386055 113.64888247 140.04882812 120.09765625 C140.03813046 132.73178269 140.02055202 145.36588575 140 158 C126.47 158 112.94 158 99 158 C98.9906543 154.94790283 98.98130859 151.89580566 98.97167969 148.7512207 C98.93780264 138.62901308 98.8821942 128.50700703 98.81609726 118.38496113 C98.77671037 112.25231725 98.74447876 106.11981508 98.72900391 99.98706055 C98.71377953 94.06056929 98.67923136 88.13446786 98.63169098 82.20815086 C98.61693671 79.95535878 98.60896243 77.70251103 98.60811615 75.44967079 C98.87903454 52.97989845 98.87903454 52.97989845 88 34 C80.49953936 26.97868427 71.23545604 25.43680853 61.23828125 25.71875 C50.63917607 26.63929955 42.02744379 30.46965959 34.6875 38.25 C24.04608251 51.78022334 25.68105839 71.24052377 25.5859375 87.4921875 C25.56718869 89.53484853 25.54761263 91.57750211 25.5272522 93.62014771 C25.47631681 98.94972306 25.43648663 104.27932342 25.39910889 109.60900879 C25.35882483 115.06622302 25.30784487 120.52333673 25.2578125 125.98046875 C25.16151122 136.65358161 25.07795329 147.32673735 25 158 C13.12 158 1.24 158 -11 158 C-11.01981934 155.19024658 -11.03963867 152.38049316 -11.06005859 149.4855957 C-11.12721664 140.16171024 -11.2048513 130.83793267 -11.28752708 121.51417255 C-11.33729487 115.86583687 -11.38362543 110.21751815 -11.421875 104.5690918 C-11.45897584 99.10953356 -11.50540038 93.65012432 -11.55806351 88.19069481 C-11.57647656 86.11652449 -11.5916318 84.04232239 -11.60334396 81.96810341 C-11.22361985 56.0297627 -11.22361985 56.0297627 -22.9375 33.7578125 C-32.01265094 26.02330886 -42.52503918 25.16761942 -54 26 C-63.69915057 27.8029776 -72.07183052 31.32785872 -77.8125 39.6171875 C-82.85787572 48.37382517 -84.29560946 56.3206601 -84.31884766 66.27148438 C-84.33391609 67.76553299 -84.33391609 67.76553299 -84.34928894 69.2897644 C-84.37999727 72.55775413 -84.39712173 75.82566239 -84.4140625 79.09375 C-84.43278407 81.36918838 -84.45235822 83.6446199 -84.4727478 85.92004395 C-84.52397036 91.89086854 -84.56364896 97.86171562 -84.60089111 103.8326416 C-84.64099271 109.93275469 -84.69205695 116.03277504 -84.7421875 122.1328125 C-84.83882991 134.08848285 -84.92225817 146.0441918 -85 158 C-97.21 158 -109.42 158 -122 158 C-122 103.55 -122 49.1 -122 -7 C-109.79 -7 -97.58 -7 -85 -7 C-84.505 1.415 -84.505 1.415 -84 10 C-82.7625 8.659375 -81.525 7.31875 -80.25 5.9375 C-59.59913335 -14.68089673 -24.00344507 -15.59226556 0 0 Z " fill="#000000" transform="translate(229,1387)"/>
<path d="M0 0 C11.88 0 23.76 0 36 0 C36 75.57 36 151.14 36 229 C24.12 229 12.24 229 0 229 C-0.33 223.06 -0.66 217.12 -1 211 C-1.969375 212.19625 -2.93875 213.3925 -3.9375 214.625 C-13.13646109 225.05662188 -27.08989166 231.1693837 -40.89892578 232.22070312 C-65.09000533 233.1185007 -86.292842 229.32291238 -105 213 C-106.4540625 211.83791016 -106.4540625 211.83791016 -107.9375 210.65234375 C-121.96913423 198.93441306 -131.12278973 179.00622703 -133 161 C-134.00652235 145.72916868 -134.26641638 130.52567131 -129 116 C-128.62617187 114.93265625 -128.25234375 113.8653125 -127.8671875 112.765625 C-120.35950106 93.17603257 -105.10066793 76.38909402 -86.00390625 67.625 C-66.58453387 59.63857513 -44.92546632 57.871675 -25 65 C-15.21687208 69.12554723 -9.06371425 74.66935068 -1 82 C-0.67 54.94 -0.34 27.88 0 0 Z M-85 113 C-94.11579925 126.37327234 -96.64866814 141.40476952 -94.56640625 157.3125 C-92.17166152 169.6878268 -86.24877484 181.38169612 -76 189 C-68.47393949 193.63794236 -59.93119658 198.26636599 -51 199 C-50.0925 199.07992188 -49.185 199.15984375 -48.25 199.2421875 C-35.38831123 199.81158518 -23.77371803 195.30377862 -13.8515625 187.2578125 C-2.91999756 177.16391537 1.74398819 164.09692904 3.37890625 149.65234375 C3.96942162 134.27989533 -1.09853039 119.10635862 -11.5 107.75 C-21.27933018 98.51478293 -32.64038307 94.76718172 -45.8125 93.6875 C-61.84794747 94.2461119 -74.92111775 100.58597637 -85 113 Z " fill="#000000" transform="translate(1862,1316)"/>
<path d="M0 0 C3.55642398 2.80022558 6.8239813 5.77804715 10 9 C10.99 9.99 10.99 9.99 12 11 C12.33 5.06 12.66 -0.88 13 -7 C25.21 -7 37.42 -7 50 -7 C50 47.45 50 101.9 50 158 C37.79 158 25.58 158 13 158 C12.67 152.39 12.34 146.78 12 141 C10.63875 142.505625 9.2775 144.01125 7.875 145.5625 C-3.25263477 156.65870078 -17.98648011 161.30078842 -33.48779297 161.46801758 C-34.56432129 161.45794678 -35.64084961 161.44787598 -36.75 161.4375 C-37.88453613 161.43065186 -39.01907227 161.42380371 -40.18798828 161.41674805 C-49.36098847 161.24237876 -57.33166241 160.0259289 -66 157 C-67.55460937 156.49146484 -67.55460937 156.49146484 -69.140625 155.97265625 C-88.27650418 148.93445985 -103.46995897 133.25746671 -111.96801758 114.98828125 C-122.1991707 91.85458374 -123.18274508 65.40667012 -114.45703125 41.5703125 C-111.1269072 33.19731795 -106.74715053 25.9675879 -101 19 C-100.06027344 17.81664062 -100.06027344 17.81664062 -99.1015625 16.609375 C-75.90362067 -11.2281552 -30.78491934 -19.16727716 0 0 Z M-71.8046875 40.109375 C-81.60799504 52.98410508 -84.07696191 68.20455869 -83 84 C-80.77561135 99.0627893 -73.30465965 110.79350497 -61.125 119.875 C-50.04885265 127.19008797 -36.76694319 129.93013401 -23.71875 127.3515625 C-10.15311658 123.57256462 0.22212399 116.11564246 7.78515625 104.18359375 C16.09925439 88.84234632 16.88417641 72.52109671 12 56 C7.44933967 44.02534572 -0.54033625 33.97325611 -12 28 C-32.68797605 18.9124851 -56.72885281 22.48826951 -71.8046875 40.109375 Z " fill="#000000" transform="translate(520,1387)"/>
<path d="M0 0 C2.32575205 2.08266497 4.55806799 4.26900549 6.765625 6.4765625 C7.095625 0.8665625 7.425625 -4.7434375 7.765625 -10.5234375 C19.975625 -10.5234375 32.185625 -10.5234375 44.765625 -10.5234375 C44.765625 43.9265625 44.765625 98.3765625 44.765625 154.4765625 C32.555625 154.4765625 20.345625 154.4765625 7.765625 154.4765625 C7.435625 148.8665625 7.105625 143.2565625 6.765625 137.4765625 C6.0025 138.4871875 5.239375 139.4978125 4.453125 140.5390625 C-4.36780537 150.79209686 -18.8066824 156.67598368 -32.13769531 157.69946289 C-55.48325212 158.55056469 -76.99014016 155.20021227 -95.234375 139.4765625 C-95.9459375 138.91839844 -96.6575 138.36023437 -97.390625 137.78515625 C-113.88076771 124.25985084 -122.67754727 102.74440215 -125.046875 81.9140625 C-125.1330691 80.43608724 -125.19690633 78.95657479 -125.234375 77.4765625 C-125.27304688 76.73277344 -125.31171875 75.98898437 -125.3515625 75.22265625 C-126.10774524 49.72249377 -117.09408925 27.00901589 -99.671875 8.4765625 C-74.27402159 -16.19344895 -28.68321892 -23.48281098 0 0 Z M-75.0390625 36.5859375 C-84.84237004 49.46066758 -87.31133691 64.68112119 -86.234375 80.4765625 C-84.00998635 95.5393518 -76.53903465 107.27006747 -64.359375 116.3515625 C-53.28322765 123.66665047 -40.00131819 126.40669651 -26.953125 123.828125 C-13.38749158 120.04912712 -3.01225101 112.59220496 4.55078125 100.66015625 C12.18935034 86.56540101 13.5102438 71.52933781 9.859375 56.09765625 C5.85817304 42.85081977 -1.09868318 32.18278607 -13.37231445 25.40039062 C-34.07300776 14.77341688 -59.64601048 18.59405851 -75.0390625 36.5859375 Z " fill="#000000" transform="translate(1524.234375,1390.5234375)"/>
<path d="M0 0 C17.4975991 14.95685183 25.29901109 34.64181404 28 57 C28 66.57 28 76.14 28 86 C-11.93 86 -51.86 86 -93 86 C-88.18111627 100.45665118 -83.67205671 111.23780731 -70 118.3125 C-53.79333525 125.89173625 -36.86554492 125.48638561 -20.08984375 119.7109375 C-12.91124768 117.05831335 -6.46102429 113.72271701 -0.171875 109.3203125 C2 108 2 108 5 108 C6.80932617 110.15551758 6.80932617 110.15551758 8.79296875 113.14453125 C9.50517578 114.21380859 10.21738281 115.28308594 10.95117188 116.38476562 C11.31782959 116.94719971 11.6844873 117.50963379 12.06225586 118.08911133 C13.18155588 119.80339617 14.31873287 121.50467714 15.45898438 123.20507812 C21 131.59979242 21 131.59979242 21 135 C18.96339718 136.60302321 17.00801862 137.9593179 14.8125 139.3125 C14.17900635 139.70912842 13.5455127 140.10575684 12.89282227 140.5144043 C-11.01172233 155.17938608 -41.65416542 160.95504887 -69.25 154.5 C-82.0937073 151.08669714 -94.2636672 145.07654468 -104 136 C-104.70382812 135.37480469 -105.40765625 134.74960938 -106.1328125 134.10546875 C-121.87598243 119.40984815 -129.41730672 97.20224822 -130.22265625 76.109375 C-130.81298189 51.22841254 -125.15540928 27.86484508 -108 9 C-80.01529031 -19.35172228 -32.2026561 -24.35960232 0 0 Z M-81.75 31.75 C-87.67717172 38.86260607 -89.85949054 45.87592431 -91 55 C-63.28 55 -35.56 55 -7 55 C-9.99983068 42.00073373 -13.16310427 31.16935217 -24 23 C-43.99097515 11.8815797 -66.06673557 15.29100421 -81.75 31.75 Z " fill="#000000" transform="translate(1057,1392)"/>
<path d="M0 0 C1.28198242 1.78125 1.28198242 1.78125 2 4 C1.1730957 6.37841797 1.1730957 6.37841797 -0.32421875 8.9921875 C-0.85853516 9.94480469 -1.39285156 10.89742187 -1.94335938 11.87890625 C-2.51892578 12.86761719 -3.09449219 13.85632812 -3.6875 14.875 C-4.79622294 16.83036074 -5.90431378 18.78608004 -7.01171875 20.7421875 C-7.53427246 21.65452148 -8.05682617 22.56685547 -8.59521484 23.50683594 C-10.16699168 26.29637105 -11.61562986 29.1138573 -13 32 C-18.09128205 30.3604346 -23.04652231 28.58127581 -28 26.5625 C-33.20524817 24.53789701 -38.38649409 23.02387496 -43.8125 21.75 C-44.50537109 21.58701416 -45.19824219 21.42402832 -45.91210938 21.25610352 C-59.01654688 18.31323736 -75.56343691 16.49596808 -87.625 23.8125 C-91.56242328 27.43907407 -94.19175524 30.60656779 -94.5 36.0625 C-93.92125709 40.6201004 -93.47228548 42.0237553 -90 45 C-83.37517994 48.31669315 -76.87205763 49.75788715 -69.5625 50.5625 C-67.62483679 50.80468736 -65.68733898 51.04820133 -63.75 51.29296875 C-62.78707031 51.41075684 -61.82414063 51.52854492 -60.83203125 51.64990234 C-41.02657521 54.09826648 -19.14511081 57.38953945 -5 73 C4.37577242 85.2620766 6.21339858 96.94807956 5 112 C3.11607527 124.18271324 -4.58613114 134.39935654 -14 142 C-30.77383188 153.2847367 -49.73682369 156.42203639 -69.625 156.3125 C-70.32965393 156.31034485 -71.03430786 156.3081897 -71.76031494 156.30596924 C-93.58119028 156.19901325 -122.57898768 152.96442732 -139.18994141 136.87939453 C-139.78726074 136.25919434 -140.38458008 135.63899414 -141 135 C-138.81036499 131.30584684 -136.60473741 127.62190364 -134.38378906 123.9465332 C-133.63061985 122.69498135 -132.8818803 121.44075261 -132.13769531 120.18383789 C-131.06689574 118.37704207 -129.98050905 116.58048756 -128.890625 114.78515625 C-128.24125977 113.70113525 -127.59189453 112.61711426 -126.92285156 111.50024414 C-125 109 -125 109 -122.88720703 108.07568359 C-120.15219339 107.96599999 -118.87090891 109.03328898 -116.625 110.5625 C-104.04250934 118.50739131 -89.87855612 123.18439809 -75 124 C-74.03835938 124.05285156 -73.07671875 124.10570312 -72.0859375 124.16015625 C-59.42887148 124.51430773 -45.89801719 123.01741925 -36.0625 114.4375 C-33.03170543 110.85565187 -32.56033817 107.65143007 -32.6796875 102.98828125 C-32.90185646 100.75357243 -32.90185646 100.75357243 -34.75 98.3125 C-45.83226165 90.4270446 -59.06154787 89.00932462 -72.1953125 87.328125 C-91.20179369 84.86599274 -111.56527334 80.92747407 -125 66 C-132.65887202 56.05690299 -135.11868415 44.36855014 -134 32 C-132.32957218 19.58465808 -127.06172975 7.8340405 -117 0 C-86.11586637 -22.28131089 -31.6702694 -21.60364806 0 0 Z " fill="#000000" transform="translate(742,1392)"/>
<path d="M0 0 C12.21 0 24.42 0 37 0 C37 16.17 37 32.34 37 49 C56.14 49 75.28 49 95 49 C95 60.22 95 71.44 95 83 C75.86 83 56.72 83 37 83 C37.0909689 96.79702945 37.0909689 96.79702945 37.20898438 110.59375 C37.26316148 116.22686203 37.3142769 121.85987769 37.34643555 127.49316406 C37.37258412 132.03856901 37.41306695 136.58364744 37.46318626 141.12884903 C37.47977724 142.85659832 37.49133962 144.58440398 37.49761391 146.31222153 C37.27745531 161.65770891 37.27745531 161.65770891 43.25 175.4375 C48.69924756 180.51520795 54.07153001 181.51530646 61.25 181.375 C61.99507812 181.36629883 62.74015625 181.35759766 63.5078125 181.34863281 C72.49821179 181.11142937 80.15990139 178.66239842 88.22265625 174.76953125 C90 174 90 174 92 174 C93.4279783 178.2345633 94.85204104 182.47041664 96.27246094 186.70751953 C96.75640691 188.14928877 97.24142839 189.59069746 97.72753906 191.03173828 C98.42534712 193.10095279 99.11929998 195.17142543 99.8125 197.2421875 C100.23144531 198.4885498 100.65039062 199.73491211 101.08203125 201.01904297 C102 204 102 204 102 206 C79.74154348 216.6648863 55.69460646 221.57832197 31.3828125 214.3203125 C20.14040988 209.93240016 11.48291794 202.60831742 6.1875 191.6875 C1.46376095 180.31553561 -0.17337822 168.67699929 -0.11352539 156.45092773 C-0.11367142 155.64982071 -0.11381744 154.84871368 -0.1139679 154.02333069 C-0.11327855 151.41005621 -0.10553262 148.79685557 -0.09765625 146.18359375 C-0.09578859 144.35799702 -0.09436633 142.53239978 -0.09336853 140.70680237 C-0.08957078 135.92783192 -0.07976422 131.1488924 -0.06866455 126.36993408 C-0.05839116 121.4829551 -0.05385827 116.59597107 -0.04882812 111.70898438 C-0.03813922 102.13930722 -0.02056495 92.56966103 0 83 C-10.56 83 -21.12 83 -32 83 C-32 71.78 -32 60.56 -32 49 C-21.44 49 -10.88 49 0 49 C0 32.83 0 16.66 0 0 Z " fill="#000000" transform="translate(804,1331)"/>
<path d="M0 0 C0.67933594 0.5775 1.35867188 1.155 2.05859375 1.75 C1.47162371 5.68327256 0.27524241 8.49485203 -1.7421875 11.91015625 C-2.30744141 12.86857422 -2.87269531 13.82699219 -3.45507812 14.81445312 C-4.04869141 15.80380859 -4.64230469 16.79316406 -5.25390625 17.8125 C-5.83591797 18.80572266 -6.41792969 19.79894531 -7.01757812 20.82226562 C-9.68277707 25.30450846 -12.11254223 29.16417251 -15.94140625 32.75 C-16.60785156 32.30269531 -17.27429687 31.85539062 -17.9609375 31.39453125 C-33.77570469 21.02092872 -49.55259276 15.43350451 -68.5859375 19.28515625 C-80.81442136 22.50115122 -91.19262533 29.32068037 -98.265625 39.796875 C-106.45102409 54.22149438 -107.81819466 70.20856673 -104.04296875 86.15625 C-100.28059097 98.43067395 -94.3698962 108.44392118 -82.84423828 114.68554688 C-69.28459699 121.60747573 -55.21161744 122.77134482 -40.35546875 118.9375 C-32.89216439 116.34156805 -24.94615722 112.82740726 -18.6640625 108 C-16.94140625 106.75 -16.94140625 106.75 -13.94140625 106.75 C-11.81715426 110.37589811 -9.69944431 114.00551275 -7.58764648 117.63867188 C-6.86871955 118.87343172 -6.14803262 120.10716859 -5.42553711 121.33984375 C-4.38578435 123.11450778 -3.35247077 124.89278586 -2.3203125 126.671875 C-1.69713135 127.74018555 -1.0739502 128.80849609 -0.43188477 129.90917969 C0.80721326 132.27087415 1.59480944 134.14841699 2.05859375 136.75 C-17.6281346 154.30266565 -42.25225079 155.99531446 -67.43652344 154.98193359 C-88.33410906 153.59904795 -108.54481298 143.85753615 -122.94140625 128.75 C-139.10920027 109.84962108 -145.54816484 85.61523123 -143.6640625 61.1484375 C-141.88148722 42.34783885 -135.64307922 24.97775198 -122.94140625 10.75 C-122.27496094 9.98945312 -121.60851563 9.22890625 -120.921875 8.4453125 C-91.63767168 -22.95778494 -33.60761574 -25.70781762 0 0 Z " fill="#000000" transform="translate(1380.94140625,1393.25)"/>
<path d="M0 0 C1.08023437 -0.00128906 2.16046875 -0.00257812 3.2734375 -0.00390625 C4.39234375 -0.00003906 5.51125 0.00382812 6.6640625 0.0078125 C8.33082031 0.00201172 8.33082031 0.00201172 10.03125 -0.00390625 C15.5558115 0.00267061 20.84919143 0.1451702 26.2890625 1.1328125 C25.66319482 8.7285702 23.56960412 15.78087337 21.4140625 23.0703125 C20.88619141 24.93526367 20.88619141 24.93526367 20.34765625 26.83789062 C19.82751953 28.60616211 19.82751953 28.60616211 19.296875 30.41015625 C18.82725342 32.02265259 18.82725342 32.02265259 18.34814453 33.66772461 C17.99864746 34.48120361 17.64915039 35.29468262 17.2890625 36.1328125 C13.35768931 37.44327023 10.34772391 36.46024824 6.4140625 35.6328125 C-5.07231052 33.46214974 -14.62994513 33.51507036 -25.11328125 39.34375 C-33.00931508 44.78192067 -36.32214585 53.53221831 -38.24571228 62.67446899 C-38.85288925 67.18803888 -38.8881708 71.62771783 -38.91625977 76.17724609 C-38.92615936 77.17298645 -38.93605896 78.16872681 -38.94625854 79.19464111 C-38.97775039 82.47348687 -39.00258218 85.75234709 -39.02734375 89.03125 C-39.04792391 91.30954354 -39.06892066 93.58783336 -39.09031677 95.86611938 C-39.1454277 101.85342382 -39.19488531 107.84076209 -39.24316406 113.828125 C-39.29345936 119.94143677 -39.34910347 126.05469959 -39.40429688 132.16796875 C-39.51174414 144.15620969 -39.61272435 156.14449235 -39.7109375 168.1328125 C-51.9209375 168.1328125 -64.1309375 168.1328125 -76.7109375 168.1328125 C-76.7109375 113.6828125 -76.7109375 59.2328125 -76.7109375 3.1328125 C-64.5009375 3.1328125 -52.2909375 3.1328125 -39.7109375 3.1328125 C-39.2159375 11.5478125 -39.2159375 11.5478125 -38.7109375 20.1328125 C-37.6178125 18.7921875 -36.5246875 17.4515625 -35.3984375 16.0703125 C-26.1989725 5.74935795 -13.81518466 0.0159555 0 0 Z " fill="#000000" transform="translate(1199.7109375,1376.8671875)"/>
<path d="M0 0 C1.56186027 3.98838821 0.38809981 6.90010045 -0.8359375 10.8828125 C-1.03474518 11.53829071 -1.23355286 12.19376892 -1.43838501 12.86911011 C-2.07451788 14.95742131 -2.72475603 17.04104502 -3.375 19.125 C-3.80557366 20.53488593 -4.23527114 21.94503975 -4.6640625 23.35546875 C-7.79449182 33.58898365 -7.79449182 33.58898365 -9 36 C-10.22074219 35.77183594 -11.44148438 35.54367187 -12.69921875 35.30859375 C-27.67073806 32.63848474 -39.88359752 31.65245334 -53.1875 40 C-60.243735 46.36830123 -63.46297399 57.23141842 -64.19539261 66.46269417 C-64.28316843 69.13555232 -64.31264099 71.80251644 -64.31884766 74.47680664 C-64.33391609 75.98570465 -64.33391609 75.98570465 -64.34928894 77.52508545 C-64.37995658 80.82010372 -64.39711026 84.11504135 -64.4140625 87.41015625 C-64.43278736 89.70658555 -64.45236174 92.00300806 -64.4727478 94.29942322 C-64.52393568 100.32119739 -64.56363273 106.34299384 -64.60089111 112.36486816 C-64.64101459 118.51869151 -64.69206879 124.67242326 -64.7421875 130.82617188 C-64.83878879 142.88405644 -64.92223283 154.94197924 -65 167 C-77.21 167 -89.42 167 -102 167 C-102 112.55 -102 58.1 -102 2 C-89.79 2 -77.58 2 -65 2 C-64.505 10.415 -64.505 10.415 -64 19 C-62.7625 17.494375 -61.525 15.98875 -60.25 14.4375 C-44.84726803 -2.58022891 -21.45401996 -3.75218403 0 0 Z " fill="#000000" transform="translate(1718,1378)"/>
</svg>
